<?xml version="1.0" encoding="UTF-8"?>
<svg width="32px" height="32px" viewBox="0 0 32 32" version="1.1" xmlns="http://www.w3.org/2000/svg" xmlns:xlink="http://www.w3.org/1999/xlink">
    <!-- Generator: Sketch 43.1 (39012) - http://www.bohemiancoding.com/sketch -->
    <title>email-footer</title>
    <desc>Created with Sketch.</desc>
    <defs></defs>
    <g id="Design" stroke="none" stroke-width="1" fill="none" fill-rule="evenodd">
        <g id="Домашняя-страница" transform="translate(-730.000000, -3146.000000)">
            <g id="email-footer" transform="translate(731.000000, 3147.000000)">
                <g id="email-2">
                    <ellipse id="Oval-Copy" stroke="#C5E1F2" stroke-width="2" cx="15" cy="15" rx="15" ry="15"></ellipse>
                    <g id="005-envelope" transform="translate(3.600000, 6.600000)" fill-rule="nonzero" fill="#C5E1F2">
                        <path d="M19.987686,0.0353305785 L2.78404959,0.0353305785 C1.24834711,0.0353305785 0,1.28367769 0,2.81938017 L0,14.5773967 C0,16.1130992 1.24834711,17.3614463 2.78404959,17.3614463 L19.9829752,17.3614463 C21.5186777,17.3614463 22.7670248,16.1130992 22.7670248,14.5773967 L22.7670248,2.82409091 C22.7717355,1.28838843 21.5233884,0.0353305785 19.987686,0.0353305785 Z M21.4998347,14.5773967 C21.4998347,15.4111983 20.8214876,16.0895455 19.987686,16.0895455 L2.78404959,16.0895455 C1.95024793,16.0895455 1.27190083,15.4111983 1.27190083,14.5773967 L1.27190083,2.82409091 C1.27190083,1.99028926 1.95024793,1.31194215 2.78404959,1.31194215 L19.9829752,1.31194215 C20.8167769,1.31194215 21.495124,1.99028926 21.495124,2.82409091 L21.495124,14.5773967 L21.4998347,14.5773967 Z" id="Shape"></path>
                        <path d="M14.3583471,8.55235537 L19.9264463,3.55896694 C20.1855372,3.32342975 20.2090909,2.92301653 19.9735537,2.65921488 C19.7380165,2.40012397 19.3376033,2.37657025 19.0738017,2.61210744 L11.3952893,9.50392562 L9.89727273,8.16607438 C9.89256198,8.16136364 9.88785124,8.15665289 9.88785124,8.15194215 C9.85487603,8.11896694 9.82190083,8.09070248 9.78421488,8.06243802 L3.6885124,2.60739669 C3.42471074,2.3718595 3.02429752,2.39541322 2.78876033,2.65921488 C2.55322314,2.92301653 2.57677686,3.32342975 2.84057851,3.55896694 L8.4746281,8.59475207 L2.86413223,13.8472314 C2.60975207,14.0874793 2.59561983,14.4878926 2.83586777,14.7469835 C2.96305785,14.8788843 3.13264463,14.9495455 3.3022314,14.9495455 C3.45768595,14.9495455 3.6131405,14.8930165 3.73561983,14.7799587 L9.43090909,9.45210744 L10.9760331,10.8323554 C11.0985124,10.9407025 11.2492562,10.9925207 11.4,10.9925207 C11.5507438,10.9925207 11.7061983,10.9359917 11.8239669,10.8276446 L13.4114876,9.405 L19.0738017,14.7846694 C19.196281,14.902438 19.3564463,14.9589669 19.5119008,14.9589669 C19.6814876,14.9589669 19.8463636,14.8930165 19.9735537,14.7611157 C20.2138017,14.5067355 20.2043802,14.1016116 19.95,13.8613636 L14.3583471,8.55235537 Z" id="Shape"></path>
                    </g>
                </g>
            </g>
        </g>
    </g>
</svg>