<?xml version="1.0" encoding="UTF-8"?>
<svg width="32px" height="32px" viewBox="0 0 32 32" version="1.1" xmlns="http://www.w3.org/2000/svg" xmlns:xlink="http://www.w3.org/1999/xlink">
    <!-- Generator: Sketch 43.1 (39012) - http://www.bohemiancoding.com/sketch -->
    <title>телефон-footer</title>
    <desc>Created with Sketch.</desc>
    <defs></defs>
    <g id="Design" stroke="none" stroke-width="1" fill="none" fill-rule="evenodd">
        <g id="Домашняя-страница" transform="translate(-670.000000, -3146.000000)">
            <g id="телефон-footer" transform="translate(671.000000, 3147.000000)">
                <g id="телефон">
                    <circle id="Oval-Copy-2" stroke="#C5E1F2" stroke-width="2" cx="15" cy="15" r="15"></circle>
                    <g id="phone" transform="translate(5.400000, 6.000000)" fill-rule="nonzero" fill="#C5E1F2">
                        <path d="M18.0793088,14.3230515 L14.3213836,11.8169462 C13.8444912,11.5014713 13.2052386,11.605276 12.8526725,12.055483 L11.7580281,13.4629193 C11.6173497,13.6484117 11.3616269,13.7022175 11.1581146,13.5891673 L10.9498889,13.4743766 C10.2596222,13.0981345 9.40075906,12.6297263 7.67030643,10.8986573 C5.9398538,9.1675883 5.47050292,8.30807251 5.09426082,7.61907485 L4.98008655,7.41084912 C4.86547719,7.2073731 4.91826784,6.95056257 5.10383275,6.80876023 L6.51032632,5.71444211 C6.96035205,5.36183977 7.06430175,4.72276842 6.74918947,4.24573099 L4.24308421,0.487805848 C3.92014035,0.00203040936 3.27222222,-0.143796491 2.77227018,0.156740351 L1.20084211,1.10069942 C0.707090058,1.39097544 0.344843275,1.86108772 0.190060819,2.41252515 C-0.375807018,4.47433333 0.0498900585,8.03269825 5.29168187,13.2751064 C9.46141754,17.4445158 12.5655871,18.5657731 14.6991848,18.5657731 C15.1902175,18.567876 15.6793287,18.5039906 16.1533567,18.3758211 C16.7049029,18.2212199 17.1750877,17.8589368 17.4651825,17.3650398 L18.4100842,15.7945544 C18.7110561,15.2944936 18.5653018,14.6461766 18.0793088,14.3230515 Z M17.8769567,15.4770854 L16.9342304,17.0485135 C16.7259322,17.4049953 16.3877602,17.6670994 15.9905614,17.7799322 C14.0871614,18.3025088 10.761786,17.869669 5.72945263,12.8373357 C0.697119298,7.80500234 0.264315789,4.47991696 0.786892398,2.5762269 C0.899870175,2.17855673 1.16230058,1.83994971 1.51921754,1.63132515 L3.09064561,0.68859883 C3.3075731,0.558072515 3.5887848,0.62134152 3.7289193,0.83214152 L5.09027251,2.87600234 L6.23288538,4.58974035 C6.36972047,4.79666082 6.3247614,5.07399298 6.12955205,5.2271076 L4.72273216,6.32142573 C4.29460585,6.64879298 4.1723462,7.24112865 4.43593684,7.71124094 L4.54764561,7.91420936 C4.94306784,8.63942807 5.4346807,9.54161871 7.22949006,11.336138 C9.02429942,13.1306211 9.9262,13.6222702 10.6510924,14.0176561 L10.8543509,14.129655 C11.3244269,14.3932094 11.9167988,14.270986 12.2441661,13.8428596 L13.3384842,12.4360398 C13.4916351,12.2409392 13.7688585,12.1960164 13.9758515,12.3327064 L17.7334503,14.8388117 C17.9443953,14.9788374 18.0076643,15.2601942 17.8769567,15.4770854 Z" id="Shape"></path>
                        <path d="M10.5204573,3.0960117 C13.4239789,3.0992386 15.7769333,5.45222924 15.7801965,8.35575088 C15.7801965,8.52663158 15.9186994,8.6651345 16.0895801,8.6651345 C16.2604608,8.6651345 16.3989637,8.52663158 16.3989637,8.35575088 C16.3953743,5.11061287 13.7655953,2.48079766 10.5204573,2.47724444 C10.3495766,2.47724444 10.2110737,2.61574737 10.2110737,2.78662807 C10.2110737,2.95750877 10.3495766,3.0960117 10.5204573,3.0960117 Z" id="Shape"></path>
                        <path d="M10.5204573,4.95238596 C12.3991661,4.95459766 13.9216105,6.47704211 13.9238222,8.35575088 C13.9238222,8.52663158 14.0623614,8.6651345 14.2332058,8.6651345 C14.4040865,8.6651345 14.5425895,8.52663158 14.5425895,8.35575088 C14.5400152,6.13542573 12.7407462,4.33615673 10.5204573,4.33361871 C10.3495766,4.33361871 10.2110737,4.47212164 10.2110737,4.64300234 C10.2110737,4.81388304 10.3495766,4.95238596 10.5204573,4.95238596 Z" id="Shape"></path>
                        <path d="M10.5204573,6.80876023 C11.3743895,6.80977544 12.0663965,7.50178246 12.067448,8.35575088 C12.067448,8.52663158 12.2059871,8.6651345 12.3768316,8.6651345 C12.547676,8.6651345 12.6862152,8.52663158 12.6862152,8.35575088 C12.6848374,7.16020234 11.7160058,6.1913345 10.5204573,6.18999298 C10.3495766,6.18999298 10.2110737,6.32849591 10.2110737,6.49937661 C10.2110737,6.67025731 10.3495766,6.80876023 10.5204573,6.80876023 Z" id="Shape"></path>
                    </g>
                </g>
            </g>
        </g>
    </g>
</svg>