<?xml version="1.0" encoding="UTF-8"?>
<svg width="52px" height="52px" viewBox="0 0 52 52" version="1.1" xmlns="http://www.w3.org/2000/svg" xmlns:xlink="http://www.w3.org/1999/xlink">
    <!-- Generator: Sketch 43.1 (39012) - http://www.bohemiancoding.com/sketch -->
    <title>качество</title>
    <desc>Created with Sketch.</desc>
    <defs></defs>
    <g id="Design" stroke="none" stroke-width="1" fill="none" fill-rule="evenodd">
        <g id="Домашняя-страница" transform="translate(-151.000000, -1428.000000)">
            <g id="качество" transform="translate(152.000000, 1429.000000)">
                <circle id="Oval-Copy-10" stroke="#509FAE" stroke-width="2" cx="25" cy="25" r="25"></circle>
                <g id="003-shield" transform="translate(9.000000, 6.000000)" fill-rule="nonzero" fill="#509FAE">
                    <path d="M31.9207258,10.0988762 L31.9195805,10.0701181 C31.9032601,9.71515326 31.8923798,9.33960675 31.8857944,8.92176885 C31.8551578,6.88417486 30.2102319,5.19872634 28.1406888,5.08482182 C23.8258004,4.84770865 20.4878462,3.46224629 17.6357822,0.724872591 L17.6114448,0.702035245 C16.6811812,-0.137869561 15.2779119,-0.137869561 14.3473619,0.702035245 L14.3230245,0.724872591 C11.4709606,3.46224629 8.13300636,4.84770865 3.81811796,5.08510375 C1.74886122,5.19872634 0.103648909,6.88417486 0.0730123974,8.92205077 C0.0667132535,9.33706922 0.055546636,9.7126158 0.0392262402,10.0701181 L0.0375083385,10.1369383 C-0.0463842983,14.4695392 -0.150605964,19.8616777 1.68128898,24.7559067 C2.68857352,27.447324 4.21410276,29.7868777 6.21521458,31.7100033 C8.49434609,33.9001278 11.4795502,35.6388633 15.0877934,36.877716 C15.2051858,36.9180337 15.3271595,36.9507389 15.4514236,36.9752678 C15.6266534,37.0096648 15.8030284,37.0268632 15.9794034,37.0268632 C16.1557784,37.0268632 16.3324397,37.0096648 16.5073831,36.9752678 C16.6316473,36.9507389 16.7544799,36.9177517 16.872445,36.877152 C20.4763933,35.6360439 23.4584479,33.8964625 25.7355752,31.7066199 C27.735828,29.7829305 29.2613572,27.4428129 30.2695008,24.7508318 C32.1082674,19.8419417 32.0043321,14.4396534 31.9207258,10.0988762 Z M28.2033936,24.0005845 C26.2712856,29.1589931 22.3271855,32.7015928 16.1457571,34.830254 C16.1237102,34.8375845 16.1002317,34.8440691 16.0758942,34.8488622 C16.0120442,34.8612676 15.9470489,34.8612676 15.8823399,34.8485802 C15.8582887,34.8437872 15.8348102,34.8375845 15.8130497,34.830254 C9.62503582,32.70554 5.67835883,29.1649139 3.74768245,24.0062233 C2.05923541,19.4948713 2.15486735,14.5450996 2.2393326,10.1783838 L2.23990528,10.1541368 C2.25708466,9.77887216 2.26853758,9.38584515 2.27483665,8.95391026 C2.28858016,8.04915871 3.02042189,7.30060307 3.94095053,7.25013546 C6.38271354,7.11593112 8.52784587,6.65129091 10.4988938,5.82971223 C12.4673648,5.0092614 14.2156533,3.85273577 15.8431136,2.29416106 C15.925861,2.22536724 16.0332321,2.22508532 16.1156931,2.29416106 C17.7434397,3.85273577 19.4917283,5.0092614 21.459913,5.82971223 C23.4309609,6.65129091 25.5760933,7.11593112 28.0181426,7.25013546 C28.9386712,7.30060307 29.6705129,8.04915871 29.6839701,8.95419218 C29.6905555,9.38838268 29.7020084,9.78140962 29.7191878,10.1541368 C29.8033668,14.5259276 29.8967081,19.4796464 28.2033936,24.0005845 Z" id="Shape"></path>
                    <path d="M15.9788308,9.34045252 C10.8215799,9.34045252 6.62608818,13.4720289 6.62608818,18.550084 C6.62608818,23.6284212 10.8215799,27.7599975 15.9788308,27.7599975 C21.1357952,27.7599975 25.3315733,23.6284212 25.3315733,18.550084 C25.3315733,13.4720289 21.1357952,9.34045252 15.9788308,9.34045252 Z M15.9788308,25.5913006 C12.0358759,25.5913006 8.82819874,22.4327057 8.82819874,18.550084 C8.82819874,14.6674624 12.0358759,11.5088675 15.9788308,11.5088675 C19.9214992,11.5088675 23.1291764,14.6674624 23.1291764,18.550084 C23.1291764,22.4327057 19.9214992,25.5913006 15.9788308,25.5913006 Z" id="Shape"></path>
                    <path d="M18.6668316,15.6909114 L14.3227382,19.9685336 L13.1436598,18.807497 C12.7136026,18.3840203 12.016406,18.3840203 11.5863487,18.807497 C11.1565778,19.2309737 11.1565778,19.9175022 11.5863487,20.3406969 L13.5442258,22.2686155 C13.7592544,22.4803539 14.0409963,22.586082 14.3227382,22.586082 C14.6044801,22.586082 14.886222,22.4803539 15.1012506,22.2686155 L20.2241426,17.2241114 C20.6539136,16.8006347 20.6539136,16.1141062 20.2241426,15.6909114 C19.7940854,15.2671528 19.0968888,15.2671528 18.6668316,15.6909114 Z" id="Shape"></path>
                </g>
            </g>
        </g>
    </g>
</svg>