<?xml version="1.0" encoding="UTF-8"?>
<svg width="52px" height="52px" viewBox="0 0 52 52" version="1.1" xmlns="http://www.w3.org/2000/svg" xmlns:xlink="http://www.w3.org/1999/xlink">
    <!-- Generator: Sketch 43.1 (39012) - http://www.bohemiancoding.com/sketch -->
    <title>оборудование</title>
    <desc>Created with Sketch.</desc>
    <defs></defs>
    <g id="Design" stroke="none" stroke-width="1" fill="none" fill-rule="evenodd">
        <g id="Домашняя-страница" transform="translate(-365.000000, -1428.000000)">
            <g id="оборудование" transform="translate(366.000000, 1429.000000)">
                <circle id="Oval-Copy-9" stroke="#509FAE" stroke-width="2" cx="25" cy="25" r="25"></circle>
                <g id="004-wrench" transform="translate(10.000000, 9.000000)" fill-rule="nonzero" fill="#509FAE">
                    <path d="M29.9629033,18.8383978 C29.9629033,17.291992 28.6769166,16.0338526 27.0962831,16.0338526 L23.7561871,16.0338526 L23.7561871,11.6482097 C25.6962642,10.5490536 26.9182195,8.50772795 26.9182195,6.28595503 C26.9182195,5.00410538 26.5212753,3.77366952 25.7697346,2.72792377 C25.0360513,1.70713621 24.0199661,0.934182887 22.8311746,0.493172683 L21.5023302,0 L21.5023302,4.16201805 L20.5862464,4.71533981 L19.6699076,4.16201805 L19.6699076,0 L18.3413183,0.492923118 C17.1525268,0.934182887 16.1361866,1.70713621 15.4027583,2.72792377 C14.6512176,3.77366952 14.2540184,5.00385582 14.2540184,6.28595503 C14.2540184,8.53343484 15.4956168,10.5854924 17.4668167,11.6771611 L17.4668167,12.9682453 L13.3129343,12.9682453 L8.04424091,17.112543 L7.35647655,17.112543 L7.35647655,15.5798642 L0.0326535007,15.5798642 L0.0326535007,32.7131224 L7.3567317,32.7131224 L7.3567317,30.8939242 L10.9279532,32.7131224 L25.0942153,32.7131224 L25.0942153,32.6604608 C26.4120902,32.4083837 27.4095526,31.2705424 27.4095526,29.9085772 C27.4095526,29.4129087 27.2768977,28.9471899 27.045262,28.5426186 C27.807262,28.0379652 28.3090545,27.1846467 28.3090545,26.2185174 C28.3090545,25.7111186 28.170022,25.235167 27.9279269,24.823857 C28.6664573,24.3162086 29.1506474,23.4768666 29.1506474,22.5284576 C29.1506474,22.0150688 29.0080435,21.5338761 28.7608463,21.1195711 C29.4878969,20.6104252 29.9629033,19.7778219 29.9629033,18.8383978 L29.9629033,18.8383978 Z M16.2155244,6.28595503 C16.2155244,5.0387972 16.7813483,3.87100626 17.7084016,3.07184685 L17.7084016,5.23222274 L20.5862464,6.97105579 L23.4638362,5.2324723 L23.4638362,3.07184685 C24.3911446,3.87100626 24.9567134,5.0387972 24.9567134,6.28595503 C24.9567134,7.96688522 23.9429243,9.49831618 22.3737705,10.1876598 L21.7946811,10.4422328 L21.7946811,16.0341022 L19.4283227,16.0341022 L19.4283227,10.4574572 L18.8400495,10.2061288 C17.2456402,9.5250214 16.2155244,7.98635259 16.2155244,6.28595503 L16.2155244,6.28595503 Z M5.39522566,30.7940917 L1.99415948,30.7940917 L1.99415948,17.4988949 L5.39522566,17.4988949 L5.39522566,30.7940917 Z M24.5431875,30.7940917 L11.4080617,30.7940917 L7.3567317,28.7303037 L7.3567317,19.0315738 L8.73506653,19.0315738 L14.0037599,14.8875255 L17.4405409,14.8875255 L17.4405409,17.9531329 L27.0962831,17.9531329 C27.5952694,17.9531329 28.0013973,18.3502168 28.0013973,18.8386474 C28.0013973,19.3268285 27.5952694,19.7241619 27.0962831,19.7241619 L21.3806449,19.7241619 L21.3806449,21.6431927 L26.2840272,21.6431927 C26.7830135,21.6431927 27.1888864,22.0402765 27.1888864,22.5287072 C27.1888864,23.0168883 26.7830135,23.4142217 26.2840272,23.4142217 L20.539307,23.4142217 L20.539307,25.3332525 L25.4424343,25.3332525 C25.9416757,25.3332525 26.3475485,25.7303364 26.3475485,26.218767 C26.3475485,26.706948 25.9416757,27.1042815 25.4424343,27.1042815 L19.6398052,27.1042815 L19.6398052,29.0233122 L24.5431875,29.0233122 C25.0421738,29.0233122 25.4483017,29.4203961 25.4483017,29.9088267 C25.4483017,30.3970078 25.0421738,30.7940917 24.5431875,30.7940917 L24.5431875,30.7940917 Z" id="Shape"></path>
                </g>
            </g>
        </g>
    </g>
</svg>