<?xml version="1.0" encoding="UTF-8"?>
<svg width="52px" height="52px" viewBox="0 0 52 52" version="1.1" xmlns="http://www.w3.org/2000/svg" xmlns:xlink="http://www.w3.org/1999/xlink">
    <!-- Generator: Sketch 43.1 (39012) - http://www.bohemiancoding.com/sketch -->
    <title>положительные-отзывы</title>
    <desc>Created with Sketch.</desc>
    <defs></defs>
    <g id="Design" stroke="none" stroke-width="1" fill="none" fill-rule="evenodd">
        <g id="Домашняя-страница" transform="translate(-1239.000000, -1428.000000)">
            <g id="положительные-отзывы" transform="translate(1240.000000, 1429.000000)">
                <circle id="Oval-Copy-7" stroke="#509FAE" stroke-width="2" cx="25" cy="25" r="25"></circle>
                <g id="002-quality" transform="translate(9.000000, 9.000000)" fill-rule="nonzero" fill="#509FAE">
                    <path d="M30.9932624,18.1721127 C30.9932624,16.6010165 29.6952105,15.3228268 28.0997005,15.3228268 L23.8022468,15.3228268 C24.3346622,13.9053387 24.6648497,12.2216639 24.8578824,10.9462602 C25.0528442,9.65876285 24.6701867,8.35549945 23.8080339,7.37053295 C22.9484531,6.38847905 21.7002349,5.82520687 20.3835356,5.82520687 C19.850863,5.82520687 19.419015,6.25044698 19.419015,6.77496886 C19.419015,9.06940388 18.0799389,12.5331225 16.5172226,13.3046459 C14.7581942,14.1729183 11.2977514,15.1351538 10.608505,15.3228268 L0.964584914,15.3228268 C0.43191233,15.3228268 6.43013741e-05,15.7480669 6.43013741e-05,16.2725888 L6.43013741e-05,29.5692566 C-7.50412238e-14,30.0937785 0.431848029,30.5190186 0.964520613,30.5190186 L3.85808245,30.5190186 L3.85808245,31.4687806 C3.85808245,31.9933025 4.28993048,32.4185426 4.82260306,32.4185426 L8.80928826,32.4185426 C9.98735374,32.4185426 11.0024795,31.721354 11.4534894,30.7242938 L18.220566,32.3901764 C18.2970846,32.4089817 18.3756609,32.4185426 18.4544944,32.4185426 L24.2416181,32.4185426 C25.8371281,32.4185426 27.1351799,31.1403529 27.1351799,29.5692566 C27.1351799,29.1987228 27.0629695,28.8445249 26.9317304,28.5195164 C28.159115,28.1896324 29.0642211,27.0820199 29.0642211,25.7702087 C29.0642211,25.3996749 28.9920107,25.045477 28.8607716,24.7204684 C30.0881562,24.3905844 30.9932624,23.282972 30.9932624,21.9711607 C30.9932624,21.2420601 30.7137443,20.576087 30.2546968,20.0716367 C30.7137443,19.5671865 30.9932624,18.9012134 30.9932624,18.1721127 Z M3.85801815,28.6194946 L1.92897692,28.6194946 L1.92897692,17.2223508 L3.85801815,17.2223508 L3.85801815,28.6194946 Z M9.77374457,29.5692566 C9.77374457,30.0929554 9.34106063,30.5190186 8.80922396,30.5190186 L5.78705937,30.5190186 L5.78705937,17.2223508 L9.77374457,17.2223508 L9.77374457,29.5692566 Z M22.3125768,21.0213987 L28.0997005,21.0213987 C28.6315372,21.0213987 29.0642211,21.4474619 29.0642211,21.9711607 C29.0642211,22.4948595 28.6315372,22.9209227 28.0997005,22.9209227 L22.3125768,22.9209227 C21.7799043,22.9209227 21.3480562,23.3461628 21.3480562,23.8706847 C21.3480562,24.3952066 21.7799043,24.8204467 22.3125768,24.8204467 L26.1706593,24.8204467 C26.702496,24.8204467 27.1351799,25.2465099 27.1351799,25.7702087 C27.1351799,26.2939074 26.702496,26.7199707 26.1706593,26.7199707 L22.3125768,26.7199707 C21.7799043,26.7199707 21.3480562,27.1452108 21.3480562,27.6697327 C21.3480562,28.1942545 21.7799043,28.6194946 22.3125768,28.6194946 L24.2416181,28.6194946 C24.7734547,28.6194946 25.2061387,29.0455579 25.2061387,29.5692566 C25.2061387,30.0929554 24.7734547,30.5190186 24.2416181,30.5190186 L18.573259,30.5190186 L11.7028501,28.8277458 L11.7028501,16.9928883 C13.0041813,16.6249505 15.7644464,15.8011269 17.3816903,15.002757 C19.5968726,13.909201 20.9533101,10.4502945 21.2741739,7.87992196 C21.684481,8.02770493 22.0548569,8.27704911 22.3469781,8.61073216 C22.8423559,9.17660035 23.062138,9.92577261 22.9499964,10.6661437 C22.4931351,13.6834743 21.9200169,14.9220272 21.4499096,15.8477919 C21.3004089,16.1422181 21.3163556,16.4918572 21.4920913,16.771847 C21.667827,17.0518368 21.978274,17.2223508 22.3125768,17.2223508 L28.0997005,17.2223508 C28.6315372,17.2223508 29.0642211,17.648414 29.0642211,18.1721127 C29.0642211,18.6958115 28.6315372,19.1218747 28.0997005,19.1218747 L22.3125768,19.1218747 C21.7799043,19.1218747 21.3480562,19.5471148 21.3480562,20.0716367 C21.3480562,20.5961586 21.7799043,21.0213987 22.3125768,21.0213987 Z" id="Shape"></path>
                    <path d="M21.3480562,0 C20.8153836,0 20.3835356,0.425240102 20.3835356,0.94976199 L20.3835356,2.9759209 C20.3835356,3.50044279 20.8153836,3.92568289 21.3480562,3.92568289 C21.8807288,3.92568289 22.3125768,3.50044279 22.3125768,2.9759209 L22.3125768,0.94976199 C22.3125768,0.425240102 21.8807288,0 21.3480562,0 Z" id="Shape"></path>
                    <path d="M15.8918917,4.80794847 L14.5278667,3.46479506 C14.1512535,3.09388134 13.5405191,3.09388134 13.1638416,3.46479506 C12.7871642,3.83570877 12.7871642,4.43703475 13.1638416,4.80794847 L14.5278667,6.15110187 C14.9044798,6.52201559 15.5152786,6.52201559 15.8918917,6.15110187 C16.2685692,5.78018816 16.2685692,5.17886218 15.8918917,4.80794847 Z" id="Shape"></path>
                    <path d="M12.6673064,10.5740168 L10.7382652,10.5740168 C10.2055926,10.5740168 9.77374457,10.9992569 9.77374457,11.5237788 C9.77374457,12.0483007 10.2055926,12.4735408 10.7382652,12.4735408 L12.6673064,12.4735408 C13.199979,12.4735408 13.631827,12.0483007 13.631827,11.5237788 C13.631827,10.9992569 13.199979,10.5740168 12.6673064,10.5740168 Z" id="Shape"></path>
                    <path d="M31.957783,10.5740168 L30.0287417,10.5740168 C29.4960692,10.5740168 29.0642211,10.9992569 29.0642211,11.5237788 C29.0642211,12.0483007 29.4960692,12.4735408 30.0287417,12.4735408 L31.957783,12.4735408 C32.4904555,12.4735408 32.9223036,12.0483007 32.9223036,11.5237788 C32.9223036,10.9992569 32.4904555,10.5740168 31.957783,10.5740168 Z" id="Shape"></path>
                    <path d="M29.5322708,3.46479506 C29.1556577,3.09388134 28.5449232,3.09388134 28.1682458,3.46479506 L26.8042207,4.80794847 C26.4275433,5.17886218 26.4275433,5.78018816 26.8042207,6.15110187 C27.1808339,6.52201559 27.7916326,6.52201559 28.1682458,6.15110187 L29.5322708,4.80794847 C29.9089483,4.43703475 29.9089483,3.83570877 29.5322708,3.46479506 Z" id="Shape"></path>
                </g>
            </g>
        </g>
    </g>
</svg>