<?xml version="1.0" encoding="UTF-8"?>
<svg width="52px" height="52px" viewBox="0 0 52 52" version="1.1" xmlns="http://www.w3.org/2000/svg" xmlns:xlink="http://www.w3.org/1999/xlink">
    <!-- Generator: Sketch 43.1 (39012) - http://www.bohemiancoding.com/sketch -->
    <title>специалисты</title>
    <desc>Created with Sketch.</desc>
    <defs></defs>
    <g id="Design" stroke="none" stroke-width="1" fill="none" fill-rule="evenodd">
        <g id="Домашняя-страница" transform="translate(-579.000000, -1428.000000)">
            <g id="специалисты" transform="translate(580.000000, 1429.000000)">
                <circle id="Oval-Copy-5" stroke="#509FAE" stroke-width="2" cx="25" cy="25" r="25"></circle>
                <g id="005-target" transform="translate(9.000000, 16.000000)" fill-rule="nonzero" fill="#509FAE">
                    <path d="M1.99094698,17.4714264 L10.0032089,17.4714264 C10.439476,17.4714264 10.8432144,17.3288288 11.1716904,17.0879544 C11.5001664,17.3288288 11.9039047,17.4714264 12.3401718,17.4714264 L20.3527527,17.4714264 C20.7890198,17.4714264 21.1927582,17.3288288 21.5212341,17.0879544 C21.8497101,17.3288288 22.2534485,17.4714264 22.6897156,17.4714264 L30.7019775,17.4714264 C31.7996613,17.4714264 32.6926056,16.5718407 32.6926056,15.4663875 L32.6926056,11.7036075 C32.6926056,10.0136325 31.7534195,8.545583 30.34767,7.82135381 C31.0288589,6.99403038 31.4389755,5.93289816 31.4389755,4.77670082 C31.4389755,2.14281907 29.3112168,0 26.6958466,0 C24.0804764,0 21.9527177,2.14281907 21.9527177,4.77670082 C21.9527177,5.93289816 22.3628342,6.99435152 23.0440232,7.82135381 C22.4365021,8.13481175 21.916362,8.58733452 21.5212341,9.13620716 C21.1261063,8.58701338 20.6059662,8.13449061 19.9981262,7.82135381 C20.6793152,6.99435152 21.0894318,5.93289816 21.0894318,4.77670082 C21.0894318,2.14281907 18.961673,0 16.3463028,0 C13.7309326,0 11.6031738,2.14281907 11.6031738,4.77670082 C11.6031738,5.93289816 12.0136093,6.99435152 12.6947983,7.82167495 C12.0869584,8.13481175 11.5668183,8.58733452 11.1716904,9.1365283 C10.7765625,8.58733452 10.2564224,8.13481175 9.64858248,7.82135381 C10.3297714,6.99435152 10.7398881,5.93289816 10.7398881,4.77702196 C10.7398881,2.14281907 8.61212927,0 5.99675903,0 C3.38170776,0 1.25394897,2.14281907 1.25394897,4.77702196 C1.25394897,5.93289816 1.66406559,6.99435152 2.34525456,7.82167495 C0.939505046,8.54590414 0,10.0142748 0,11.7039287 L0,15.4663875 C0,16.5718407 0.893263224,17.4714264 1.99094698,17.4714264 L1.99094698,17.4714264 Z M26.6961655,1.65625267 C28.4045593,1.65625267 29.7946823,3.05589382 29.7946823,4.77670082 C29.7946823,6.49718675 28.4045593,7.89714897 26.6961655,7.89714897 C24.9874527,7.89714897 23.5976486,6.4975079 23.5976486,4.77670082 C23.5973298,3.05589382 24.9874527,1.65625267 26.6961655,1.65625267 Z M24.5597961,9.03953615 C25.2023972,9.36744662 25.9279145,9.55340163 26.6958466,9.55340163 C27.4640976,9.55340163 28.1896149,9.36744662 28.831897,9.03953615 C30.1097641,9.26371001 31.0483124,10.3726959 31.0483124,11.7036075 L31.0483124,15.4663875 C31.0483124,15.658766 30.8930039,15.8151738 30.7019775,15.8151738 L22.6897156,15.8151738 C22.4990082,15.8151738 22.3436997,15.658766 22.3436997,15.4663875 L22.3436997,11.7036075 C22.3433808,10.3730171 23.282248,9.26371001 24.5597961,9.03953615 Z M16.3466217,1.65625267 C18.0550156,1.65625267 19.4451386,3.05589382 19.4451386,4.77670082 C19.4451386,6.49718675 18.0550156,7.89714897 16.3466217,7.89714897 C14.6379089,7.89714897 13.2481049,6.4975079 13.2481049,4.77670082 C13.2481049,3.05589382 14.6379089,1.65625267 16.3466217,1.65625267 Z M14.2105713,9.03953615 C14.8528534,9.36744662 15.5783706,9.55340163 16.3466217,9.55340163 C17.1148728,9.55340163 17.8400712,9.36744662 18.4826721,9.03953615 C19.7602204,9.26371001 20.6990876,10.3726959 20.6990876,11.7036075 L20.6990876,15.4663875 C20.6990876,15.658766 20.543779,15.8151738 20.3527527,15.8151738 L12.3404907,15.8151738 C12.1494644,15.8151738 11.9941559,15.658766 11.9941559,15.4663875 L11.9941559,11.7036075 C11.9941559,10.3730171 12.9330231,9.26371001 14.2105713,9.03953615 Z M5.997078,1.65625267 C7.70547184,1.65625267 9.09559477,3.05589382 9.09559477,4.77670082 C9.09559477,6.49718675 7.70547184,7.89714897 5.997078,7.89714897 C4.28868408,7.89714897 2.89856108,6.49718675 2.89856108,4.77670082 C2.89856108,3.05589382 4.28868408,1.65625267 5.997078,1.65625267 Z M1.64461218,11.7036075 C1.64461218,10.3730171 2.58347937,9.26371001 3.86102755,9.03953615 C4.50362858,9.36744662 5.2288269,9.55340163 5.997078,9.55340163 C6.76532902,9.55340163 7.49052734,9.36744662 8.13312838,9.03953615 C9.41099552,9.26371001 10.3495438,10.3726959 10.3495438,11.7036075 L10.3495438,15.4663875 C10.3495438,15.658766 10.1942353,15.8151738 10.0032089,15.8151738 L1.99094698,15.8151738 C1.79992065,15.8151738 1.64461218,15.658766 1.64461218,15.4663875 L1.64461218,11.7036075 Z" id="Shape"></path>
                </g>
            </g>
        </g>
    </g>
</svg>