<?xml version="1.0" encoding="UTF-8"?>
<svg width="52px" height="52px" viewBox="0 0 52 52" version="1.1" xmlns="http://www.w3.org/2000/svg" xmlns:xlink="http://www.w3.org/1999/xlink">
    <!-- Generator: Sketch 43.1 (39012) - http://www.bohemiancoding.com/sketch -->
    <title>тех-поддержка</title>
    <desc>Created with Sketch.</desc>
    <defs></defs>
    <g id="Design" stroke="none" stroke-width="1" fill="none" fill-rule="evenodd">
        <g id="Домашняя-страница" transform="translate(-801.000000, -1428.000000)">
            <g id="тех-поддержка" transform="translate(802.000000, 1429.000000)">
                <circle id="Oval-Copy-11" stroke="#509FAE" stroke-width="2" cx="25" cy="25" r="25"></circle>
                <g id="006-support" transform="translate(10.000000, 8.000000)" fill-rule="nonzero" fill="#509FAE">
                    <path d="M22.9130435,26.5462996 C22.5410435,26.5462996 22.2391304,26.8466213 22.2391304,27.2166607 C22.2391304,27.5867 22.5410435,27.8870218 22.9130435,27.8870218 C23.2850435,27.8870218 23.5869565,27.5867 23.5869565,27.2166607 C23.5869565,26.8466213 23.2850435,26.5462996 22.9130435,26.5462996 Z" id="Shape"></path>
                    <path d="M24.5723522,24.3785529 L21.3692435,23.3167009 L20.2193457,21.0289596 C21.2552848,19.9801126 21.9745522,18.592331 22.2170935,17.1448203 L22.3605022,16.2897747 L23.5869565,16.2897747 C24.7017435,16.2897747 25.6086957,15.3876028 25.6086957,14.2786914 L25.6086957,10.0554165 C25.6086957,4.51085984 21.0739348,0 15.5,0 C9.91177826,0 5.39130435,4.49792187 5.39130435,10.0554165 L5.39130435,14.2786914 C5.39130435,15.1525742 5.95476304,15.8977476 6.73913043,16.1744726 L6.73913043,16.9601358 C6.73913043,18.0690472 7.64608261,18.9712191 8.76086957,18.9712191 L9.3527,18.9712191 C9.6448413,19.6024982 10.0229739,20.1871871 10.4831217,20.712415 C10.5785478,20.8215498 10.6780848,20.9273328 10.7800478,21.0302332 L9.63075652,23.3167009 L6.42758043,24.3786199 C2.7032,25.6139613 0,29.5140552 0,33.6521272 C0,34.0223677 0.30171087,34.3224883 0.673913043,34.3224883 L30.326087,34.3224883 C30.6982217,34.3224883 31,34.0223677 31,33.6521272 C31,29.5140552 28.2968674,25.6139613 24.5723522,24.3785529 Z M24.2608696,14.2786914 C24.2608696,14.6483285 23.9585522,14.9490525 23.5869565,14.9490525 L22.5584304,14.9490525 C22.7297391,13.6291115 22.8439,12.2245039 22.8897935,10.8410797 C22.8911413,10.8020647 22.8922196,10.7641223 22.8934326,10.7257776 L24.2608696,10.7257776 L24.2608696,14.2786914 Z M7.41304348,14.9490525 C7.04144783,14.9490525 6.73913043,14.6483285 6.73913043,14.2786914 L6.73913043,10.7257776 L8.10703913,10.7257776 C8.10926304,10.7956963 8.11162174,10.8659501 8.11425,10.9366732 C8.11431739,10.9390865 8.11445217,10.9414328 8.11451957,10.9438461 L8.11451957,10.9444494 C8.16169348,12.2899982 8.27437174,13.6581382 8.44177174,14.9489855 L7.41304348,14.9489855 L7.41304348,14.9490525 Z M8.76086957,17.6304969 C8.38927391,17.6304969 8.08695652,17.3297729 8.08695652,16.9601358 L8.08695652,16.2897747 L8.63943043,16.2897747 L8.78283913,17.1450885 C8.8102,17.307651 8.84382826,17.4696103 8.88271304,17.6304969 L8.76086957,17.6304969 Z M8.08810217,9.3850554 L6.76473913,9.3850554 C7.10607609,4.89222827 10.8754065,1.3407222 15.5,1.3407222 C20.1040391,1.3407222 23.8899478,4.89175902 24.2351935,9.3850554 L22.9119652,9.3850554 C22.8634435,5.68285215 19.8326543,2.6814444 16.1032196,2.6814444 L14.8969152,2.6814444 C11.1675478,2.6814444 8.13655652,5.68285215 8.08810217,9.3850554 Z M14.8968478,4.0221666 L16.1031522,4.0221666 C19.1228891,4.0221666 21.5669696,6.47910707 21.5652174,9.47957631 C21.5652174,9.69053895 21.5635326,9.87421789 21.5599609,10.0413389 C21.5599609,10.0434841 21.5598935,10.0456963 21.5598935,10.0479085 L20.716963,9.92811493 C18.4270065,9.60285572 16.2648239,8.52746244 14.6286978,6.89995977 C14.5022717,6.77426706 14.3308957,6.703611 14.1521739,6.703611 C12.342313,6.703611 10.6098174,7.52386484 9.46456957,8.90963531 C9.74680435,6.17999194 12.0666152,4.0221666 14.8968478,4.0221666 Z M10.2798696,17.6304969 C9.9425087,16.5141446 9.5564913,13.2293752 9.47117391,11.1244413 L10.3781935,9.92141131 C11.2112174,8.81692437 12.5072196,8.13067571 13.8858435,8.05190828 C15.6998152,9.76910527 18.0465152,10.9030881 20.5263804,11.2552958 L21.5185152,11.3963398 C21.4522022,12.796389 21.3166783,14.2013318 21.1225239,15.4934528 C21.1224565,15.493855 21.1223891,15.4943242 21.1223217,15.4947935 C21.0605913,15.9102163 21.0119348,16.1775563 20.8876652,16.9242715 C20.5307609,19.0536735 18.9334522,20.9792858 16.8248457,21.5037093 C15.9570478,21.7192304 15.0428174,21.7191633 14.1754913,21.5037093 C12.8588674,21.1763049 11.6516196,20.2701108 10.8725087,18.9712191 L12.2463478,18.9712191 C12.5245391,19.7514524 13.2735935,20.3119413 14.1521739,20.3119413 L15.5,20.3119413 C16.6170109,20.3119413 17.5217391,19.4120486 17.5217391,18.300858 C17.5217391,17.1919467 16.614787,16.2897747 15.5,16.2897747 L14.1521739,16.2897747 C13.25405,16.2897747 12.5160478,16.8668216 12.2452022,17.6304969 L10.2798696,17.6304969 Z M14.0954978,22.8603861 C14.5577348,22.9572533 15.0290022,23.0067929 15.5,23.0067929 C15.8686978,23.0067929 16.237463,22.9760904 16.60205,22.9165623 L15.4112457,24.1692661 L14.0954978,22.8603861 Z M14.48475,25.1438371 L12.3472326,27.3923623 C11.7587717,26.2719208 11.2531348,25.1058276 10.8384087,23.9120486 L11.6411065,22.3151144 L14.48475,25.1438371 Z M19.2446652,22.087996 L20.1614565,23.9119815 C19.7460565,25.1077717 19.2402848,26.274267 18.6524304,27.3933678 L16.3646304,25.117626 L19.2446652,22.087996 Z M13.4782609,18.300858 C13.4782609,17.9307517 13.7800391,17.6304969 14.1521739,17.6304969 L15.5,17.6304969 C15.8715957,17.6304969 16.173913,17.9312209 16.173913,18.300858 C16.173913,18.6710314 15.8720674,18.9712191 15.5,18.9712191 L14.1521739,18.9712191 C13.7805783,18.9712191 13.4782609,18.6704951 13.4782609,18.300858 Z M1.37478261,32.9817661 C1.64185435,29.6608643 3.86367826,26.6423623 6.85383043,25.650496 L9.6906,24.7101135 C10.2103217,26.1396585 10.8541783,27.529116 11.6087587,28.8489229 C11.6100391,28.8512021 11.6112522,28.8534814 11.6125326,28.8556935 C11.6125326,28.8557606 11.6126,28.8557606 11.6126,28.8558276 C12.1639283,29.8204102 12.7844674,30.7630049 13.4572348,31.65787 L14.2862826,32.9817661 L1.37478261,32.9817661 Z M15.5,32.3842062 L14.5860391,30.924629 C14.5757957,30.9082722 14.5648783,30.8923846 14.553287,30.8769663 C14.0075522,30.1528423 13.4984783,29.3955353 13.0348261,28.6203968 L15.4382022,26.0921969 L17.9706326,28.6112799 C17.5038804,29.3920495 16.9930543,30.1525071 16.4468478,30.8768323 C16.4138261,30.9206068 16.460663,30.8516267 15.5,32.3842062 Z M16.7137174,32.9817661 L17.5426978,31.657937 C18.2184304,30.7596531 18.8434174,29.8094833 19.4002717,28.8335716 C19.4036413,28.8276725 19.4068087,28.8216392 19.4101783,28.81574 C19.4105826,28.8150026 19.410987,28.8143323 19.4113913,28.8135949 C20.1564022,27.5063907 20.7935196,26.1289998 21.3094,24.7101135 L24.1461022,25.650496 C27.1363217,26.6423623 29.3581457,29.6608643 29.6252174,32.9817661 L16.7137174,32.9817661 Z" id="Shape"></path>
                    <path d="M27.5998391,30.2688818 C27.149463,29.3721397 26.4897696,28.5754826 25.6920587,27.9650518 C25.3970196,27.7392071 24.973937,27.7941097 24.7470304,28.0875938 C24.5200565,28.3810779 24.57525,28.8019306 24.8702217,29.0277082 C25.5073391,29.5152618 26.0342043,30.1516356 26.3940065,30.8680505 C26.5606652,31.1998122 26.965687,31.3333482 27.2980609,31.1681712 C27.6309739,31.0027261 27.7660935,30.6001072 27.5998391,30.2688818 Z" id="Shape"></path>
                </g>
            </g>
        </g>
    </g>
</svg>