<?xml version="1.0" encoding="UTF-8"?>
<svg width="52px" height="52px" viewBox="0 0 52 52" version="1.1" xmlns="http://www.w3.org/2000/svg" xmlns:xlink="http://www.w3.org/1999/xlink">
    <!-- Generator: Sketch 43.1 (39012) - http://www.bohemiancoding.com/sketch -->
    <title>точность</title>
    <desc>Created with Sketch.</desc>
    <defs></defs>
    <g id="Design" stroke="none" stroke-width="1" fill="none" fill-rule="evenodd">
        <g id="Домашняя-страница" transform="translate(-1023.000000, -1428.000000)">
            <g id="точность" transform="translate(1024.000000, 1429.000000)">
                <circle id="Oval-Copy-15" stroke="#509FAE" stroke-width="2" cx="25" cy="25" r="25"></circle>
                <g id="007-compass" transform="translate(14.000000, 8.000000)" fill-rule="nonzero" fill="#509FAE">
                    <path d="M10.5990783,0.890495552 C10.5990783,0.420084119 10.991886,0.0379267694 11.4735023,0.0379267694 C11.9551186,0.0379267694 12.3479263,0.420084119 12.3479263,0.890495552 L12.3479263,3.51647401 C12.0610059,3.47650985 11.7706698,3.4482019 11.4735023,3.4482019 C11.1763348,3.4482019 10.8859987,3.47650985 10.5990783,3.51647401 L10.5990783,0.890495552 Z M11.4735023,5.15333946 C13.8841458,5.15333946 15.8456221,7.06579106 15.8456221,9.41618337 C15.8456221,11.7665757 13.8841458,13.6790273 11.4735023,13.6790273 C9.06285884,13.6790273 7.10138249,11.7665757 7.10138249,9.41618337 C7.10138249,7.06579106 9.06285884,5.15333946 11.4735023,5.15333946 Z M19.1639927,34.9932468 L14.3555149,14.6781313 C14.7876032,14.4525003 15.1846806,14.1735838 15.5476007,13.8572008 L22.5156667,34.9932468 L19.1639927,34.9932468 Z M11.4735023,15.3841648 C11.8932088,15.3841648 12.3035219,15.3425355 12.6993183,15.2630235 L14.3427059,22.2047151 L8.60472561,22.2047151 L10.2476863,15.2630235 C10.6434827,15.3425355 11.0537959,15.3841648 11.4735023,15.3841648 Z M3.78301186,34.9932468 L0.431337926,34.9932468 L7.39940388,13.8572008 C7.76147005,14.1735838 8.15940138,14.4525003 8.59148968,14.6781313 L3.78301186,34.9932468 Z M8.20039,23.9098527 L14.7466146,23.9098527 L15.1505234,25.6149902 L7.79733521,25.6149902 L8.20039,23.9098527 Z" id="Shape"></path>
                    <path d="M11.4735023,11.9738897 C12.9196322,11.9738897 14.0967742,10.826169 14.0967742,9.41618337 C14.0967742,8.00619777 12.9196322,6.85847703 11.4735023,6.85847703 C10.0273724,6.85847703 8.85023041,8.00619777 8.85023041,9.41618337 C8.85023041,10.826169 10.0273724,11.9738897 11.4735023,11.9738897 Z M11.4735023,8.56361459 C11.9551186,8.56361459 12.3479263,8.94577194 12.3479263,9.41618337 C12.3479263,9.88701118 11.9551186,10.2687522 11.4735023,10.2687522 C10.991886,10.2687522 10.5990783,9.88701118 10.5990783,9.41618337 C10.5990783,8.94577194 10.991886,8.56361459 11.4735023,8.56361459 Z" id="Shape"></path>
                </g>
            </g>
        </g>
    </g>
</svg>