<?xml version="1.0" encoding="UTF-8"?>
<svg width="52px" height="52px" viewBox="0 0 52 52" version="1.1" xmlns="http://www.w3.org/2000/svg" xmlns:xlink="http://www.w3.org/1999/xlink">
    <!-- Generator: Sketch 43.1 (39012) - http://www.bohemiancoding.com/sketch -->
    <title>ангары</title>
    <desc>Created with Sketch.</desc>
    <defs></defs>
    <g id="Design" stroke="none" stroke-width="1" fill="none" fill-rule="evenodd">
        <g id="О-нас" transform="translate(-944.000000, -3253.000000)">
            <g id="ангары" transform="translate(945.000000, 3254.000000)">
                <ellipse id="Oval-Copy-4" stroke="#509FAE" stroke-width="2" cx="25" cy="25" rx="25" ry="25"></ellipse>
                <g transform="translate(6.000000, 8.000000)" id="Shape" fill-rule="nonzero" fill="#509FAE">
                    <path d="M38,24.0666914 C38,10.7963789 29.4765703,0 19,0 C8.52342969,0 3.00926165e-14,10.7963789 3.00926165e-14,24.0666914 C0.000890625,24.1580547 0.0218945313,24.2481562 0.061453125,24.3305391 C0.0224882813,24.4498828 0.00178125,24.5744219 3.00926165e-14,24.7 L3.00926165e-14,27.8666914 C-7.421875e-05,28.2164102 0.283292969,28.4999258 0.633011719,28.5 L0.633308594,28.5 L37.3666172,28.5 C37.7163359,28.5000742 37.9998516,28.216707 37.9999258,27.8669883 L37.9999258,27.8666914 L37.9999258,24.7 C37.9981445,24.5744219 37.9774375,24.4498828 37.9384727,24.3305391 C37.9781055,24.2481562 37.9991094,24.1580547 38,24.0666914 Z M19,1.26669141 C28.6131836,1.26669141 36.4649336,11.1529258 36.7265547,23.4333828 L35.4543711,23.4333828 C35.1966094,11.8523633 27.9176055,2.53330859 19,2.53330859 C10.0823945,2.53330859 2.80339062,11.8523633 2.54562891,23.4333086 L1.27344531,23.4333086 C1.53506641,11.1529258 9.38681641,1.26669141 19,1.26669141 Z M22.8002969,12.6666914 L22.8,12.6666914 L15.2,12.6666914 C14.8502813,12.6666172 14.5667656,12.9499844 14.5666914,13.2997031 L14.5666914,13.3 L14.5666914,23.4333086 L3.81202344,23.4333086 C4.06444141,12.5507617 10.7781211,3.8 19,3.8 C27.2218789,3.8 33.9355586,12.5507617 34.1879766,23.4333086 L23.4333086,23.4333086 L23.4333086,13.3 C23.433457,12.9502813 23.1500156,12.6667656 22.8002969,12.6666914 Z M22.1666914,13.9333086 L22.1666914,23.4333086 L19.6333828,23.4333086 L19.6333828,13.9333086 L22.1666914,13.9333086 Z M18.3666914,13.9333086 L18.3666914,23.4333086 L15.8333828,23.4333086 L15.8333828,13.9333086 L18.3666914,13.9333086 Z M36.7333086,27.2333086 L1.26669141,27.2333086 L1.26669141,24.7 L36.7333828,24.7 L36.7333828,27.2333086 L36.7333086,27.2333086 Z"></path>
                    <path d="M9.18330859,17.1 C7.95907031,17.1 6.96661719,18.0924531 6.96661719,19.3166914 C6.96661719,20.5409297 7.95907031,21.5333828 9.18330859,21.5333828 C10.4075469,21.5333828 11.4,20.5409297 11.4,19.3166914 C11.3985156,18.0930469 10.4069531,17.1014844 9.18330859,17.1 Z M9.18330859,20.2666914 C8.65865625,20.2666914 8.23330859,19.8413438 8.23330859,19.3166914 C8.23330859,18.7920391 8.65865625,18.3666914 9.18330859,18.3666914 C9.70796094,18.3666914 10.1333086,18.7920391 10.1333086,19.3166914 C10.1327891,19.8411211 9.70773828,20.2660977 9.18330859,20.2666914 Z"></path>
                    <path d="M28.8166914,17.1 C27.5924531,17.1 26.6,18.0924531 26.6,19.3166914 C26.6,20.5409297 27.5924531,21.5333828 28.8166914,21.5333828 C30.0409297,21.5333828 31.0333828,20.5409297 31.0333828,19.3166914 C31.0318242,18.0930469 30.0402617,17.1014844 28.8166914,17.1 Z M28.8166914,20.2666914 C28.2920391,20.2666914 27.8666914,19.8413438 27.8666914,19.3166914 C27.8666914,18.7920391 28.2920391,18.3666914 28.8166914,18.3666914 C29.3413437,18.3666914 29.7666914,18.7920391 29.7666914,19.3166914 C29.7660977,19.8411211 29.3411211,20.2660977 28.8166914,20.2666914 Z"></path>
                    <path d="M22.8002969,7.6 L22.8,7.6 L15.2,7.6 C14.8502812,7.59992578 14.5667656,7.88329297 14.5666914,8.23301172 L14.5666914,8.23330859 L14.5666914,10.7666172 C14.5666172,11.1163359 14.8499844,11.3998516 15.1997031,11.3999258 L15.2,11.3999258 L22.8,11.3999258 C23.1497187,11.4 23.4332344,11.1166328 23.4333086,10.7669141 L23.4333086,10.7666172 L23.4333086,8.23330859 C23.433457,7.88366406 23.1500156,7.60007422 22.8002969,7.6 Z M22.1666914,10.1333086 L15.8333828,10.1333086 L15.8333828,8.86661719 L22.1666914,8.86661719 L22.1666914,10.1333086 Z"></path>
                    <path d="M10.1333086,11.4 C9.78351563,11.4 9.5,11.6835156 9.5,12.0333086 L9.5,15.2 C9.49992578,15.5497188 9.78329297,15.8332344 10.1330117,15.8333086 L10.1333086,15.8333086 C10.4830273,15.8333828 10.766543,15.5500156 10.7666172,15.2002969 L10.7666172,15.2 L10.7666172,12.0333086 C10.7666914,11.6835898 10.4831016,11.4 10.1333086,11.4 Z"></path>
                    <path d="M12.6669883,11.4 L12.6666914,11.4 C12.3169727,11.3999258 12.033457,11.683293 12.0333828,12.0330117 L12.0333828,12.0333086 L12.0333828,15.2 C12.0333828,15.549793 12.3168984,15.8333086 12.6666914,15.8333086 C13.0164844,15.8333086 13.3,15.5497188 13.3,15.2 L13.3,12.0333086 C13.3000742,11.6836641 13.016707,11.4000742 12.6669883,11.4 Z"></path>
                    <path d="M25.3336797,11.4 L25.3333828,11.4 C24.9836641,11.3999258 24.7001484,11.683293 24.7000742,12.0330117 L24.7000742,12.0333086 L24.7000742,15.2 C24.7000742,15.549793 24.9836641,15.8333086 25.3333828,15.8333086 C25.6831016,15.8333086 25.9666914,15.5497188 25.9666914,15.2 L25.9666914,12.0333086 C25.9667656,11.6836641 25.6833242,11.4000742 25.3336797,11.4 Z"></path>
                    <path d="M27.8666914,11.4 C27.5168984,11.4 27.2333828,11.6835156 27.2333828,12.0333086 L27.2333828,15.2 C27.2333086,15.5497188 27.5166758,15.8332344 27.8663945,15.8333086 L27.8666914,15.8333086 C28.2164102,15.8333828 28.4999258,15.5500156 28.5,15.2002969 L28.5,15.2 L28.5,12.0333086 C28.5,11.6835898 28.2164844,11.4 27.8666914,11.4 Z"></path>
                </g>
            </g>
        </g>
    </g>
</svg>