<?xml version="1.0" encoding="UTF-8"?>
<svg width="52px" height="52px" viewBox="0 0 52 52" version="1.1" xmlns="http://www.w3.org/2000/svg" xmlns:xlink="http://www.w3.org/1999/xlink">
    <!-- Generator: Sketch 43.1 (39012) - http://www.bohemiancoding.com/sketch -->
    <title>Group 2</title>
    <desc>Created with Sketch.</desc>
    <defs></defs>
    <g id="Design" stroke="none" stroke-width="1" fill="none" fill-rule="evenodd">
        <g id="О-нас" transform="translate(-958.000000, -3223.000000)">
            <g id="Group-2" transform="translate(959.000000, 3224.000000)">
                <ellipse id="Oval-Copy-6" stroke="#509FAE" stroke-width="2" cx="25" cy="25" rx="25" ry="25"></ellipse>
                <g id="011-clock" transform="translate(6.000000, 7.000000)" fill-rule="nonzero" fill="#509FAE">
                    <path d="M37.9261523,19.7065632 C37.5849688,16.3273472 36.051832,13.1415822 33.6089961,10.7360522 C31.5213711,8.68044414 28.966168,7.35946727 26.2775195,6.77209846 L26.2775195,4.91520329 C27.3756602,4.64618443 28.191918,3.66738259 28.191918,2.50397286 C28.191918,1.13381107 27.0599336,0.0191477698 25.6684805,0.0191477698 L20.3247305,0.0191477698 C18.9332773,0.0191477698 17.801293,1.13381107 17.801293,2.50397286 C17.801293,3.66730951 18.6175508,4.64611135 19.7156172,4.91520329 L19.7156172,6.77728736 C17.035207,7.36714099 14.4884648,8.68629078 12.4067773,10.7361253 C11.9512227,11.1847093 11.5311445,11.6552914 11.1466172,12.1443634 C11.1279883,12.1429748 11.1093594,12.1415862 11.0903594,12.1415862 L5.80145703,12.1415862 C5.39162109,12.1415862 5.05926953,12.4687792 5.05926953,12.8724172 C5.05926953,13.2760551 5.39162109,13.6032481 5.80145703,13.6032481 L10.1367227,13.6032481 C9.59255078,14.500343 9.15376953,15.4424571 8.81978516,16.4122698 L0.7421875,16.4122698 C0.332351563,16.4122698 0,16.7394627 0,17.1431007 C0,17.5467386 0.332351563,17.8739316 0.7421875,17.8739316 L8.400375,17.8739316 C8.18647656,18.7985058 8.06371875,19.7394506 8.03202734,20.6830263 L4.75,20.6830263 C4.34016406,20.6830263 4.0078125,21.0102193 4.0078125,21.4138573 C4.0078125,21.8174952 4.34016406,22.1446882 4.75,22.1446882 L8.05570313,22.1446882 C8.11834375,23.0906757 8.27279297,24.0316936 8.519125,24.9537829 L3.7109375,24.9537829 C3.30110156,24.9537829 2.96875,25.2809759 2.96875,25.6846138 C2.96875,26.0882518 3.30110156,26.4154448 3.7109375,26.4154448 L8.99278906,26.4154448 C9.720875,28.312024 10.8587227,30.0896241 12.4067773,31.6139912 C14.8519883,34.0217867 18.0905977,35.5318295 21.5258867,35.8660385 C22.0161758,35.9136887 22.5068359,35.9372945 22.9968281,35.9372945 C25.8929922,35.9372945 28.7523438,35.1119672 31.1785547,33.5561743 C31.5220391,33.3359019 31.6191914,32.8831521 31.3954961,32.5449236 C31.1718008,32.2066951 30.7120156,32.1110293 30.3685313,32.3313017 C25.0576602,35.7367545 17.9450547,35.0004424 13.4563789,30.5804501 C8.18966797,25.3943278 8.18966797,16.9559349 13.4563789,11.7697395 C18.7230156,6.58369025 27.2925352,6.58369025 32.5593203,11.7697395 C37.0420586,16.1839582 37.7938945,23.1817372 34.3469531,28.4087861 C34.1237031,28.7473069 34.2214492,29.1999836 34.5651563,29.4197445 C34.9090859,29.6395784 35.3686484,29.543328 35.5918242,29.2048071 C37.4334883,26.4119368 38.2625117,23.0387867 37.9261523,19.7065632 Z M19.285668,2.50404595 C19.285668,1.93984449 19.7517617,1.48088267 20.3247305,1.48088267 L25.6684805,1.48088267 C26.2414492,1.48088267 26.707543,1.93984449 26.707543,2.50404595 C26.707543,3.06824741 26.2414492,3.52720922 25.6684805,3.52720922 L25.535332,3.52720922 L20.4578047,3.52720922 L20.3247305,3.52720922 C19.7517617,3.52720922 19.285668,3.06817433 19.285668,2.50404595 Z M21.1999922,6.5260277 L21.1999922,4.98887104 L24.7931445,4.98887104 L24.7931445,6.5233967 C23.6000039,6.38366183 22.3929102,6.38453883 21.1999922,6.5260277 Z" id="XMLID_389_"></path>
                    <path d="M33.0844922,30.3660243 C32.8885547,30.3660243 32.6978125,30.4442232 32.5598398,30.5801578 C32.4210508,30.7160923 32.3423047,30.9046467 32.3423047,31.0968552 C32.3423047,31.2890638 32.4210508,31.4776181 32.5598398,31.6135527 C32.6978125,31.7502181 32.8886289,31.8276861 33.0844922,31.8276861 C33.2796875,31.8276861 33.4704297,31.7502181 33.6092188,31.6135527 C33.7472656,31.4776181 33.8266797,31.2890638 33.8266797,31.0968552 C33.8266797,30.9046467 33.7473398,30.7160923 33.6092188,30.5801578 C33.4704297,30.4442232 33.2796133,30.3660243 33.0844922,30.3660243 Z" id="XMLID_391_"></path>
                    <path d="M23.0078867,9.8376418 C16.6593633,9.8376418 11.4944062,14.9234941 11.4944062,21.1749486 C11.4944062,27.4264032 16.6593633,32.5122555 23.0078867,32.5122555 C29.3564102,32.5122555 34.5213672,27.4264032 34.5213672,21.1749486 C34.5213672,14.9234941 29.3564102,9.8376418 23.0078867,9.8376418 Z M23.0078867,31.0505936 C17.4777734,31.0505936 12.9787812,26.6203697 12.9787812,21.1749486 C12.9787812,15.7295275 17.4777734,11.2993036 23.0078867,11.2993036 C28.538,11.2993036 33.0369922,15.7295275 33.0369922,21.1749486 C33.0369922,26.6203697 28.538,31.0505936 23.0078867,31.0505936 Z" id="XMLID_394_"></path>
                    <path d="M27.702668,15.5184635 L24.0266133,19.138196 C23.7191992,18.9885218 23.3734141,18.9039647 23.0078867,18.9039647 C22.6422852,18.9039647 22.2965742,18.9885218 21.9891602,19.138196 L20.3439531,17.5181631 C20.0540547,17.2327736 19.58425,17.2327736 19.2942773,17.5181631 C19.0044531,17.8035526 19.0044531,18.2663147 19.2942773,18.5517042 L20.9394844,20.171737 C20.7874102,20.4744472 20.7016133,20.8149413 20.7016133,21.1748755 C20.7016133,22.4270812 21.7361484,23.4458595 23.0078867,23.4458595 C24.279625,23.4458595 25.3141602,22.4270812 25.3141602,21.1748755 C25.3141602,20.8149413 25.2282891,20.4744472 25.0762891,20.171737 L28.6444297,16.6581944 L28.6444297,16.6581944 L28.7522695,16.5520046 C29.0420937,16.2666152 29.0420937,15.803853 28.7522695,15.5184635 C28.4624453,15.2330741 27.9926406,15.2330741 27.702668,15.5184635 Z M23.0078867,21.9842708 C22.554707,21.9842708 22.1859883,21.621194 22.1859883,21.1749486 C22.1859883,20.7287033 22.554707,20.3656265 23.0078867,20.3656265 C23.4610664,20.3656265 23.8297852,20.7287033 23.8297852,21.1749486 C23.8297852,21.621194 23.4610664,21.9842708 23.0078867,21.9842708 Z" id="XMLID_397_"></path>
                    <path d="M30.9432813,20.4530339 L30.2556445,20.4530339 C29.8458086,20.4530339 29.513457,20.7802269 29.513457,21.1838648 C29.513457,21.5875027 29.8458086,21.9146957 30.2556445,21.9146957 L30.9432813,21.9146957 C31.3531172,21.9146957 31.6854688,21.5875027 31.6854688,21.1838648 C31.6854688,20.7802269 31.3531172,20.4530339 30.9432813,20.4530339 Z" id="XMLID_398_"></path>
                    <path d="M15.7600547,20.4352016 L15.0724922,20.4352016 C14.6626563,20.4352016 14.3303047,20.7623946 14.3303047,21.1660325 C14.3303047,21.5696704 14.6626563,21.8968634 15.0724922,21.8968634 L15.7600547,21.8968634 C16.1698906,21.8968634 16.5022422,21.5696704 16.5022422,21.1660325 C16.5022422,20.7623946 16.1698906,20.4352016 15.7600547,20.4352016 Z" id="XMLID_399_"></path>
                    <path d="M23.0169414,14.7688503 C23.4267773,14.7688503 23.7591289,14.4416573 23.7591289,14.0380194 L23.7591289,13.3609776 C23.7591289,12.9573397 23.4267773,12.6301467 23.0169414,12.6301467 C22.6071055,12.6301467 22.2747539,12.9573397 22.2747539,13.3609776 L22.2747539,14.0380194 C22.2747539,14.4416573 22.6071055,14.7688503 23.0169414,14.7688503 Z" id="XMLID_400_"></path>
                    <path d="M22.998832,27.581047 C22.5889961,27.581047 22.2566445,27.90824 22.2566445,28.3118779 L22.2566445,28.9889196 C22.2566445,29.3925575 22.5889961,29.7197505 22.998832,29.7197505 C23.408668,29.7197505 23.7410195,29.3925575 23.7410195,28.9889196 L23.7410195,28.3118779 C23.7410195,27.90824 23.408668,27.581047 22.998832,27.581047 Z" id="XMLID_424_"></path>
                    <path d="M0.7421875,24.9534906 C0.546992188,24.9534906 0.355507813,25.0316895 0.217460938,25.1676241 C0.0794140625,25.3035586 0,25.492113 0,25.6843215 C0,25.8772609 0.0793398437,26.0650844 0.217460938,26.201019 C0.355582031,26.3369535 0.546992188,26.4151524 0.7421875,26.4151524 C0.937382812,26.4151524 1.12886719,26.3369535 1.26683984,26.201019 C1.40488672,26.0650844 1.484375,25.87653 1.484375,25.6843215 C1.484375,25.492113 1.40496094,25.3035586 1.26683984,25.1676241 C1.12886719,25.0316895 0.937382813,24.9534906 0.7421875,24.9534906 Z" id="XMLID_425_"></path>
                </g>
            </g>
        </g>
    </g>
</svg>