<?xml version="1.0" encoding="UTF-8"?>
<svg width="52px" height="52px" viewBox="0 0 52 52" version="1.1" xmlns="http://www.w3.org/2000/svg" xmlns:xlink="http://www.w3.org/1999/xlink">
    <!-- Generator: Sketch 43.1 (39012) - http://www.bohemiancoding.com/sketch -->
    <title>долговечность</title>
    <desc>Created with Sketch.</desc>
    <defs></defs>
    <g id="Design" stroke="none" stroke-width="1" fill="none" fill-rule="evenodd">
        <g id="О-нас" transform="translate(-432.000000, -3223.000000)">
            <g id="долговечность" transform="translate(433.000000, 3224.000000)">
                <ellipse id="Oval-Copy-8" stroke="#509FAE" stroke-width="2" cx="25" cy="25" rx="25" ry="25"></ellipse>
                <g id="012-appointment" transform="translate(10.000000, 10.000000)" fill-rule="nonzero" fill="#509FAE">
                    <path d="M27.9726563,2.62329832 L25.0865684,2.62329832 L25.0865684,1.78861249 C25.0865684,0.802371563 24.2717285,0 23.2701621,0 C22.2685957,0 21.4537559,0.802371563 21.4537559,1.78861249 L21.4537559,2.62329832 L11.2818809,2.62329832 L11.2818809,1.78861249 C11.2818809,0.802371563 10.467041,0 9.46547461,0 C8.4639082,0 7.64906836,0.802371563 7.64906836,1.78861249 L7.64906836,2.64535787 C7.59760352,2.63134708 7.54365625,2.62329832 7.48765039,2.62329832 L5.0752207,2.62329832 C3.40594336,2.62329832 2.04787695,3.96058426 2.04787695,5.60431914 L2.04787695,15.7596435 C2.04787695,16.0889271 2.31900586,16.3558477 2.6533457,16.3558477 C2.98768555,16.3558477 3.25881445,16.0889271 3.25881445,15.7596435 L3.25881445,8.76420121 L25.0865684,8.76420121 C25.4209082,8.76420121 25.6920371,8.4972806 25.6920371,8.16799704 C25.6920371,7.83871348 25.4209082,7.57179288 25.0865684,7.57179288 L3.25881445,7.57179288 L3.25881445,5.60431914 C3.25881445,4.61807821 4.0736543,3.81570665 5.0752207,3.81570665 L7.48765039,3.81570665 C7.54365625,3.81570665 7.59760352,3.80759827 7.64906836,3.79364709 L7.64906836,4.56096185 C7.64906836,5.54720278 8.4639082,6.34957434 9.46547461,6.34957434 C10.467041,6.34957434 11.2818809,5.54720278 11.2818809,4.56096185 L11.2818809,3.81570665 L21.4537559,3.81570665 L21.4537559,4.56096185 C21.4537559,5.54720278 22.2685957,6.34957434 23.2701621,6.34957434 C24.2717285,6.34957434 25.0865684,5.54720278 25.0865684,4.56096185 L25.0865684,3.81570665 L27.9726563,3.81570665 C28.9742227,3.81570665 29.7890625,4.61807821 29.7890625,5.60431914 L29.7890625,28.2597196 C29.7890625,28.8516311 29.3000254,29.3332449 28.6988555,29.3332449 C28.0976855,29.3332449 27.6086484,28.8516311 27.6086484,28.2597196 L27.6086484,26.7173991 C27.6086484,26.3881155 27.3375195,26.1211949 27.0031797,26.1211949 L19.9603066,26.1211949 C19.6259668,26.1211949 19.3548379,26.3881155 19.3548379,26.7173991 C19.3548379,27.0466826 19.6259668,27.3136032 19.9603066,27.3136032 L26.3977109,27.3136032 L26.3977109,28.2597196 C26.3977109,28.6479082 26.4974922,29.0135006 26.6728965,29.3332449 L2.30078125,29.3332449 C1.69985352,29.3332449 1.2109375,28.85181 1.2109375,28.2600774 L1.2109375,27.3136032 L14.7628418,27.3136032 C15.0971816,27.3136032 15.3683105,27.0466826 15.3683105,26.7173991 C15.3683105,26.3881155 15.0971816,26.1211949 14.7628418,26.1211949 L8.71324023,26.1211949 C9.77123633,25.2239673 10.4430645,23.8968168 10.4430645,22.4172766 C10.4430645,19.7215394 8.21584766,17.5284024 5.4782207,17.5284024 C2.74059375,17.5284024 0.513376953,19.7215394 0.513376953,22.4172766 C0.513376953,23.8968168 1.18520508,25.2239673 2.24320117,26.1211949 L0.60546875,26.1211949 C0.271128906,26.1211949 0,26.3881155 0,26.7173991 L0,28.2600774 C0,29.5093039 1.03214258,30.5256532 2.30078125,30.5256532 L28.6988555,30.5256532 C29.9676758,30.5256532 31,29.5091847 31,28.2597196 L31,5.60431914 C31,3.96058426 29.6419336,2.62329832 27.9726563,2.62329832 Z M10.0709434,4.56096185 C10.0709434,4.88970883 9.79933008,5.15716602 9.46547461,5.15716602 C9.13161914,5.15716602 8.86000586,4.88970883 8.86000586,4.56096185 L8.86000586,1.78861249 C8.86000586,1.45986552 9.13161914,1.19240833 9.46547461,1.19240833 C9.79933008,1.19240833 10.0709434,1.45986552 10.0709434,1.78861249 L10.0709434,4.56096185 Z M23.8756309,4.56096185 C23.8756309,4.88970883 23.6040176,5.15716602 23.2701621,5.15716602 C22.9363066,5.15716602 22.6646934,4.88970883 22.6646934,4.56096185 L22.6646934,1.78861249 C22.6646934,1.45986552 22.9363066,1.19240833 23.2701621,1.19240833 C23.6040176,1.19240833 23.8756309,1.45986552 23.8756309,1.78861249 L23.8756309,4.56096185 Z M1.72431445,22.4172766 C1.72431445,20.3790334 3.40830469,18.7208107 5.4782207,18.7208107 C7.54813672,18.7208107 9.23212695,20.3790334 9.23212695,22.4172766 C9.23212695,24.4555197 7.54813672,26.1137424 5.4782207,26.1137424 C3.40830469,26.1137424 1.72431445,24.4555197 1.72431445,22.4172766 Z" id="Shape"></path>
                    <path d="M28.3546465,7.7464807 C28.2420898,7.63558672 28.0858789,7.57179288 27.9266406,7.57179288 C27.7673418,7.57179288 27.6111914,7.63558672 27.4985742,7.7464807 C27.385957,7.85737467 27.3211719,8.01119535 27.3211719,8.16799704 C27.3211719,8.32479874 27.3858965,8.47861941 27.4985742,8.58951339 C27.611252,8.70040736 27.7673418,8.76420121 27.9266406,8.76420121 C28.0858789,8.76420121 28.2420898,8.70040736 28.3546465,8.58951339 C28.4672637,8.47861941 28.5321094,8.32479874 28.5321094,8.16799704 C28.5321094,8.01119535 28.4673242,7.85737467 28.3546465,7.7464807 Z" id="Shape"></path>
                    <path d="M18.0822637,26.2955846 C17.969707,26.1846907 17.8134961,26.121493 17.6542578,26.121493 C17.4950195,26.121493 17.3388086,26.1846907 17.2261914,26.2955846 C17.1135742,26.4070748 17.0487891,26.5602993 17.0487891,26.717101 C17.0487891,26.8744989 17.1135137,27.0277233 17.2261914,27.1392135 C17.3388086,27.2501075 17.4950195,27.3133051 17.6542578,27.3133051 C17.8134961,27.3133051 17.969707,27.2501075 18.0822637,27.1392135 C18.1948809,27.0277233 18.2597266,26.8739027 18.2597266,26.717101 C18.2597266,26.5602993 18.1949414,26.4070748 18.0822637,26.2955846 Z" id="Shape"></path>
                    <path d="M13.6984277,18.1246066 C12.4297891,18.1246066 11.3976465,19.1409558 11.3976465,20.3901824 C11.3976465,21.639409 12.4297891,22.6557582 13.6984277,22.6557582 C14.9670664,22.6557582 15.999209,21.639409 15.999209,20.3901824 C15.999209,19.1409558 14.9670664,18.1246066 13.6984277,18.1246066 Z M13.6984277,21.4633499 C13.0975,21.4633499 12.608584,20.981915 12.608584,20.3901824 C12.608584,19.7984498 13.0975,19.3170149 13.6984277,19.3170149 C14.2993555,19.3170149 14.7882715,19.7984498 14.7882715,20.3901824 C14.7882715,20.981915 14.2993555,21.4633499 13.6984277,21.4633499 Z" id="Shape"></path>
                    <path d="M19.3494492,18.1246066 C18.0808105,18.1246066 17.048668,19.1409558 17.048668,20.3901824 C17.048668,21.639409 18.0808105,22.6557582 19.3494492,22.6557582 C20.6180879,22.6557582 21.6502305,21.639409 21.6502305,20.3901824 C21.6502305,19.1409558 20.6180879,18.1246066 19.3494492,18.1246066 Z M19.3494492,21.4633499 C18.7485215,21.4633499 18.2596055,20.981915 18.2596055,20.3901824 C18.2596055,19.7984498 18.7485215,19.3170149 19.3494492,19.3170149 C19.950377,19.3170149 20.439293,19.7984498 20.439293,20.3901824 C20.439293,20.981915 19.950377,21.4633499 19.3494492,21.4633499 Z" id="Shape"></path>
                    <path d="M25.0005313,18.1246066 C23.7318926,18.1246066 22.69975,19.1409558 22.69975,20.3901824 C22.69975,21.639409 23.7318926,22.6557582 25.0005313,22.6557582 C26.2691699,22.6557582 27.3013125,21.639409 27.3013125,20.3901824 C27.3013125,19.1409558 26.2691699,18.1246066 25.0005313,18.1246066 Z M25.0005313,21.4633499 C24.3996035,21.4633499 23.9106875,20.981915 23.9106875,20.3901824 C23.9106875,19.7984498 24.3996035,19.3170149 25.0005313,19.3170149 C25.601459,19.3170149 26.090375,19.7984498 26.090375,20.3901824 C26.090375,20.981915 25.601459,21.4633499 25.0005313,21.4633499 Z" id="Shape"></path>
                    <path d="M8.04740625,11.9240833 C6.77876758,11.9240833 5.746625,12.9404325 5.746625,14.1896591 C5.746625,15.4388857 6.77876758,16.4552349 8.04740625,16.4552349 C9.31604492,16.4552349 10.3481875,15.4388857 10.3481875,14.1896591 C10.3481875,12.9404325 9.31604492,11.9240833 8.04740625,11.9240833 Z M8.04740625,15.2628266 C7.44647852,15.2628266 6.9575625,14.7813917 6.9575625,14.1896591 C6.9575625,13.5979265 7.44647852,13.1164916 8.04740625,13.1164916 C8.64833398,13.1164916 9.13725,13.5979265 9.13725,14.1896591 C9.13725,14.7813917 8.64833398,15.2628266 8.04740625,15.2628266 Z" id="Shape"></path>
                    <path d="M19.3494492,11.9240833 C18.0808105,11.9240833 17.048668,12.9404325 17.048668,14.1896591 C17.048668,15.4388857 18.0808105,16.4552349 19.3494492,16.4552349 C20.6180879,16.4552349 21.6502305,15.4388857 21.6502305,14.1896591 C21.6502305,12.9404325 20.6180879,11.9240833 19.3494492,11.9240833 Z M19.3494492,15.2628266 C18.7485215,15.2628266 18.2596055,14.7813917 18.2596055,14.1896591 C18.2596055,13.5979265 18.7485215,13.1164916 19.3494492,13.1164916 C19.950377,13.1164916 20.439293,13.5979265 20.439293,14.1896591 C20.439293,14.7813917 19.950377,15.2628266 19.3494492,15.2628266 Z" id="Shape"></path>
                    <path d="M25.0005313,11.9240833 C23.7318926,11.9240833 22.69975,12.9404325 22.69975,14.1896591 C22.69975,15.4388857 23.7318926,16.4552349 25.0005313,16.4552349 C26.2691699,16.4552349 27.3013125,15.4388857 27.3013125,14.1896591 C27.3013125,12.9404325 26.2691699,11.9240833 25.0005313,11.9240833 Z M25.0005313,15.2628266 C24.3996035,15.2628266 23.9106875,14.7813917 23.9106875,14.1896591 C23.9106875,13.5979265 24.3996035,13.1164916 25.0005313,13.1164916 C25.601459,13.1164916 26.090375,13.5979265 26.090375,14.1896591 C26.090375,14.7813917 25.601459,15.2628266 25.0005313,15.2628266 Z" id="Shape"></path>
                    <path d="M13.6984277,11.9240833 C12.4297891,11.9240833 11.3976465,12.9404325 11.3976465,14.1896591 C11.3976465,15.4388857 12.4297891,16.4552349 13.6984277,16.4552349 C14.9670664,16.4552349 15.999209,15.4388857 15.999209,14.1896591 C15.999209,12.9404325 14.9670664,11.9240833 13.6984277,11.9240833 Z M13.6984277,15.2628266 C13.0975,15.2628266 12.608584,14.7813917 12.608584,14.1896591 C12.608584,13.5979265 13.0975,13.1164916 13.6984277,13.1164916 C14.2993555,13.1164916 14.7882715,13.5979265 14.7882715,14.1896591 C14.7882715,14.7813917 14.2993555,15.2628266 13.6984277,15.2628266 Z" id="Shape"></path>
                    <path d="M7.63520313,20.9642674 C7.39870703,20.7314497 7.01544531,20.7314497 6.77888867,20.9642674 L4.80711914,22.9059255 L4.13329297,22.2424099 C3.89679688,22.0095921 3.51353516,22.0095921 3.27697852,22.2424099 C3.04054297,22.4752276 3.04054297,22.8527441 3.27697852,23.0856214 L4.37899219,24.1706534 C4.49257813,24.2824417 4.64654883,24.3452816 4.80711914,24.3452816 C4.96768945,24.3452816 5.12166016,24.2824417 5.23524609,24.1706534 L7.63520313,21.8074193 C7.87163867,21.5746016 7.87163867,21.1970851 7.63520313,20.9642674 Z" id="Shape"></path>
                </g>
            </g>
        </g>
    </g>
</svg>