<?xml version="1.0" encoding="UTF-8"?>
<svg width="52px" height="52px" viewBox="0 0 52 52" version="1.1" xmlns="http://www.w3.org/2000/svg" xmlns:xlink="http://www.w3.org/1999/xlink">
    <!-- Generator: Sketch 43.1 (39012) - http://www.bohemiancoding.com/sketch -->
    <title>Животноводческие-комплексы</title>
    <desc>Created with Sketch.</desc>
    <defs></defs>
    <g id="Design" stroke="none" stroke-width="1" fill="none" fill-rule="evenodd">
        <g id="О-нас" transform="translate(-1118.000000, -3252.000000)">
            <g id="Животноводческие-комплексы" transform="translate(1119.000000, 3253.000000)">
                <ellipse id="Oval-Copy-4" stroke="#509FAE" stroke-width="2" cx="25" cy="25" rx="25" ry="25"></ellipse>
                <g transform="translate(10.000000, 8.000000)" id="Shape" fill-rule="nonzero" fill="#509FAE">
                    <path d="M15.4630664,26.4523242 C15.3381582,26.1476523 14.9760273,25.9981016 14.6723242,26.1247656 C14.3676523,26.2518535 14.2182227,26.6098672 14.3447656,26.9155078 C14.4707031,27.2196348 14.8315625,27.3695488 15.1355078,27.2424609 C15.4394531,27.115373 15.5902148,26.7576016 15.4630664,26.4523242 L15.4630664,26.4523242 Z"></path>
                    <path d="M30.3945312,29.7890625 L28.4550937,29.7890625 L28.4550937,20.6765156 L29.8239375,20.6765156 C30.1582773,20.6765156 30.4294062,20.4054473 30.4294062,20.0710469 L30.4294062,7.09397461 C30.4294062,6.75957422 30.1582773,6.48850586 29.8239375,6.48850586 L22.8447598,6.48880859 C22.3938066,2.83668164 19.2720703,0 15.4999395,0 C11.7278086,0 8.60607227,2.83668164 8.15511914,6.48880859 L1.1760625,6.48850586 C0.841722656,6.48850586 0.57059375,6.75957422 0.57059375,7.09397461 L0.57059375,10.8722812 C0.57059375,11.2066816 0.841722656,11.47775 1.1760625,11.47775 C1.51040234,11.47775 1.78153125,11.2066816 1.78153125,10.8722812 L1.78153125,7.69944336 L5.0471875,7.69944336 L5.0471875,19.4655781 L1.78153125,19.4655781 L1.78153125,16.2255332 C1.78153125,15.8911328 1.51040234,15.6200645 1.1760625,15.6200645 C0.841722656,15.6200645 0.57059375,15.8911328 0.57059375,16.2255332 L0.57059375,20.0710469 C0.57059375,20.4054473 0.841722656,20.6765156 1.1760625,20.6765156 L2.54490625,20.6765156 L2.54490625,29.7890625 L0.60546875,29.7890625 C0.271128906,29.7890625 0,30.0601309 0,30.3945312 C0,30.7289316 0.271128906,31 0.60546875,31 L30.3945313,31 C30.7288711,31 31,30.7289316 31,30.3945312 C31,30.0601309 30.7288711,29.7890625 30.3945312,29.7890625 Z M29.2184688,19.4655781 L25.9528125,19.4655781 L25.9528125,7.69944336 L29.2185293,7.69944336 L29.2185293,19.4655781 L29.2184688,19.4655781 Z M18.2817656,22.3672266 L12.9901504,22.3672266 C12.6558105,22.3672266 12.3846816,22.6382949 12.3846816,22.9726953 L12.3846816,29.7890625 L6.8636543,29.7890625 L6.8636543,20.6767578 L24.1362852,20.6767578 L24.1362852,29.7890625 L18.8872344,29.7890625 L18.8872344,22.9726953 C18.8872344,22.6382949 18.616166,22.3672266 18.2817656,22.3672266 Z M22.90125,7.69974609 L24.7417539,7.69974609 L24.7417539,19.4655781 C24.739998,19.4655781 24.7382422,19.4658203 24.7364863,19.4658203 L22.90125,19.4658203 L22.90125,7.69974609 Z M15.4999395,1.2109375 C18.8249922,1.2109375 21.5457266,3.84630078 21.6841367,7.13793164 C21.687709,7.21785352 21.6895254,7.29892578 21.6898281,7.37975586 C21.6898281,7.38690039 21.6900703,7.39392383 21.6900703,7.40106836 L21.6900703,19.4655176 L9.30980859,19.4655176 L9.30980859,7.40106836 C9.30980859,7.39755664 9.30992969,7.39410547 9.30992969,7.39059375 C9.31011133,7.3034668 9.31210937,7.21585547 9.31610547,7.12981836 C9.45857227,3.84194141 12.1776113,1.2109375 15.4999395,1.2109375 L15.4999395,1.2109375 Z M6.258125,7.69974609 L8.09868945,7.69974609 L8.09868945,19.4658203 L6.26345312,19.4658203 C6.26169727,19.4658203 6.25994141,19.4655781 6.25818555,19.4655781 L6.258125,19.4655781 L6.258125,7.69974609 Z M3.75584375,29.7890625 L3.75584375,20.6765156 L5.64738867,20.6765156 C5.64914453,20.6765156 5.65090039,20.6767578 5.65265625,20.6767578 L5.6527168,20.6767578 L5.6527168,29.7890625 L3.75584375,29.7890625 Z M13.5956191,29.7890625 L13.5956191,23.5781641 L17.6762969,23.5781641 L17.6762969,29.7890625 L13.5956191,29.7890625 Z M25.3472832,29.7890625 L25.3472832,20.6767578 L25.3473437,20.6767578 C25.3490996,20.6767578 25.3508555,20.6765156 25.3526113,20.6765156 L27.2441562,20.6765156 L27.2441562,29.7890625 L25.3472832,29.7890625 Z"></path>
                    <path d="M15.4999395,12.26825 C18.1767773,12.26825 20.3545879,10.0904395 20.3545879,7.41360156 C20.3545879,4.73676367 18.1767773,2.55895313 15.4999395,2.55895313 C12.8231016,2.55895313 10.645291,4.73676367 10.645291,7.41360156 C10.645291,10.0904395 12.8231016,12.26825 15.4999395,12.26825 L15.4999395,12.26825 Z M15.4999395,3.76989063 C17.509127,3.76989063 19.1436504,5.40447461 19.1436504,7.41360156 C19.1436504,9.42272852 17.509127,11.0573125 15.4999395,11.0573125 C13.490752,11.0573125 11.8562285,9.42272852 11.8562285,7.41360156 C11.8562285,5.40447461 13.490752,3.76989063 15.4999395,3.76989063 L15.4999395,3.76989063 Z"></path>
                    <path d="M13.1562305,6.51121094 C13.2830156,6.81527734 13.6421797,6.96519141 13.9469727,6.83876953 C14.2518867,6.71228711 14.4004687,6.35294141 14.2745312,6.04802734 C14.1485937,5.74305273 13.788582,5.59428906 13.4837891,5.72046875 C13.1781484,5.84701172 13.0312012,6.20599414 13.1562305,6.51121094 Z"></path>
                    <path d="M16.7254687,6.51121094 C16.8525566,6.81594336 17.2103281,6.9642832 17.5156055,6.83816406 C17.8202773,6.71222656 17.9696465,6.35275977 17.8431641,6.04802734 C17.7166816,5.74329492 17.3575781,5.59416797 17.0523613,5.72046875 C16.7465996,5.84707227 16.6005605,6.20617578 16.7254687,6.51121094 L16.7254687,6.51121094 Z"></path>
                    <path d="M14.9411523,5.52248047 C15.062125,5.82963477 15.4301289,5.97440234 15.7312891,5.85003906 C16.0363848,5.72404102 16.1850273,5.36415039 16.0588477,5.05929688 C15.932668,4.75444336 15.5728984,4.60555859 15.2681055,4.73173828 C14.9634941,4.85785742 14.8144277,5.21841406 14.9411523,5.52248047 Z"></path>
                    <path d="M13.1922559,8.60134961 C13.1922559,8.95863672 13.3656621,9.29606445 13.6562266,9.50392188 L13.6777813,9.51936133 C14.2184043,9.90613477 14.8491816,10.0992188 15.4797168,10.0992188 C16.1237539,10.0992188 16.7676094,9.89771875 17.3145293,9.49538477 C17.597707,9.28710352 17.7667539,8.95288477 17.7667539,8.60134961 C17.7667539,8.24981445 17.5976465,7.91565625 17.3144082,7.707375 L16.4452578,7.06830273 C15.8827168,6.65476758 15.1233984,6.64974219 14.5555293,7.05583008 L13.6565293,7.69877734 C13.3658438,7.90663477 13.1923164,8.2440625 13.1922559,8.60134961 L13.1922559,8.60134961 Z M15.2599316,8.04086719 C15.4004609,7.94035938 15.5886406,7.94157031 15.7278984,8.04395508 L16.4818887,8.59832227 C15.869457,8.98333984 15.0929434,8.98442969 14.4790586,8.59935156 L15.2599316,8.04086719 Z"></path>
                    <path d="M18.8339531,13.9611406 L12.3514414,13.9611406 C12.0171016,13.9611406 11.7459727,14.232209 11.7459727,14.5666094 C11.7459727,14.9010098 12.0171016,15.1720781 12.3514414,15.1720781 L18.8339531,15.1720781 C19.168293,15.1720781 19.4394219,14.9010098 19.4394219,14.5666094 C19.4394219,14.232209 19.1683535,13.9611406 18.8339531,13.9611406 Z"></path>
                    <path d="M17.5050098,16.4178906 L13.6803242,16.4178906 C13.3459844,16.4178906 13.0748555,16.688959 13.0748555,17.0233594 C13.0748555,17.3577598 13.3459844,17.6288281 13.6803242,17.6288281 L17.5050098,17.6288281 C17.8393496,17.6288281 18.1104785,17.3577598 18.1104785,17.0233594 C18.1104785,16.688959 17.8394102,16.4178906 17.5050098,16.4178906 Z"></path>
                    <path d="M0.839785156,14.085625 C1.30750977,14.3976836 1.92744922,13.9271133 1.7505918,13.3928477 C1.66958008,13.1480566 1.43435547,12.9773145 1.17612305,12.9773145 C0.923037109,12.9773145 0.691505859,13.1406699 0.606255859,13.3787402 C0.51440625,13.635459 0.610251953,13.9355898 0.839785156,14.085625 L0.839785156,14.085625 Z"></path>
                </g>
            </g>
        </g>
    </g>
</svg>