<?xml version="1.0" encoding="UTF-8"?>
<svg width="52px" height="52px" viewBox="0 0 52 52" version="1.1" xmlns="http://www.w3.org/2000/svg" xmlns:xlink="http://www.w3.org/1999/xlink">
    <!-- Generator: Sketch 43.1 (39012) - http://www.bohemiancoding.com/sketch -->
    <title>Жилые-помещения</title>
    <desc>Created with Sketch.</desc>
    <defs></defs>
    <g id="Design" stroke="none" stroke-width="1" fill="none" fill-rule="evenodd">
        <g id="О-нас" transform="translate(-811.000000, -3253.000000)">
            <g id="Жилые-помещения" transform="translate(812.000000, 3254.000000)">
                <ellipse id="Oval-Copy-4" stroke="#509FAE" stroke-width="2" cx="25" cy="25" rx="25" ry="25"></ellipse>
                <g transform="translate(9.000000, 9.000000)" fill-rule="nonzero" fill="#509FAE">
                    <path d="M20.2666667,20.3205333 L20.2666667,15.4666667 C20.2666667,14.5845333 19.5488,13.8666667 18.6666667,13.8666667 L3.73333333,13.8666667 C2.8512,13.8666667 2.13333333,14.5845333 2.13333333,15.4666667 L2.13333333,20.3205333 C0.917866667,20.5685333 0,21.6458667 0,22.9333333 L0,26.1333333 L0,31.4666667 C0,31.7610667 0.238933333,32 0.533333333,32 L2.66666667,32 C2.96106667,32 3.2,31.7610667 3.2,31.4666667 L3.2,29.8666667 L19.2,29.8666667 L19.2,31.4666667 C19.2,31.7610667 19.4389333,32 19.7333333,32 L21.8666667,32 C22.1610667,32 22.4,31.7610667 22.4,31.4666667 L22.4,26.1333333 L22.4,22.9333333 C22.4,21.6458667 21.4821333,20.5685333 20.2666667,20.3205333 Z M3.2,15.4666667 C3.2,15.1728 3.43946667,14.9333333 3.73333333,14.9333333 L18.6666667,14.9333333 C18.9605333,14.9333333 19.2,15.1728 19.2,15.4666667 L19.2,20.2666667 L18.1333333,20.2666667 L18.1333333,18.1333333 C18.1333333,17.2512 17.4154667,16.5333333 16.5333333,16.5333333 L13.3333333,16.5333333 C12.4512,16.5333333 11.7333333,17.2512 11.7333333,18.1333333 L11.7333333,20.2666667 L10.6666667,20.2666667 L10.6666667,18.1333333 C10.6666667,17.2512 9.9488,16.5333333 9.06666667,16.5333333 L5.86666667,16.5333333 C4.98453333,16.5333333 4.26666667,17.2512 4.26666667,18.1333333 L4.26666667,20.2666667 L3.2,20.2666667 L3.2,15.4666667 Z M17.0666667,18.1333333 L17.0666667,20.2666667 L12.8,20.2666667 L12.8,18.1333333 C12.8,17.8394667 13.0394667,17.6 13.3333333,17.6 L16.5333333,17.6 C16.8272,17.6 17.0666667,17.8394667 17.0666667,18.1333333 Z M9.6,18.1333333 L9.6,20.2666667 L5.33333333,20.2666667 L5.33333333,18.1333333 C5.33333333,17.8394667 5.5728,17.6 5.86666667,17.6 L9.06666667,17.6 C9.36053333,17.6 9.6,17.8394667 9.6,18.1333333 Z M21.3333333,30.9333333 L20.2666667,30.9333333 L20.2666667,29.3333333 C20.2666667,29.0389333 20.0277333,28.8 19.7333333,28.8 L2.66666667,28.8 C2.37226667,28.8 2.13333333,29.0389333 2.13333333,29.3333333 L2.13333333,30.9333333 L1.06666667,30.9333333 L1.06666667,26.6666667 L21.3333333,26.6666667 L21.3333333,30.9333333 Z M21.3333333,25.6 L1.06666667,25.6 L1.06666667,22.9333333 C1.06666667,22.0512 1.78453333,21.3333333 2.66666667,21.3333333 L4.8,21.3333333 L10.1333333,21.3333333 L12.2666667,21.3333333 L17.6,21.3333333 L19.7333333,21.3333333 C20.6154667,21.3333333 21.3333333,22.0512 21.3333333,22.9333333 L21.3333333,25.6 Z" id="Shape"></path>
                    <path d="M31.4666667,20.2666667 L24,20.2666667 C23.7056,20.2666667 23.4666667,20.5056 23.4666667,20.8 L23.4666667,25.0666667 L23.4666667,28.8 L24.5333333,28.8 L24.5333333,25.6 L30.9333333,25.6 L30.9333333,28.8 L32,28.8 L32,25.0666667 L32,20.8 C32,20.5056 31.7610667,20.2666667 31.4666667,20.2666667 Z M30.9333333,24.5333333 L24.5333333,24.5333333 L24.5333333,21.3333333 L30.9333333,21.3333333 L30.9333333,24.5333333 Z" id="Shape"></path>
                    <rect id="Rectangle-path" x="26.6666667" y="22.4" width="2.13333333" height="1.06666667"></rect>
                    <path d="M30.3728,15.8309333 L29.3061333,12.6309333 C29.2330667,12.4133333 29.0298667,12.2666667 28.8,12.2666667 L26.6666667,12.2666667 C26.4368,12.2666667 26.2336,12.4133333 26.1605333,12.6314667 L25.0938667,15.8314667 C25.0394667,15.9941333 25.0672,16.1728 25.1674667,16.312 C25.2677333,16.4512 25.4288,16.5333333 25.6,16.5333333 L27.2,16.5333333 L27.2,18.1333333 L26.1333333,18.1333333 L26.1333333,19.2 L29.3333333,19.2 L29.3333333,18.1333333 L28.2666667,18.1333333 L28.2666667,16.5333333 L29.8666667,16.5333333 C30.0378667,16.5333333 30.1989333,16.4512 30.2992,16.3114667 C30.3994667,16.1722667 30.4266667,15.9936 30.3728,15.8309333 Z M26.3397333,15.4666667 L27.0512,13.3333333 L28.416,13.3333333 L29.1269333,15.4666667 L26.3397333,15.4666667 Z" id="Shape"></path>
                    <path d="M31.6848,6.97973333 L16.2181333,0.0464 C16.0789333,-0.0154666667 15.9205333,-0.0154666667 15.7818667,0.0464 L0.3152,6.97973333 C0.1232,7.06613333 0,7.25653333 0,7.46666667 L0,13.8666667 L1.06666667,13.8666667 L1.06666667,7.81173333 L16,1.11786667 L30.9333333,7.81226667 L30.9333333,13.8666667 L32,13.8666667 L32,7.46666667 C32,7.25653333 31.8768,7.06613333 31.6848,6.97973333 Z" id="Shape"></path>
                    <path d="M19.6816,7.37813333 L18.6293333,7.5552 C18.6544,7.7008 18.6666667,7.85013333 18.6666667,8 C18.6666667,9.4704 17.4704,10.6666667 16,10.6666667 C14.5296,10.6666667 13.3333333,9.4704 13.3333333,8 C13.3333333,6.5296 14.5296,5.33333333 16,5.33333333 C16.3050667,5.33333333 16.6048,5.38453333 16.8896,5.48533333 L17.2448,4.47946667 C16.8453333,4.33813333 16.4266667,4.26666667 16,4.26666667 C13.9413333,4.26666667 12.2666667,5.94133333 12.2666667,8 C12.2666667,10.0586667 13.9413333,11.7333333 16,11.7333333 C18.0586667,11.7333333 19.7333333,10.0586667 19.7333333,8 C19.7333333,7.79093333 19.7157333,7.58186667 19.6816,7.37813333 Z" id="Shape"></path>
                    <path d="M19.3562667,4.42293333 L16,7.7792 L15.3104,7.0896 L14.5562667,7.84373333 L15.6229333,8.9104 C15.7269333,9.0144 15.8634667,9.06666667 16,9.06666667 C16.1365333,9.06666667 16.2730667,9.0144 16.3770667,8.9104 L20.1104,5.17706667 L19.3562667,4.42293333 Z" id="Shape"></path>
                </g>
            </g>
        </g>
    </g>
</svg>