<?xml version="1.0" encoding="UTF-8"?>
<svg width="52px" height="52px" viewBox="0 0 52 52" version="1.1" xmlns="http://www.w3.org/2000/svg" xmlns:xlink="http://www.w3.org/1999/xlink">
    <!-- Generator: Sketch 43.1 (39012) - http://www.bohemiancoding.com/sketch -->
    <title>караксные-дома</title>
    <desc>Created with Sketch.</desc>
    <defs></defs>
    <g id="Design" stroke="none" stroke-width="1" fill="none" fill-rule="evenodd">
        <g id="О-нас" transform="translate(-507.000000, -3252.000000)">
            <g id="караксные-дома" transform="translate(508.000000, 3253.000000)">
                <g id="каркасные-дома" transform="translate(9.000000, 7.000000)" fill-rule="nonzero" fill="#509FAE">
                    <path d="M12.1182573,13.1345306 L5.54564315,13.1345306 C5.2431681,13.1345306 4.99792531,13.3797734 4.99792531,13.6822484 L4.99792531,20.2548626 C4.99792531,20.5573376 5.2431681,20.8025804 5.54564315,20.8025804 L12.1182573,20.8025804 C12.4207323,20.8025804 12.6659751,20.5573376 12.6659751,20.2548626 L12.6659751,13.6822484 C12.6659751,13.3797734 12.4207323,13.1345306 12.1182573,13.1345306 Z M11.5705394,16.4208377 L9.37966805,16.4208377 L9.37966805,14.2299663 L11.5705394,14.2299663 L11.5705394,16.4208377 Z M8.28423237,14.2299663 L8.28423237,16.4208377 L6.093361,16.4208377 L6.093361,14.2299663 L8.28423237,14.2299663 Z M6.093361,17.5162733 L8.28423237,17.5162733 L8.28423237,19.7071447 L6.093361,19.7071447 L6.093361,17.5162733 Z M9.37966805,19.7071447 L9.37966805,17.5162733 L11.5705394,17.5162733 L11.5705394,19.7071447 L9.37966805,19.7071447 Z" id="Shape"></path>
                    <path d="M32.87671,20.5578725 L30.6858386,16.1761297 C30.5927694,15.9894564 30.4015495,15.8720501 30.1929461,15.8731198 L28.5497925,15.8731198 L28.5497925,10.3959414 L29.0975104,10.3959414 C29.2662653,10.3959414 29.4253922,10.3181162 29.5294266,10.1851984 C29.6331934,10.0522806 29.6698327,9.87871171 29.6289144,9.71503829 L28.5334787,5.33329555 C28.4722349,5.08965737 28.2532012,4.91876297 28.0020747,4.91876297 L17.0477178,4.91876297 C16.7965913,4.91876297 16.5775577,5.08965737 16.5163138,5.33329555 L15.6658535,8.7359391 L9.27001754,0.208336052 C9.16223906,0.0772902448 9.00150736,0.00160464212 8.83195021,0.00160464212 C8.66239306,0.00160464212 8.50166135,0.0772902448 8.39388288,0.208336052 L0.178115241,11.1626929 C0.0534880705,11.3287733 0.033430027,11.5507489 0.126231846,11.7363524 C0.219033666,11.921956 0.408648859,12.0390949 0.616182573,12.0390949 L2.2593361,12.0390949 L2.2593361,32.3046551 C2.2593361,32.6071301 2.50457889,32.8523729 2.80705394,32.8523729 L31.2883817,32.8523729 C31.5908568,32.8523729 31.8360996,32.6071301 31.8360996,32.3046551 L31.8360996,21.3502982 L32.3838174,21.3502982 C32.574235,21.351368 32.7512805,21.2534849 32.8518381,21.0919508 C32.9523957,20.9301494 32.961756,20.7279645 32.87671,20.5578725 L32.87671,20.5578725 Z M31.4975201,20.2548626 L15.4045643,20.2548626 L15.4045643,16.9685555 L29.8543666,16.9685555 L31.4975201,20.2548626 Z M19.2385892,31.7569372 L17.0477178,31.7569372 L17.0477178,26.2797588 L19.2385892,26.2797588 L19.2385892,31.7569372 Z M19.7863071,25.1843231 L16.5,25.1843231 C16.1975249,25.1843231 15.9522822,25.4295659 15.9522822,25.732041 L15.9522822,31.7569372 L15.4045643,31.7569372 L15.4045643,21.3502982 L20.8817427,21.3502982 L20.8817427,31.7569372 L20.3340249,31.7569372 L20.3340249,25.732041 C20.3340249,25.4295659 20.0887821,25.1843231 19.7863071,25.1843231 Z M17.475355,6.01419865 L27.5744375,6.01419865 L28.3960143,9.30050571 L16.6537782,9.30050571 L17.475355,6.01419865 Z M27.4543568,10.3959414 L27.4543568,15.8731198 L15.4045643,15.8731198 L15.4045643,12.0390949 L17.0477178,12.0390949 C17.2552516,12.0390949 17.4448667,11.921956 17.5376686,11.7363524 C17.6304704,11.5507489 17.6104123,11.3287733 17.4857852,11.1626929 L16.9107884,10.3959414 L27.4543568,10.3959414 Z M8.83195021,1.45006163 L15.9522822,10.9436592 L15.1344496,10.9436592 L9.27402909,2.95200665 C9.16625061,2.8182864 9.00364688,2.74072873 8.83195021,2.74072873 C8.66025354,2.74072873 8.4976498,2.8182864 8.38987132,2.95200665 L2.52945082,10.9436592 L1.71161826,10.9436592 L8.83195021,1.45006163 Z M13.77612,10.9436592 L3.88778039,10.9436592 L8.83195021,4.2017554 L13.77612,10.9436592 Z M10.4751037,31.7569372 L7.18879668,31.7569372 L7.18879668,24.0888874 L10.4751037,24.0888874 L10.4751037,31.7569372 Z M11.5705394,31.7569372 L11.5705394,23.5411696 C11.5705394,23.2386945 11.3252966,22.9934518 11.0228216,22.9934518 L6.64107884,22.9934518 C6.33860378,22.9934518 6.093361,23.2386945 6.093361,23.5411696 L6.093361,31.7569372 L3.35477178,31.7569372 L3.35477178,12.0390949 L14.3091286,12.0390949 L14.3091286,31.7569372 L11.5705394,31.7569372 Z M30.7406639,31.7569372 L21.9771784,31.7569372 L21.9771784,21.3502982 L30.7406639,21.3502982 L30.7406639,31.7569372 Z" id="Shape"></path>
                    <path d="M19.2385892,14.7776841 L21.4294606,14.7776841 C21.7319356,14.7776841 21.9771784,14.5324413 21.9771784,14.2299663 L21.9771784,12.0390949 C21.9771784,11.7366199 21.7319356,11.4913771 21.4294606,11.4913771 L19.2385892,11.4913771 C18.9361142,11.4913771 18.6908714,11.7366199 18.6908714,12.0390949 L18.6908714,14.2299663 C18.6908714,14.5324413 18.9361142,14.7776841 19.2385892,14.7776841 Z M19.7863071,12.5868128 L20.8817427,12.5868128 L20.8817427,13.6822484 L19.7863071,13.6822484 L19.7863071,12.5868128 Z" id="Shape"></path>
                    <path d="M23.620332,14.7776841 L25.8112033,14.7776841 C26.1136784,14.7776841 26.3589212,14.5324413 26.3589212,14.2299663 L26.3589212,12.0390949 C26.3589212,11.7366199 26.1136784,11.4913771 25.8112033,11.4913771 L23.620332,11.4913771 C23.3178569,11.4913771 23.0726141,11.7366199 23.0726141,12.0390949 L23.0726141,14.2299663 C23.0726141,14.5324413 23.3178569,14.7776841 23.620332,14.7776841 Z M24.1680498,12.5868128 L25.2634855,12.5868128 L25.2634855,13.6822484 L24.1680498,13.6822484 L24.1680498,12.5868128 Z" id="Shape"></path>
                    <polygon id="Shape" points="23.0726141 22.4457339 29.6452282 22.4457339 29.6452282 23.5411696 23.0726141 23.5411696"></polygon>
                    <polygon id="Shape" points="23.0726141 24.6366053 29.6452282 24.6366053 29.6452282 25.732041 23.0726141 25.732041"></polygon>
                    <polygon id="Shape" points="23.0726141 27.3751945 29.6452282 27.3751945 29.6452282 28.4706302 23.0726141 28.4706302"></polygon>
                    <polygon id="Shape" points="23.0726141 29.5660659 29.6452282 29.5660659 29.6452282 30.6615016 23.0726141 30.6615016"></polygon>
                </g>
                <g id="каркасные-дома" stroke-width="2" stroke="#509FAE">
                    <ellipse id="Oval-Copy-4" cx="25" cy="25" rx="25" ry="25"></ellipse>
                </g>
            </g>
        </g>
    </g>
</svg>