<?xml version="1.0" encoding="UTF-8"?>
<svg width="52px" height="52px" viewBox="0 0 52 52" version="1.1" xmlns="http://www.w3.org/2000/svg" xmlns:xlink="http://www.w3.org/1999/xlink">
    <!-- Generator: Sketch 43.1 (39012) - http://www.bohemiancoding.com/sketch -->
    <title>мансарды</title>
    <desc>Created with Sketch.</desc>
    <defs></defs>
    <g id="Design" stroke="none" stroke-width="1" fill="none" fill-rule="evenodd">
        <g id="О-нас" transform="translate(-669.000000, -3252.000000)">
            <g id="мансарды" transform="translate(670.000000, 3253.000000)">
                <ellipse id="Oval-Copy-4" stroke="#509FAE" stroke-width="2" cx="25" cy="25" rx="25" ry="25"></ellipse>
                <g transform="translate(9.000000, 7.000000)" id="Shape" fill-rule="nonzero" fill="#509FAE">
                    <path d="M32.831655,19.9889298 L18.5595731,0.227526316 C18.4564561,0.0845906433 18.2908772,-6.4327485e-05 18.1146199,4.19369967e-13 L14.8210526,4.19369967e-13 C14.6447953,-6.4327485e-05 14.4792164,0.0845906433 14.3760994,0.227526316 L0.104017544,19.9889298 C0.0364093567,20.082462 7.576822e-14,20.1949708 7.576822e-14,20.3103099 L7.576822e-14,32.3867018 C-6.43274853e-05,32.5322749 0.0577660819,32.6719298 0.160754386,32.7749181 C0.263678363,32.8778421 0.403333333,32.9356725 0.54897076,32.9356725 L32.3867661,32.9356725 C32.5323392,32.9357368 32.6719942,32.8779064 32.7749825,32.7749181 C32.8779064,32.6719942 32.9357368,32.5323392 32.9357368,32.3867018 L32.9357368,20.3103099 C32.9356725,20.1949708 32.8992632,20.082462 32.831655,19.9889298 Z M1.09787719,23.0549708 L2.19575439,23.0549708 L2.19575439,29.6421053 L1.09787719,29.6421053 L1.09787719,23.0549708 Z M31.8377953,31.8377953 L1.09787719,31.8377953 L1.09787719,30.7399181 L31.8378596,30.7399181 L31.8378596,31.8377953 L31.8377953,31.8377953 Z M14.365614,29.6421053 L12.1683158,29.6421053 L3.29356725,23.8553977 L3.29356725,23.0549708 L4.26716374,23.0549708 L14.365614,29.6421053 Z M6.27591813,23.0549708 L14.8210526,23.0549708 L14.8210526,28.6289474 L6.27591813,23.0549708 Z M10.1582105,29.6421053 L3.29356725,29.6421053 L3.29356725,25.1660702 L10.1582105,29.6421053 Z M15.9189298,29.6421053 L15.9189298,23.0549708 L17.016807,23.0549708 L17.016807,29.6421053 L15.9189298,29.6421053 L15.9189298,29.6421053 Z M20.7673567,29.6421053 L18.5700585,29.6421053 L28.6685088,23.0549708 L29.6421053,23.0549708 L29.6421053,23.8553977 L20.7673567,29.6421053 Z M29.6421053,25.1660702 L29.6421053,29.6421053 L22.777462,29.6421053 L29.6421053,25.1660702 Z M18.1146199,28.6289474 L18.1146199,23.0549708 L26.6597544,23.0549708 L18.1146199,28.6289474 Z M31.8377953,29.6421053 L30.7399181,29.6421053 L30.7399181,23.0549708 L31.8377953,23.0549708 L31.8377953,29.6421053 Z M31.8377953,21.9570936 L1.09787719,21.9570936 L1.09787719,20.4877251 L15.1019708,1.09781287 L17.8337661,1.09781287 L31.8378596,20.4877251 L31.8378596,21.9570936 L31.8377953,21.9570936 Z"></path>
                    <path d="M15.7206725,3.12161988 C15.7095439,3.11209942 15.7036257,3.09884795 15.6915965,3.09009942 C15.6740994,3.08090058 15.6560877,3.07273099 15.6376901,3.06565497 C15.5734912,3.02725146 15.5013158,3.00396491 15.4267602,2.99759649 C15.4080409,2.9927076 15.3890643,2.98884795 15.3699591,2.9861462 C15.3553567,2.9861462 15.3431345,2.99328655 15.3288538,2.99444444 C15.1851462,3.00878947 15.052117,3.0767193 14.9562047,3.18472515 C14.9468129,3.1958538 14.9336257,3.20164327 14.9250058,3.21373684 L2.81001754,19.9889298 C2.68921053,20.1559883 2.6722924,20.3766959 2.7661462,20.5602222 C2.86,20.7438129 3.04880117,20.8592807 3.25497076,20.8592164 L15.3699591,20.8592164 C15.5155322,20.8592807 15.6551871,20.8014503 15.7581754,20.698462 C15.8610994,20.595538 15.9189298,20.455883 15.9189298,20.3102456 L15.9189298,3.53505263 C15.9189298,3.52006433 15.9115965,3.50752047 15.9104386,3.4928538 C15.8957719,3.34978947 15.8280994,3.21733918 15.7206725,3.12161988 Z M14.8210526,19.7614035 L4.32872515,19.7614035 L14.8210526,5.23265497 L14.8210526,19.7614035 Z"></path>
                    <path d="M17.5657135,2.9861462 C17.5466082,2.98891228 17.5276959,2.9927076 17.5089766,2.99759649 C17.4344854,3.00383626 17.3624386,3.02705848 17.2983041,3.06546199 C17.2797778,3.07260234 17.2616374,3.08090058 17.244076,3.09016374 C17.2319825,3.09891228 17.2261287,3.11209942 17.215,3.12168421 C17.1075731,3.21740351 17.0399006,3.3498538 17.0252982,3.49298246 C17.0241404,3.50764912 17.016807,3.52019298 17.016807,3.53511696 L17.016807,20.3103743 C17.0167427,20.4559474 17.0745731,20.5956023 17.1775614,20.6985906 C17.2805497,20.8015146 17.4201404,20.859345 17.5657778,20.859345 L29.6807018,20.859345 C29.8868713,20.8594094 30.0756725,20.7439415 30.1695263,20.5603509 C30.2633801,20.3767602 30.2463977,20.156117 30.125655,19.9890585 L18.0106023,3.21367251 C18.0019825,3.2017076 17.9888596,3.19591813 17.9795322,3.18491813 C17.8836199,3.07684795 17.7505263,3.00878947 17.6066901,2.99444444 C17.5924094,2.99335088 17.5802515,2.9861462 17.5657135,2.9861462 Z M18.1146199,5.23265497 L28.6069474,19.7614035 L18.1146199,19.7614035 L18.1146199,5.23265497 Z"></path>
                </g>
            </g>
        </g>
    </g>
</svg>