<?xml version="1.0" encoding="UTF-8"?>
<svg width="52px" height="52px" viewBox="0 0 52 52" version="1.1" xmlns="http://www.w3.org/2000/svg" xmlns:xlink="http://www.w3.org/1999/xlink">
    <!-- Generator: Sketch 43.1 (39012) - http://www.bohemiancoding.com/sketch -->
    <title>нагруженные-крнструкции</title>
    <desc>Created with Sketch.</desc>
    <defs></defs>
    <g id="Design" stroke="none" stroke-width="1" fill="none" fill-rule="evenodd">
        <g id="О-нас" transform="translate(-245.000000, -4374.000000)">
            <g id="нагруженные-крнструкции" transform="translate(246.000000, 4375.000000)">
                <g id="skyline" transform="translate(10.000000, 10.000000)" fill-rule="nonzero" fill="#509FAE">
                    <path d="M0,29.6504425 L0,30.295037 C0,30.650963 0.288608187,30.9395712 0.644594542,30.9395712 L30.295037,30.9395712 C30.6510234,30.9395712 30.9396316,30.650963 30.9396316,30.2949766 L30.9396316,29.6503821 L0,29.6503821 L0,29.6504425 Z" id="Shape"></path>
                    <path d="M12.2469337,11.6023392 L1.9337232,11.6023392 C1.57773684,11.6023392 1.28912865,11.8909474 1.28912865,12.2469337 L1.28912865,30.295037 C1.28912865,30.650963 1.57773684,30.9395712 1.9337232,30.9395712 L12.2469337,30.9395712 C12.6029201,30.9395712 12.8915283,30.650963 12.8915283,30.2949766 L12.8915283,12.2469337 C12.8914678,11.8909474 12.6029201,11.6023392 12.2469337,11.6023392 Z M11.6023392,29.6504425 L2.57831774,29.6504425 L2.57831774,12.8914678 L11.6023392,12.8914678 L11.6023392,29.6504425 Z" id="Shape"></path>
                    <path d="M29.005848,3.86744639 L18.6926374,3.86744639 C18.3366511,3.86744639 18.0480429,4.15605458 18.0480429,4.51204094 L18.0480429,30.295037 C18.0480429,30.6510234 18.3366511,30.9396316 18.6926374,30.9396316 L29.005848,30.9396316 C29.3618343,30.9396316 29.6504425,30.6510234 29.6504425,30.295037 L29.6504425,4.51204094 C29.6504425,4.15605458 29.3618343,3.86744639 29.005848,3.86744639 Z M28.3612534,29.6504425 L19.337232,29.6504425 L19.337232,5.15657505 L28.3612534,5.15657505 L28.3612534,29.6504425 L28.3612534,29.6504425 Z" id="Shape"></path>
                    <path d="M24.493807,0 L7.09029825,0 C6.73431189,0 6.4457037,0.288608187 6.4457037,0.644594542 L6.4457037,10.3132105 L7.73489279,10.3132105 L7.73489279,1.28912865 L23.8492729,1.28912865 L23.8492729,2.57825731 L25.1384016,2.57825731 L25.1384016,0.644534113 C25.1384016,0.288608187 24.8497934,0 24.493807,0 Z" id="Shape"></path>
                    <rect id="Rectangle-path" x="3.86744639" y="14.1806569" width="1.28912865" height="11.6023392"></rect>
                    <rect id="Rectangle-path" x="6.44576413" y="14.1806569" width="1.28912865" height="11.6023392"></rect>
                    <rect id="Rectangle-path" x="9.02402144" y="14.1806569" width="1.28912865" height="11.6023392"></rect>
                    <rect id="Rectangle-path" x="18.6926374" y="7.09029825" width="7.09029825" height="1.28912865"></rect>
                    <rect id="Rectangle-path" x="18.6926374" y="10.3132105" width="7.09029825" height="1.28912865"></rect>
                    <rect id="Rectangle-path" x="18.6926374" y="13.5360624" width="7.09029825" height="1.28912865"></rect>
                    <rect id="Rectangle-path" x="18.6926374" y="16.7589142" width="7.09029825" height="1.28912865"></rect>
                    <rect id="Rectangle-path" x="18.6926374" y="19.9818265" width="7.09029825" height="1.28912865"></rect>
                    <rect id="Rectangle-path" x="18.6926374" y="23.2046784" width="7.09029825" height="1.28912865"></rect>
                    <rect id="Rectangle-path" x="9.66861598" y="3.22285185" width="1.28912865" height="1.9337232"></rect>
                    <rect id="Rectangle-path" x="9.66861598" y="7.09029825" width="1.28912865" height="1.9337232"></rect>
                    <rect id="Rectangle-path" x="12.2469337" y="7.09029825" width="1.28912865" height="1.9337232"></rect>
                    <rect id="Rectangle-path" x="12.2469337" y="3.22285185" width="1.28912865" height="1.9337232"></rect>
                    <rect id="Rectangle-path" x="14.825191" y="3.22285185" width="1.28912865" height="1.9337232"></rect>
                    <rect id="Rectangle-path" x="14.825191" y="7.09029825" width="1.28912865" height="1.9337232"></rect>
                    <rect id="Rectangle-path" x="14.825191" y="10.9577446" width="1.28912865" height="1.9337232"></rect>
                    <rect id="Rectangle-path" x="14.825191" y="14.825191" width="1.28912865" height="1.9337232"></rect>
                    <rect id="Rectangle-path" x="14.825191" y="18.6926374" width="1.28912865" height="1.9337232"></rect>
                    <rect id="Rectangle-path" x="14.825191" y="22.5600838" width="1.28912865" height="1.9337232"></rect>
                    <path d="M24.493807,26.4275302 L21.2709552,26.4275302 C20.9149688,26.4275302 20.6263606,26.7161384 20.6263606,27.0721248 L20.6263606,30.2949766 L21.9154893,30.2949766 L21.9154893,27.7166589 L23.8492125,27.7166589 L23.8492125,30.2949766 L25.1384016,30.2949766 L25.1384016,27.0721248 C25.1384016,26.7161384 24.8497934,26.4275302 24.493807,26.4275302 Z" id="Shape"></path>
                    <path d="M9.66861598,27.0721248 L4.51204094,27.0721248 C4.15605458,27.0721248 3.86744639,27.3607329 3.86744639,27.7167193 L3.86744639,30.295037 L5.15657505,30.295037 L5.15657505,28.3613138 L9.02402144,28.3613138 L9.02402144,30.295037 L10.3131501,30.295037 L10.3131501,27.7167193 C10.3132105,27.3607329 10.0246023,27.0721248 9.66861598,27.0721248 Z" id="Shape"></path>
                </g>
                <ellipse id="Oval-Copy-4" stroke="#509FAE" stroke-width="2" cx="25" cy="25" rx="25" ry="25"></ellipse>
            </g>
        </g>
    </g>
</svg>