<?xml version="1.0" encoding="UTF-8"?>
<svg width="52px" height="52px" viewBox="0 0 52 52" version="1.1" xmlns="http://www.w3.org/2000/svg" xmlns:xlink="http://www.w3.org/1999/xlink">
    <!-- Generator: Sketch 43.1 (39012) - http://www.bohemiancoding.com/sketch -->
    <title>овощехранилище</title>
    <desc>Created with Sketch.</desc>
    <defs></defs>
    <g id="Design" stroke="none" stroke-width="1" fill="none" fill-rule="evenodd">
        <g id="О-нас" transform="translate(-716.000000, -4374.000000)">
            <g id="овощехранилище" transform="translate(717.000000, 4375.000000)">
                <ellipse id="Oval-Copy-4" stroke="#509FAE" stroke-width="2" cx="25" cy="25" rx="25" ry="25"></ellipse>
                <g id="fruit" transform="translate(10.000000, 8.000000)" fill-rule="nonzero" fill="#509FAE">
                    <path d="M13.793911,14.4918033 C14.1387974,14.4918262 14.4808547,14.4289489 14.8036253,14.3061967 C15.2192415,14.1462452 15.6785674,14.1462452 16.0941836,14.3061967 C16.417092,14.4291454 16.7593659,14.4920281 17.1044496,14.4918033 C18.9302117,14.4918033 20.4149883,12.7416393 20.4149883,10.5901639 C20.4149883,8.43868852 18.9302117,6.68852459 17.1044496,6.68852459 C16.7595633,6.68850166 16.4175059,6.75137894 16.0947354,6.87413115 C16.0577677,6.88806557 16.0202482,6.89419672 15.9843841,6.90590164 C16.0803897,6.10495082 16.4986211,4.7455082 18.0474014,3.18095082 L17.2661143,2.39281967 C16.7616317,2.89613695 16.3112825,3.45196319 15.9225874,4.05101639 C15.8368899,3.7347497 15.6741345,3.44520589 15.4491803,3.20881967 C14.6215457,2.3727541 13.1654604,2.62970492 13.0021405,2.66203279 C12.7821918,2.70553145 12.6101436,2.87911201 12.5668047,3.1012459 C12.5353546,3.26845902 12.2776843,4.73491803 13.1086295,5.57377049 C13.5893557,5.99921334 14.2156334,6.2180332 14.8538351,6.18354098 C14.9029415,6.18354098 14.9465302,6.18354098 14.992326,6.17908197 C14.9362921,6.41436083 14.8966524,6.653318 14.8736984,6.89419672 C14.8505246,6.88639344 14.8267991,6.88304918 14.804177,6.87468852 C14.4813036,6.75154967 14.1390286,6.68847791 13.793911,6.68852459 C11.9681489,6.68852459 10.4833724,8.43868852 10.4833724,10.5901639 C10.4833724,12.7416393 11.9681489,14.4918033 13.793911,14.4918033 Z M13.8888131,4.78563934 C13.6689298,4.47633015 13.5706128,4.0955429 13.6129349,3.71714754 C13.9875679,3.67363407 14.3647829,3.77302312 14.670652,3.99583607 C14.8902932,4.30526001 14.9885856,4.6859518 14.9465302,5.06432787 C14.5718744,5.10816988 14.1945433,5.00875025 13.8888131,4.78563934 Z M13.793911,7.80327869 C14.006762,7.80327444 14.2178397,7.84236938 14.416844,7.91865574 C15.0826154,8.17086514 15.816297,8.17086514 16.4820684,7.91865574 C16.6809355,7.84256695 16.8917964,7.80347755 17.1044496,7.80327869 C18.3216244,7.80327869 19.3114754,9.05347541 19.3114754,10.5901639 C19.3114754,12.1268525 18.3216244,13.3770492 17.1044496,13.3770492 C16.8915987,13.3770534 16.6805209,13.3379585 16.4815166,13.2616721 C15.8157634,13.0093616 15.0820455,13.0093616 14.4162923,13.2616721 C14.2174252,13.3377609 14.0065643,13.3768503 13.793911,13.3770492 C12.5767363,13.3770492 11.5868852,12.1268525 11.5868852,10.5901639 C11.5868852,9.05347541 12.5767363,7.80327869 13.793911,7.80327869 Z" id="Shape"></path>
                    <path d="M23.1737705,23.4098361 L16.5526932,23.4098361 C15.9432399,23.4098361 15.4491803,23.9089285 15.4491803,24.5245902 L15.4491803,27.8688525 C15.4491803,28.4845141 15.9432399,28.9836066 16.5526932,28.9836066 L23.1737705,28.9836066 C23.7832238,28.9836066 24.2772834,28.4845141 24.2772834,27.8688525 L24.2772834,24.5245902 C24.2772834,23.9089285 23.7832238,23.4098361 23.1737705,23.4098361 Z M16.5526932,27.8688525 L16.5526932,24.5245902 L23.1737705,24.5245902 L23.1737705,27.8688525 L16.5526932,27.8688525 Z" id="Shape"></path>
                    <path d="M27.4862988,32.3278689 C27.5516476,32.149365 27.5859933,31.9608024 27.587822,31.7704918 L27.587822,20.9445574 C28.4115845,20.5839511 29.0090057,19.8395563 29.1879157,18.9508197 L29.7948478,18.9508197 C30.0995744,18.9508197 30.3466042,18.7012735 30.3466042,18.3934426 C30.3580962,14.268064 27.9830545,10.5161397 24.2712141,8.79596721 C24.2064915,3.92178755 20.2773675,0.00442071371 15.4519053,0.0030487413 C10.6264432,0.00167676889 6.69513689,3.91680873 6.62769836,8.79095082 C2.91884685,10.5173318 0.545497101,14.2682023 0.55175644,18.3934426 C0.55175644,18.7012735 0.798786213,18.9508197 1.10351288,18.9508197 L1.71044496,18.9508197 C1.88843657,19.8405203 2.48604269,20.585978 3.31053864,20.9467869 L3.31053864,31.7704918 C3.3123674,31.9608024 3.34671304,32.149365 3.41206183,32.3278689 L0,32.3278689 L0,33.442623 L30.8983607,33.442623 L30.8983607,32.3278689 L27.4862988,32.3278689 Z M29.2276422,17.8360656 L28.6913349,17.8360656 C28.3866082,17.8360656 28.1395785,18.0856118 28.1395785,18.3934426 C28.1399859,19.160204 27.6231056,19.828578 26.8865396,20.0137377 C26.7555194,20.0499191 26.6201251,20.0673676 26.4843091,20.0655738 C25.5701291,20.0655738 24.8290398,19.3169352 24.8290398,18.3934426 L24.8290398,16.1639344 C24.829324,14.7021046 24.4487387,13.2659462 23.7255269,11.9997705 C23.9633752,11.3541468 24.1254119,10.6825608 24.2083138,9.99878689 C27.1323691,11.5344013 29.0395641,14.5123333 29.2276422,17.8360656 Z M10.4833724,16.2854426 L10.4833724,18.3934426 C10.4833724,19.3169352 9.74228305,20.0655738 8.82810304,20.0655738 C7.91392304,20.0655738 7.17283372,19.3169352 7.17283372,18.3934426 L7.17283372,16.1639344 C7.17282736,15.1750854 7.37376793,14.1967615 7.76321311,13.289541 C8.43100194,14.4853225 9.36162242,15.51028 10.4833724,16.2854426 L10.4833724,16.2854426 Z M11.5868852,16.9247541 C12.6220415,17.4365018 13.7471082,17.7365451 14.8974239,17.8076393 L14.8974239,18.3934426 C14.8974239,19.3169352 14.1563346,20.0655738 13.2421546,20.0655738 C12.3279746,20.0655738 11.5868852,19.3169352 11.5868852,18.3934426 L11.5868852,16.9247541 Z M16.0009368,17.8076393 C17.1512525,17.7365451 18.2763191,17.4365018 19.3114754,16.9247541 L19.3114754,18.3934426 C19.3114754,19.3169352 18.5703861,20.0655738 17.6562061,20.0655738 C16.7420261,20.0655738 16.0009368,19.3169352 16.0009368,18.3934426 L16.0009368,17.8076393 Z M20.4149883,16.2854426 C21.5367382,15.51028 22.4673587,14.4853225 23.1351475,13.289541 C23.5245927,14.1967615 23.7255333,15.1750854 23.7255269,16.1639344 L23.7255269,18.3934426 C23.7255269,19.3169352 22.9844376,20.0655738 22.0702576,20.0655738 C21.1560776,20.0655738 20.4149883,19.3169352 20.4149883,18.3934426 L20.4149883,16.2854426 Z M15.4491803,1.1147541 C19.7153537,1.1147541 23.1737705,4.60840097 23.1737705,8.91803279 C23.1737705,13.2276646 19.7153537,16.7213115 15.4491803,16.7213115 C11.183007,16.7213115 7.72459016,13.2276646 7.72459016,8.91803279 C7.72915171,4.61031111 11.1848979,1.11936211 15.4491803,1.1147541 L15.4491803,1.1147541 Z M2.7587822,18.3934426 C2.7587822,18.0856118 2.51175243,17.8360656 2.20702576,17.8360656 L1.67127026,17.8360656 C1.85916895,14.5111065 3.76705312,11.5320215 6.69225386,9.996 C6.77537717,10.6806945 6.93759501,11.3531989 7.17559251,11.9997705 C6.45141658,13.2656763 6.06987546,14.7018514 6.06932084,16.1639344 L6.06932084,18.3934426 C6.06932084,19.3169352 5.32823153,20.0655738 4.41405152,20.0655738 C4.27347383,20.0668212 4.13342303,20.0480576 3.99802717,20.0098361 C3.26753838,19.8208689 2.75717427,19.1551819 2.7587822,18.3934426 Z M12.1386417,32.3278689 L7.72459016,32.3278689 L7.72459016,25.0819672 C7.72459016,24.7741364 7.97161994,24.5245902 8.2763466,24.5245902 L11.5868852,24.5245902 C11.8916119,24.5245902 12.1386417,24.7741364 12.1386417,25.0819672 L12.1386417,32.3278689 Z M13.2421546,32.3278689 L13.2421546,25.0819672 C13.2421546,24.1584747 12.5010652,23.4098361 11.5868852,23.4098361 L8.2763466,23.4098361 C7.3621666,23.4098361 6.62107728,24.1584747 6.62107728,25.0819672 L6.62107728,32.3278689 L4.96580796,32.3278689 C4.66108129,32.3278689 4.41405152,32.0783226 4.41405152,31.7704918 L4.41405152,21.1803279 C5.28580025,21.1778567 6.10471367,20.7578177 6.62107728,20.0482951 C7.13574928,20.7598517 7.95572684,21.1805007 8.82810304,21.1805007 C9.70047925,21.1805007 10.5204568,20.7598517 11.0351288,20.0482951 C11.5498008,20.7598517 12.3697784,21.1805007 13.2421546,21.1805007 C14.1145308,21.1805007 14.9345083,20.7598517 15.4491803,20.0482951 C15.9638523,20.7598517 16.7838299,21.1805007 17.6562061,21.1805007 C18.5285823,21.1805007 19.3485599,20.7598517 19.8632319,20.0482951 C20.3779038,20.7598517 21.1978814,21.1805007 22.0702576,21.1805007 C22.9426338,21.1805007 23.7626114,20.7598517 24.2772834,20.0482951 C24.793647,20.7578177 25.6125604,21.1778567 26.4843091,21.1803279 L26.4843091,31.7704918 C26.4843091,32.0783226 26.2372794,32.3278689 25.9325527,32.3278689 L13.2421546,32.3278689 Z" id="Shape"></path>
                    <rect id="Rectangle-path" x="10.4833724" y="27.3114754" width="1.10351288" height="2.2295082"></rect>
                </g>
            </g>
        </g>
    </g>
</svg>