<?xml version="1.0" encoding="UTF-8"?>
<svg width="52px" height="52px" viewBox="0 0 52 52" version="1.1" xmlns="http://www.w3.org/2000/svg" xmlns:xlink="http://www.w3.org/1999/xlink">
    <!-- Generator: Sketch 43.1 (39012) - http://www.bohemiancoding.com/sketch -->
    <title>пожаробезопасность</title>
    <desc>Created with Sketch.</desc>
    <defs></defs>
    <g id="Design" stroke="none" stroke-width="1" fill="none" fill-rule="evenodd">
        <g id="О-нас" transform="translate(-694.000000, -3223.000000)">
            <g id="пожаробезопасность" transform="translate(695.000000, 3224.000000)">
                <ellipse id="Oval-Copy-16" stroke="#509FAE" stroke-width="2" cx="25" cy="25" rx="25" ry="25"></ellipse>
                <g id="010-fire-extinguisher-1" transform="translate(12.000000, 9.000000)" fill-rule="nonzero" fill="#509FAE">
                    <path d="M24.2339708,0 L15.0947687,0 C13.6109328,0.00173700454 12.4085173,1.18575374 12.4067533,2.64688474 C12.4087693,3.22146103 12.6024939,3.77947373 12.9581282,4.23500318 L10.2563788,4.23500318 C5.21128621,4.24052437 1.12284668,8.26646664 1.11717669,13.2343617 L1.11717669,24.2982121 L0.0779308387,29.3000407 C-0.0258929464,29.7911167 0.0976497978,30.3021683 0.414980141,30.6945452 C0.687769576,31.0317722 1.10060772,31.2296046 1.53845681,31.2329546 L3.92142688,31.2329546 C4.35927598,31.2296046 4.77211412,31.0317722 5.04490356,30.6945452 C5.3619819,30.3023544 5.48552464,29.791613 5.38195286,29.3007851 L4.34270701,24.2982121 L4.34270701,13.7637138 C4.347621,10.4724004 6.90239171,7.7288017 10.2318718,7.43928026 C8.89400659,8.43694123 8.10732722,9.99366951 8.10594122,11.6461812 L8.10594122,31.2329546 C8.10594122,31.5253296 8.34666372,31.7623067 8.64351911,31.7623067 L21.5459554,31.7623067 C21.8428738,31.7623067 22.0835333,31.5253296 22.0835333,31.2329546 L22.0835333,11.6461812 C22.0805723,9.33534479 20.5581174,7.29250338 18.3203621,6.59658492 L18.3203621,5.82312161 C18.3179051,5.12627261 17.85347,4.51279983 17.1760324,4.31136934 C17.3480221,4.10559634 17.4874408,3.87544324 17.5895636,3.62860248 L21.4829555,7.66893708 C22.1101822,8.29022638 23.1300871,8.29332817 23.7612198,7.67594713 C24.3923525,7.05856609 24.3960065,6.05432932 23.7692838,5.43254373 L21.5973633,3.17623687 L26.3843454,3.17623687 C26.6812638,3.17623687 26.9219233,2.93925982 26.9219233,2.64688474 C26.9202223,1.18575374 25.7177438,0.00173700454 24.2339708,0 Z M2.19239546,21.1748918 L3.26761424,21.1748918 L3.26761424,23.8217765 L2.19239546,23.8217765 L2.19239546,21.1748918 Z M4.21179328,30.0253642 C4.14318642,30.1159986 4.03627564,30.1708383 3.92148988,30.1742503 L1.53851981,30.1742503 C1.42373405,30.1708383 1.31682327,30.1159986 1.24821642,30.0253642 C1.13387165,29.8800762 1.09096874,29.6922936 1.13116266,29.5128238 L2.09348567,24.8805428 L3.36658703,24.8805428 L4.32891004,29.5128238 L4.32891004,29.5136302 C4.36891496,29.6928519 4.32607504,29.8803243 4.21179328,30.0253642 Z M3.26761424,13.7637138 L3.26761424,20.1161875 L2.19239546,20.1161875 L2.19239546,13.2342996 C2.19743545,8.85090663 5.80487098,5.29867031 10.2563788,5.29370744 L11.8691754,5.29370744 L11.8691754,6.35247374 L10.7939567,6.35247374 C6.63917826,6.3570644 3.27227623,9.67250978 3.26761424,13.7637138 Z M21.0083775,30.7036024 L9.18115999,30.7036024 L9.18115999,28.0567177 L21.0083145,28.0567177 L21.0083145,30.7036024 L21.0083775,30.7036024 Z M21.0083775,26.9980134 L9.18115999,26.9980134 L9.18115999,12.7049475 L21.0083145,12.7049475 L21.0083145,26.9980134 L21.0083775,26.9980134 Z M21.0083775,11.6461812 L9.18115999,11.6461812 C9.18386899,9.30835918 11.107822,7.41384555 13.4819721,7.41117801 L16.7075654,7.41117801 C19.0817155,7.41390759 21.0056685,9.30842122 21.0083775,11.6461812 Z M17.2451433,5.82312161 L17.2451433,6.35247374 L12.9443312,6.35247374 L12.9443312,5.29370744 L16.7075654,5.29370744 C17.0042948,5.29407966 17.2447653,5.5308706 17.2451433,5.82312161 Z M23.0015044,6.17362431 C23.1035012,6.27207525 23.1607681,6.40687921 23.1603271,6.54751454 C23.1598861,6.68814987 23.1017372,6.82258162 22.9991734,6.92041219 C22.7889428,7.1092494 22.4684625,7.11346784 22.2531289,6.93021386 L18.6361174,3.17623687 L20.1160474,3.17623687 L23.0015044,6.17362431 Z M17.2451433,2.11747057 C16.9482249,2.11747057 16.7075654,2.35444762 16.7075654,2.6468227 C16.7075654,3.52388592 15.9855239,4.23494114 15.0947687,4.23494114 C14.2040766,4.23494114 13.4819721,3.52394796 13.4819721,2.6468227 C13.4829171,1.7701317 14.2044546,1.05963481 15.0947687,1.05870427 L24.2339708,1.05870427 C24.9172044,1.0594487 25.5260982,1.48340188 25.7545987,2.11747057 L17.2451433,2.11747057 Z" id="Shape"></path>
                </g>
            </g>
        </g>
    </g>
</svg>