<?xml version="1.0" encoding="UTF-8"?>
<svg width="52px" height="52px" viewBox="0 0 52 52" version="1.1" xmlns="http://www.w3.org/2000/svg" xmlns:xlink="http://www.w3.org/1999/xlink">
    <!-- Generator: Sketch 43.1 (39012) - http://www.bohemiancoding.com/sketch -->
    <title>стоимость</title>
    <desc>Created with Sketch.</desc>
    <defs></defs>
    <g id="Design" stroke="none" stroke-width="1" fill="none" fill-rule="evenodd">
        <g id="О-нас" transform="translate(-1220.000000, -3223.000000)">
            <g id="стоимость" transform="translate(1221.000000, 3224.000000)">
                <ellipse id="Oval-Copy-13" stroke="#509FAE" stroke-width="2" cx="25" cy="25" rx="25" ry="25"></ellipse>
                <g id="013-offer" transform="translate(10.000000, 10.000000)" fill-rule="nonzero" fill="#509FAE">
                    <path d="M8.80079308,12.6020848 L8.79971256,12.6207033 C8.72651223,13.8833056 9.44474037,15.0661142 10.6299923,15.6331814 L10.6421474,15.639033 C11.0600108,15.8358574 11.402513,16.1603518 11.6186027,16.5638419 L11.6234647,16.5726192 C12.2206826,17.6923908 13.4559053,18.3711692 14.7727019,18.3030786 L14.7926902,18.3020146 C15.2702484,18.2756827 15.7442952,18.3969692 16.1483829,18.6491173 C17.2634057,19.335875 18.6787932,19.335875 19.793816,18.6491173 C20.1979038,18.3969692 20.6719506,18.2756827 21.1495088,18.3020146 L21.169497,18.3030786 C22.4841327,18.3717011 23.7209761,17.6923908 24.3195446,16.5707574 L24.3225159,16.5646399 C24.5394158,16.1600858 24.8827284,15.8350595 25.3019424,15.637969 L25.3116664,15.6331814 C26.4969184,15.0658482 27.2154166,13.8833056 27.1419461,12.6204373 L27.1408657,12.6028827 C27.1165556,12.1581659 27.2418876,11.7179706 27.4979539,11.3506536 C28.2350899,10.2920572 28.2350899,8.89619947 27.498224,7.83733704 C27.2424278,7.47028609 27.1165556,7.0303568 27.1408657,6.58563992 L27.1419461,6.56702135 C27.2154166,5.30415315 26.4969184,4.12161051 25.3105859,3.5540113 L25.2997815,3.54869179 C24.8827284,3.35239925 24.5410365,3.02950079 24.3246768,2.62707452 L24.3184642,2.61510548 C23.7209761,1.49533394 22.4841327,0.816821511 21.169497,0.884646172 L21.1492386,0.88571002 C20.6719506,0.912041957 20.1979038,0.790755535 19.7940861,0.538607448 L19.7935459,0.538607448 C18.6785231,-0.148150283 17.2631356,-0.148150283 16.1481128,0.538607448 C15.7440251,0.790489573 15.2699783,0.911775995 14.7924201,0.885444058 L14.7724317,0.884380142 C13.457526,0.815757595 12.2209527,1.49506791 11.6237348,2.61457356 L11.6191429,2.62281885 C11.4027831,3.02710693 11.0600108,3.35186726 10.6416071,3.54895775 L10.6302624,3.55427733 C9.44501046,4.12134455 8.72651223,5.30415315 8.79998273,6.56702135 L8.80106317,6.584576 C8.82537323,7.02929288 8.70004121,7.46948814 8.44397492,7.83653915 C7.70683896,8.89540151 7.70683896,10.2915252 8.44397492,11.3501216 C8.69977111,11.7171727 8.82537323,12.1573679 8.80079308,12.6020848 L8.80079308,12.6020848 Z M9.35452289,8.45520626 C9.74969693,7.88867103 9.94336731,7.20936064 9.90555161,6.52313484 L9.90447116,6.50451634 C9.86557502,5.66774639 10.342593,4.8905558 11.1126826,4.53494183 L11.1221366,4.53042021 C11.7539289,4.23252373 12.2711936,3.74205846 12.597489,3.13190268 L12.6028912,3.12179545 C12.9996859,2.37758625 13.8308209,1.92648588 14.7135473,1.97276619 L14.7329954,1.97356414 C15.4393386,2.01266307 16.1402795,1.8333932 16.7377676,1.46049068 C17.4921907,0.995825358 18.449468,0.995825358 19.2038912,1.46049068 C19.8013792,1.83286127 20.5023201,2.01239711 21.2083932,1.97383011 L21.2278413,1.97276619 C22.1148895,1.9270178 22.9419728,2.37758625 23.337687,3.11966762 L23.3449801,3.13323256 C23.6712755,3.74259046 24.188,4.23225777 24.8189819,4.52988828 L24.8281657,4.53440991 C25.6104104,4.90890833 26.0852675,5.68210929 26.0374577,6.5047823 L26.0363772,6.52419875 C25.9985615,7.21042456 26.192502,7.88946899 26.587676,8.45600421 C27.0652343,9.14196406 27.0649642,10.0462926 26.5871359,10.7319865 C26.1922319,11.2987877 25.9985615,11.978098 26.0363772,12.6643239 L26.0374577,12.6826764 C26.0852675,13.5053495 25.6104104,14.2788164 24.8278956,14.6535808 L24.8197922,14.6573045 C24.1874597,14.9557329 23.6696548,15.4467302 23.3430893,16.0579499 L23.3390376,16.0659293 C22.9419728,16.8101385 22.1121884,17.2615048 21.2281114,17.2149585 L21.2089334,17.2138946 C20.5025902,17.1750616 19.8013792,17.3545975 19.2036211,17.727234 C18.449468,18.1916334 17.4921907,18.1916334 16.7380377,17.727234 C16.1945721,17.3881109 15.5641304,17.208309 14.9207233,17.208841 C14.8583274,17.208841 14.7956614,17.2104368 14.7329954,17.2138946 L14.7135473,17.2146925 C13.8424358,17.2692182 13.0183237,16.8202457 12.6020809,16.0645994 L12.5964085,16.0542262 C12.2706533,15.4451342 11.7541989,14.9557329 11.1234871,14.6581025 L11.1132229,14.6530488 C10.3307081,14.2785504 9.85585098,13.5050835 9.9039309,12.6826764 L9.90501142,12.6632599 C9.94255695,11.9770342 9.74861649,11.2977238 9.35371253,10.7314545 C8.87642447,10.0454947 8.87669457,9.1411661 9.35452289,8.45573825 L9.35452289,8.45520626 Z" id="Shape"></path>
                    <path d="M14.4015678,15.2251696 C14.6606053,15.384491 15.001757,15.3065592 15.1635541,15.0514853 L21.7167442,4.71394575 C21.8237086,4.54877281 21.8326223,4.33971328 21.7397037,4.16656094 C21.6467852,3.99314264 21.4663503,3.88249537 21.2675478,3.87637791 C21.0687452,3.87026037 20.8818277,3.96973648 20.7781046,4.13703726 L14.2251846,14.4745769 C14.0633874,14.7299167 14.1422602,15.0658482 14.4015678,15.2251696 L14.4015678,15.2251696 Z" id="Shape"></path>
                    <path d="M14.9887916,9.62072625 C16.3358407,9.62072625 17.4319557,8.39004142 17.4319557,6.87741886 C17.4319557,5.3647963 16.3358407,4.1343775 14.9887916,4.1343775 C13.6417424,4.1343775 12.5458976,5.3647963 12.5458976,6.87741886 C12.5458976,8.39004142 13.6417424,9.62072625 14.9887916,9.62072625 Z M14.9887916,5.22382746 C15.7259275,5.22382746 16.3255764,5.96564286 16.3255764,6.87741886 C16.3255764,7.78919485 15.7259275,8.53127628 14.9887916,8.53127628 C14.2519257,8.53127628 13.6522768,7.78892889 13.6522768,6.87741886 C13.6522768,5.96590889 14.2519257,5.22382746 14.9887916,5.22382746 Z" id="Shape"></path>
                    <path d="M18.5099732,12.3108378 C18.5099732,13.8234603 19.605818,15.0538792 20.9528672,15.0538792 C22.2999163,15.0538792 23.3960313,13.8231944 23.3960313,12.3108378 C23.3960313,10.7987472 22.3001864,9.56779641 20.9531373,9.56779641 C19.605818,9.56779641 18.5099732,10.7979492 18.5099732,12.3108378 L18.5099732,12.3108378 Z M22.289652,12.3108378 C22.289652,13.2226138 21.6900031,13.9644292 20.9528672,13.9644292 C20.2160013,13.9644292 19.6163524,13.2226138 19.6163524,12.3108378 C19.6163524,11.3990618 20.2160013,10.6572464 20.9528672,10.6572464 C21.6900031,10.6572464 22.289652,11.3985299 22.289652,12.3108378 Z" id="Shape"></path>
                    <path d="M29.6407533,21.3562514 C28.9082093,20.0760945 27.283755,19.5885551 25.9507516,20.2487149 L21.617343,22.2648357 C21.0190446,21.1692683 19.8713382,20.4718713 18.608294,20.4367621 L14.6079335,20.3282426 C13.9745206,20.310422 13.3529926,20.1521646 12.7898088,19.8659711 L12.3827499,19.6582415 C10.2985648,18.588474 7.81434355,18.5911338 5.73231941,19.665157 L5.75770992,18.7571047 C5.76608341,18.4562825 5.5254135,18.2057303 5.21991667,18.1974849 L0.833295868,18.0785923 C0.527799045,18.070347 0.273623559,18.3073343 0.265250135,18.6081565 L0.000270112119,28.0873819 C-0.00810339813,28.3882041 0.232566517,28.6387563 0.53806334,28.6470017 L4.92468414,28.7658943 L4.94008052,28.7658943 C5.23963491,28.7656284 5.48462655,28.5307689 5.49300004,28.2360642 L5.50542523,27.78257 L6.64502821,27.1817234 C7.09233388,26.9447361 7.61554103,26.8883486 8.10417391,27.0245298 L14.9091085,28.9052673 C14.9209934,28.908725 14.9328784,28.9113848 14.9450334,28.9140446 C15.4369076,29.0153826 15.9382357,29.0661846 16.4409143,29.0659186 C17.5051561,29.0664505 18.5569726,28.8406344 19.5242441,28.4033649 C19.548014,28.3927258 19.5709736,28.3804908 19.5928526,28.3666598 L29.4595081,22.0818421 C29.7055802,21.9254465 29.7849932,21.6070696 29.6407533,21.3562514 L29.6407533,21.3562514 Z M1.12150552,27.5727125 L1.35596283,19.182937 L4.63674466,19.2717741 L4.40201718,27.6618155 L1.12150552,27.5727125 Z M19.0256172,27.4298818 C17.8238884,27.9639676 16.4817012,28.11132 15.1900251,27.8511925 L8.40318804,25.9757746 C7.63958106,25.7629914 6.82168157,25.8512965 6.1229015,26.2212733 L5.54053977,26.528213 L5.69666454,20.9498355 C7.54180044,19.741227 9.90852286,19.6170148 11.8738586,20.6253412 L12.2809175,20.8330708 C12.9923929,21.1948022 13.7773387,21.3945524 14.5776809,21.4171606 L18.5780414,21.52568 C19.7017078,21.5573316 20.6560139,22.3451614 20.8839886,23.4292918 L14.9253152,23.2678425 C14.6198184,23.2595971 14.3656429,23.4965844 14.3572694,23.7974067 C14.3488959,24.0982289 14.5895658,24.3487811 14.8950627,24.3570265 L21.4709422,24.5352324 L21.4866087,24.5352324 C21.7858929,24.5349664 22.0308846,24.300107 22.0392581,24.0054022 C22.0460109,23.768681 22.0279134,23.5316937 21.9857759,23.2986961 L26.4296605,21.2307093 L26.4426259,21.2245919 C27.0730675,20.9102047 27.835594,21.0152664 28.3539392,21.4879111 L19.0256172,27.4298818 Z" id="Shape"></path>
                </g>
            </g>
        </g>
    </g>
</svg>