<?xml version="1.0" encoding="UTF-8"?>
<svg width="52px" height="52px" viewBox="0 0 52 52" version="1.1" xmlns="http://www.w3.org/2000/svg" xmlns:xlink="http://www.w3.org/1999/xlink">
    <!-- Generator: Sketch 43.1 (39012) - http://www.bohemiancoding.com/sketch -->
    <title>трубы-цистерны</title>
    <desc>Created with Sketch.</desc>
    <defs></defs>
    <g id="Design" stroke="none" stroke-width="1" fill="none" fill-rule="evenodd">
        <g id="О-нас" transform="translate(-912.000000, -4374.000000)">
            <g id="трубы-цистерны" transform="translate(913.000000, 4375.000000)">
                <ellipse id="Oval-Copy-4" stroke="#509FAE" stroke-width="2" cx="25" cy="25" rx="25" ry="25"></ellipse>
                <g id="pipeline" transform="translate(9.000000, 9.000000)" fill-rule="nonzero" fill="#509FAE">
                    <path d="M7.90916129,2.83716129 C7.696,2.368 7.22529032,2.06451613 6.70967742,2.06451613 C6.19406452,2.06451613 5.72335484,2.368 5.51019355,2.83716129 L3.61290323,7.64387097 L3.61290323,8.25806452 C3.61290323,9.96593548 5.00180645,11.3548387 6.70967742,11.3548387 C8.41754839,11.3548387 9.80645161,9.96593548 9.80645161,8.23277419 C9.80645161,7.84206452 9.73367742,7.4596129 9.59070968,7.09574194 L7.90916129,2.83716129 Z M6.70967742,10.3225806 C5.57109677,10.3225806 4.64516129,9.39664516 4.64516129,8.25806452 L4.64516129,7.84 L6.45419355,3.25470968 C6.55174194,3.0596129 6.88929032,3.08696774 6.95948387,3.23974194 L8.63019355,7.47406452 C8.72567742,7.71716129 8.77419355,7.97212903 8.77419355,8.25806452 C8.77419355,9.39664516 7.84825806,10.3225806 6.70967742,10.3225806 L6.70967742,10.3225806 Z" id="Shape"></path>
                    <path d="M32,16.516129 L32,15.483871 C32,14.9145806 31.5370323,14.4516129 30.9677419,14.4516129 L30.9677419,7.74193548 C30.9677419,5.75019355 29.3465806,4.12903226 27.3548387,4.12903226 L24.7741935,4.12903226 C24.7741935,3.55974194 24.3112258,3.09677419 23.7419355,3.09677419 L22.7096774,3.09677419 C22.1403871,3.09677419 21.6774194,3.55974194 21.6774194,4.12903226 L18.5806452,4.12903226 C18.5806452,3.55974194 18.1176774,3.09677419 17.5483871,3.09677419 L16.516129,3.09677419 C15.9468387,3.09677419 15.483871,3.55974194 15.483871,4.12903226 L12.9016774,4.12903226 C11.8885161,1.70683871 9.49522581,0 6.70967742,0 C3.01006452,0 0,3.01006452 0,6.70967742 C0,10.4092903 3.01006452,13.4193548 6.70967742,13.4193548 C9.49522581,13.4193548 11.8885161,11.7125161 12.9016774,9.29032258 L15.483871,9.29032258 C15.483871,9.8596129 15.9468387,10.3225806 16.516129,10.3225806 L17.5483871,10.3225806 C18.1176774,10.3225806 18.5806452,9.8596129 18.5806452,9.29032258 L21.6774194,9.29032258 C21.6774194,9.8596129 22.1403871,10.3225806 22.7096774,10.3225806 L23.7419355,10.3225806 C24.3112258,10.3225806 24.7741935,9.8596129 24.7741935,9.29032258 L25.8064516,9.29032258 L25.8064516,14.4516129 C25.2371613,14.4516129 24.7741935,14.9145806 24.7741935,15.483871 L24.7741935,16.516129 C24.7741935,17.0854194 25.2371613,17.5483871 25.8064516,17.5483871 L25.8064516,18.5806452 L23.7419355,18.5806452 C23.7419355,18.0113548 23.2789677,17.5483871 22.7096774,17.5483871 L21.6774194,17.5483871 C21.108129,17.5483871 20.6451613,18.0113548 20.6451613,18.5806452 L18.0645161,18.5806452 L18.0645161,16.516129 L18.5806452,16.516129 C19.4343226,16.516129 20.1290323,15.8214194 20.1290323,14.9677419 C20.1290323,14.1140645 19.4343226,13.4193548 18.5806452,13.4193548 L18.0645161,13.4193548 C18.0645161,12.2807742 17.1385806,11.3548387 16,11.3548387 C14.8614194,11.3548387 13.9354839,12.2807742 13.9354839,13.4193548 L13.4193548,13.4193548 C12.5656774,13.4193548 11.8709677,14.1140645 11.8709677,14.9677419 C11.8709677,15.8214194 12.5656774,16.516129 13.4193548,16.516129 L13.9354839,16.516129 L13.9354839,18.5806452 L11.3548387,18.5806452 C11.3548387,18.0113548 10.891871,17.5483871 10.3225806,17.5483871 L9.29032258,17.5483871 C8.72103226,17.5483871 8.25806452,18.0113548 8.25806452,18.5806452 L5.67741935,18.5806452 C3.68567742,18.5806452 2.06451613,20.2018065 2.06451613,22.1935484 L2.06451613,25.8064516 C1.49522581,25.8064516 1.03225806,26.2694194 1.03225806,26.8387097 L1.03225806,27.8709677 C1.03225806,28.4402581 1.49522581,28.9032258 2.06451613,28.9032258 L2.06451613,32 L7.22580645,32 L7.22580645,28.9032258 C7.79509677,28.9032258 8.25806452,28.4402581 8.25806452,27.8709677 L8.25806452,26.8387097 C8.25806452,26.2694194 7.79509677,25.8064516 7.22580645,25.8064516 L7.22580645,23.7419355 L8.25806452,23.7419355 C8.25806452,24.3112258 8.72103226,24.7741935 9.29032258,24.7741935 L10.3225806,24.7741935 C10.891871,24.7741935 11.3548387,24.3112258 11.3548387,23.7419355 L20.6451613,23.7419355 C20.6451613,24.3112258 21.108129,24.7741935 21.6774194,24.7741935 L22.7096774,24.7741935 C23.2789677,24.7741935 23.7419355,24.3112258 23.7419355,23.7419355 L25.8064516,23.7419355 L25.8064516,25.8064516 C25.2371613,25.8064516 24.7741935,26.2694194 24.7741935,26.8387097 L24.7741935,27.8709677 C24.7741935,28.4402581 25.2371613,28.9032258 25.8064516,28.9032258 L25.8064516,32 L30.9677419,32 L30.9677419,28.9032258 C31.5370323,28.9032258 32,28.4402581 32,27.8709677 L32,26.8387097 C32,26.2694194 31.5370323,25.8064516 30.9677419,25.8064516 L30.9677419,17.5483871 C31.5370323,17.5483871 32,17.0854194 32,16.516129 Z M6.70967742,12.3870968 C3.57935484,12.3870968 1.03225806,9.84 1.03225806,6.70967742 C1.03225806,3.57935484 3.57935484,1.03225806 6.70967742,1.03225806 C9.84,1.03225806 12.3870968,3.57935484 12.3870968,6.70967742 C12.3870968,9.84 9.84,12.3870968 6.70967742,12.3870968 Z M13.232,8.25806452 C13.3501935,7.76 13.4193548,7.24335484 13.4193548,6.70967742 C13.4193548,6.176 13.3501935,5.65935484 13.232,5.16129032 L15.483871,5.16129032 L15.483871,8.25806452 L13.232,8.25806452 Z M16.516129,9.29032258 L16.516129,4.12903226 L17.5483871,4.12903226 L17.5494194,9.29032258 L16.516129,9.29032258 Z M18.5806452,8.25806452 L18.5806452,5.16129032 L21.6774194,5.16129032 L21.6774194,8.25806452 L18.5806452,8.25806452 Z M6.19354839,30.9677419 L3.09677419,30.9677419 L3.09677419,28.9032258 L6.19354839,28.9032258 L6.19354839,30.9677419 Z M7.22683871,27.8709677 L2.06451613,27.8709677 L2.06451613,26.8387097 L7.22580645,26.8387097 L7.22683871,27.8709677 Z M7.22580645,22.7096774 C6.65651613,22.7096774 6.19354839,23.1726452 6.19354839,23.7419355 L6.19354839,25.8064516 L3.09677419,25.8064516 L3.09677419,22.1935484 C3.09677419,20.7705806 4.25445161,19.6129032 5.67741935,19.6129032 L8.25806452,19.6129032 L8.25806452,22.7096774 L7.22580645,22.7096774 Z M16,12.3870968 C16.5692903,12.3870968 17.0322581,12.8500645 17.0322581,13.4193548 L14.9677419,13.4193548 C14.9677419,12.8500645 15.4307097,12.3870968 16,12.3870968 Z M12.9032258,14.9677419 C12.9032258,14.6828387 13.1344516,14.4516129 13.4193548,14.4516129 L18.5806452,14.4516129 C18.8655484,14.4516129 19.0967742,14.6828387 19.0967742,14.9677419 C19.0967742,15.2526452 18.8655484,15.483871 18.5806452,15.483871 L13.4193548,15.483871 C13.1344516,15.483871 12.9032258,15.2526452 12.9032258,14.9677419 Z M14.9677419,16.516129 L17.0322581,16.516129 L17.0322581,18.5806452 L14.9677419,18.5806452 L14.9677419,16.516129 Z M9.29032258,23.7419355 L9.29032258,18.5806452 L10.3225806,18.5806452 L10.3236129,23.7419355 L9.29032258,23.7419355 Z M11.3548387,22.7096774 L11.3548387,19.6129032 L20.6451613,19.6129032 L20.6451613,22.7096774 L11.3548387,22.7096774 Z M22.7096774,9.29032258 L22.7096774,4.12903226 L23.7419355,4.12903226 L23.7429677,9.29032258 L22.7096774,9.29032258 Z M25.8064516,8.25806452 L24.7741935,8.25806452 L24.7741935,5.16129032 L27.3548387,5.16129032 C28.7778065,5.16129032 29.9354839,6.31896774 29.9354839,7.74193548 L29.9354839,14.4516129 L26.8387097,14.4516129 L26.8387097,9.29032258 C26.8387097,8.72103226 26.3757419,8.25806452 25.8064516,8.25806452 Z M25.8064516,15.483871 L30.9677419,15.483871 L30.9687742,16.516129 L25.8064516,16.516129 L25.8064516,15.483871 Z M21.6774194,23.7419355 L21.6774194,18.5806452 L22.7096774,18.5806452 L22.7107097,23.7419355 L21.6774194,23.7419355 Z M23.7419355,22.7096774 L23.7419355,19.6129032 L25.8064516,19.6129032 L25.8064516,22.7096774 L23.7419355,22.7096774 Z M29.9354839,30.9677419 L26.8387097,30.9677419 L26.8387097,28.9032258 L29.9354839,28.9032258 L29.9354839,30.9677419 Z M30.9687742,27.8709677 L25.8064516,27.8709677 L25.8064516,26.8387097 L30.9677419,26.8387097 L30.9687742,27.8709677 Z M29.9354839,25.8064516 L26.8387097,25.8064516 L26.8387097,17.5483871 L29.9354839,17.5483871 L29.9354839,25.8064516 Z" id="Shape"></path>
                    <polygon id="Shape" points="27.8709677 19.6129032 28.9032258 19.6129032 28.9032258 20.6451613 27.8709677 20.6451613"></polygon>
                    <polygon id="Shape" points="27.8709677 23.7419355 28.9032258 23.7419355 28.9032258 24.7741935 27.8709677 24.7741935"></polygon>
                    <polygon id="Shape" points="27.8709677 21.6774194 28.9032258 21.6774194 28.9032258 22.7096774 27.8709677 22.7096774"></polygon>
                    <polygon id="Shape" points="16.516129 20.6451613 17.5483871 20.6451613 17.5483871 21.6774194 16.516129 21.6774194"></polygon>
                    <polygon id="Shape" points="12.3870968 20.6451613 13.4193548 20.6451613 13.4193548 21.6774194 12.3870968 21.6774194"></polygon>
                    <polygon id="Shape" points="14.4516129 20.6451613 15.483871 20.6451613 15.483871 21.6774194 14.4516129 21.6774194"></polygon>
                    <polygon id="Shape" points="27.8709677 12.3870968 28.9032258 12.3870968 28.9032258 13.4193548 27.8709677 13.4193548"></polygon>
                    <polygon id="Shape" points="27.8709677 8.25806452 28.9032258 8.25806452 28.9032258 9.29032258 27.8709677 9.29032258"></polygon>
                    <polygon id="Shape" points="27.8709677 10.3225806 28.9032258 10.3225806 28.9032258 11.3548387 27.8709677 11.3548387"></polygon>
                </g>
            </g>
        </g>
    </g>
</svg>