<?xml version="1.0" encoding="UTF-8"?>
<svg width="52px" height="52px" viewBox="0 0 52 52" version="1.1" xmlns="http://www.w3.org/2000/svg" xmlns:xlink="http://www.w3.org/1999/xlink">
    <!-- Generator: Sketch 43.1 (39012) - http://www.bohemiancoding.com/sketch -->
    <title>фундаменты-с-температурным-режимом</title>
    <desc>Created with Sketch.</desc>
    <defs></defs>
    <g id="Design" stroke="none" stroke-width="1" fill="none" fill-rule="evenodd">
        <g id="О-нас" transform="translate(-484.000000, -4374.000000)">
            <g id="фундаменты-с-температурным-режимом" transform="translate(485.000000, 4375.000000)">
                <g id="cold" transform="translate(11.000000, 8.000000)" fill-rule="nonzero" fill="#509FAE">
                    <path d="M26.8678609,11.4459229 L23.9023622,11.4459229 C23.6201618,11.4459229 23.391207,11.6755676 23.391207,11.9586182 C23.391207,12.2416687 23.6201618,12.4713135 23.9023622,12.4713135 L26.8678609,12.4713135 C27.1500612,12.4713135 27.3790161,12.2416687 27.3790161,11.9586182 C27.3790161,11.6755676 27.1500612,11.4459229 26.8678609,11.4459229 L26.8678609,11.4459229 Z" id="Shape"></path>
                    <path d="M23.9023622,8.3160782 L25.2486704,8.3160782 C25.5311369,8.3160782 25.7598256,8.08643343 25.7598256,7.80338289 C25.7598256,7.52006527 25.5311369,7.29068758 25.2486704,7.29068758 L23.9023622,7.29068758 C23.6201618,7.29068758 23.391207,7.52006527 23.391207,7.80338289 C23.391207,8.08643343 23.6201618,8.3160782 23.9023622,8.3160782 L23.9023622,8.3160782 Z" id="Shape"></path>
                    <path d="M23.9023622,4.16057585 L25.7260148,4.16057585 C26.008215,4.16057585 26.23717,3.93119809 26.23717,3.64788054 C26.23717,3.36483 26.008215,3.13518522 25.7260148,3.13518522 L23.9023622,3.13518522 C23.6201618,3.13518522 23.391207,3.36483 23.391207,3.64788054 C23.391207,3.93119809 23.6201618,4.16057585 23.9023622,4.16057585 Z" id="Shape"></path>
                    <path d="M25.7260148,19.7566605 L23.9023622,19.7566605 C23.6201618,19.7566605 23.391207,19.9860382 23.391207,20.2693558 C23.391207,20.5524063 23.6201618,20.7820511 23.9023622,20.7820511 L25.7260148,20.7820511 C26.008215,20.7820511 26.23717,20.5524063 26.23717,20.2693558 C26.23717,19.9860382 26.008215,19.7566605 25.7260148,19.7566605 Z" id="Shape"></path>
                    <path d="M23.9023622,16.6265487 L25.2486704,16.6265487 C25.5311369,16.6265487 25.7598256,16.3971711 25.7598256,16.1138534 C25.7598256,15.8308029 25.5311369,15.6011581 25.2486704,15.6011581 L23.9023622,15.6011581 C23.6201618,15.6011581 23.391207,15.8308029 23.391207,16.1138534 C23.391207,16.3971711 23.6201618,16.6265487 23.9023622,16.6265487 L23.9023622,16.6265487 Z" id="Shape"></path>
                    <path d="M8.66301557,11.1294937 C9.50855145,11.5823746 9.55940076,11.6849137 9.78436227,11.6849137 C10.3104262,11.6849137 10.4917265,10.9815597 10.0346153,10.7246781 L9.16219058,10.2349472 L9.8037968,9.9713898 C10.0649652,9.86404419 10.1900917,9.56443783 10.0830685,9.30248259 C9.97604547,9.04052734 9.67760539,8.91529085 9.41643699,9.02236938 L8.02274047,9.59487915 L6.19429575,8.56788639 L8.02274047,7.54089355 C9.4558386,8.11607357 9.43400798,8.15185547 9.60998379,8.15185547 C10.1682611,8.15185547 10.3205428,7.37693783 9.8037968,7.16464998 L9.16245679,6.90109253 L10.0346153,6.41109465 C10.280875,6.27304077 10.368996,5.96035002 10.2310906,5.71334839 C10.0931852,5.46634676 9.78170004,5.37822722 9.53517411,5.51654817 L8.66301557,6.00627897 L8.77429835,5.32001497 C8.81955685,5.0407028 8.63026967,4.77714535 8.35153034,4.73175049 C8.0733235,4.68635562 7.81029156,4.87594604 7.76503306,5.15552522 L7.52356546,6.64634701 L5.65918013,7.69336702 L5.65918013,5.55019377 L6.83803179,4.61051937 C7.05899995,4.43428043 7.0957392,4.11197664 6.92029581,3.89007568 C6.74458628,3.66844174 6.42298447,3.6315918 6.20201631,3.80783081 L5.65918013,4.24041748 L5.65918013,3.23772429 C5.65918013,2.95467375 5.43049148,2.72502897 5.14802494,2.72502897 C4.86582468,2.72502897 4.63686975,2.95467375 4.63686975,3.23772429 L4.63686975,4.24041748 L4.09429985,3.80783081 C3.87333168,3.6315918 3.55172988,3.66844174 3.37602028,3.8903427 C3.20031068,4.11197664 3.23705,4.43428043 3.45828437,4.61051937 L4.63686975,5.55046078 L4.63686975,7.69336702 L2.7727507,6.64634701 L2.53101689,5.15552522 C2.48575832,4.87594604 2.22325887,4.68635562 1.94451954,4.73175049 C1.66604641,4.77714535 1.47675931,5.0407028 1.52201781,5.32001497 L1.63330059,6.00627897 L0.760875765,5.51654817 C0.51461612,5.37822722 0.20313096,5.46634676 0.0652255151,5.71334839 C-0.0726798616,5.96035002 0.0151749027,6.27304077 0.261434616,6.41109465 L1.13385937,6.90109253 L0.49225308,7.16464998 C0.231084742,7.27199553 0.106224455,7.5713348 0.212981329,7.83355713 C0.320270691,8.09577945 0.618976971,8.22074887 0.8798791,8.11367033 L2.27330948,7.54116057 L4.10175419,8.5681534 L2.27330948,9.59487915 L0.8798791,9.02236938 C0.618444552,8.91529085 0.320004413,9.04052734 0.212981329,9.30274967 C0.105958245,9.56470491 0.231084742,9.86404419 0.49225308,9.9713898 L1.13385937,10.2349472 L0.261434616,10.7249451 C-0.195676613,10.9815597 -0.014109996,11.6849137 0.51168761,11.6849137 C0.73664919,11.6849137 0.788030918,11.5821076 1.63330059,11.1294937 L1.52201781,11.8160247 C1.47143478,12.1279144 1.71157119,12.410965 2.02731605,12.410965 C2.27330948,12.410965 2.49028416,12.2320557 2.53101689,11.9805145 L2.7727507,10.4896927 L4.63686975,9.4426727 L4.63686975,11.5855789 L3.45828437,12.5255203 C3.23705,12.7014923 3.20031068,13.0240631 3.37602028,13.245697 C3.55172988,13.467598 3.87333168,13.5044479 4.09429985,13.3282089 L4.63686975,12.8956222 L4.63686975,13.8983154 C4.63686975,14.181366 4.86582468,14.4110107 5.14802494,14.4110107 C5.43049148,14.4110107 5.65918013,14.181366 5.65918013,13.8983154 L5.65918013,12.8956222 C6.13120005,13.2384872 6.2328986,13.4395599 6.5196247,13.4395599 C7.00149499,13.4392929 7.21687234,12.8272629 6.83803179,12.5255203 L5.65918013,11.5855789 L5.65918013,9.4426727 L7.52356546,10.4896927 L7.76503306,11.9805145 C7.80576572,12.2320557 8.02274047,12.410965 8.26900011,12.410965 C8.58527738,12.410965 8.82461517,12.1271134 8.77429835,11.8160247 L8.66301557,11.1294937 Z" id="Shape"></path>
                    <path d="M21.6830967,21.1780548 L21.6830967,4.63748934 C21.6830967,2.08042146 19.609191,0 17.0598045,0 C14.510418,0 12.436246,2.08042146 12.436246,4.63748934 L12.436246,21.1780548 C10.526336,22.6290894 9.39407402,24.9015046 9.39407402,27.3111725 C9.39407402,31.5507889 12.8329238,35 17.0598045,35 C21.2866852,35 24.7255349,31.5507889 24.7255349,27.3111725 C24.7255349,24.9015046 23.593273,22.6290894 21.6830967,21.1780548 Z M17.0598045,33.9746094 C13.3965256,33.9746094 10.4163844,30.9854889 10.4163844,27.3111725 C10.4163844,25.1450348 11.4725055,23.1062699 13.2415817,21.8579102 C13.3776235,21.7617798 13.4585564,21.6053009 13.4585564,21.4384079 L13.4585564,4.63748934 C13.4585564,2.64572144 15.0740198,1.02539062 17.0598045,1.02539062 C19.0453229,1.02539062 20.6607863,2.64572144 20.6607863,4.63748934 L20.6607863,21.4384079 C20.6607863,21.6053009 20.7417192,21.7617798 20.877761,21.8579102 C22.6471034,23.1065369 23.7032246,25.1450348 23.7032246,27.3111725 C23.7032246,30.9854889 20.7228171,33.9746094 17.0598045,33.9746094 L17.0598045,33.9746094 Z" id="Shape"></path>
                    <path d="M19.2971733,22.1940994 L19.2971733,4.63748934 C19.2971733,3.39981079 18.2934988,2.39311215 17.0598045,2.39311215 C15.8261102,2.39311215 14.8221694,3.39981079 14.8221694,4.63748934 L14.8221694,6.22497559 C14.8221694,6.50802612 15.0511243,6.7376709 15.3333246,6.7376709 C15.6157911,6.7376709 15.8444798,6.50802612 15.8444798,6.22497559 L15.8444798,4.63748934 C15.8444798,3.96537777 16.389712,3.41850277 17.0598045,3.41850277 C17.729897,3.41850277 18.274863,3.96537777 18.274863,4.63748934 L18.274863,19.8306274 L15.8444798,19.8306274 L15.8444798,8.28056332 C15.8444798,7.99724577 15.6157911,7.76786801 15.3333246,7.76786801 C15.0511243,7.76786801 14.8221694,7.99724577 14.8221694,8.28056332 L14.8221694,22.1940994 C12.8853704,23.0696869 11.6074824,25.0299454 11.6074824,27.1808625 C11.6074824,30.1964188 14.0533068,32.6496125 17.0595383,32.6496125 C20.0660359,32.6496125 22.5118603,30.1964188 22.5118603,27.1808625 C22.5121265,25.0299454 21.2339723,23.0696869 19.2971733,22.1940994 L19.2971733,22.1940994 Z M17.0598045,31.6242218 C14.6169086,31.6242218 12.6297928,29.6311188 12.6297928,27.1808625 C12.6297928,25.3351593 13.7878788,23.6619568 15.5119626,23.0178833 C15.7118989,22.9431152 15.844746,22.7513885 15.844746,22.5374985 L15.844746,20.8560181 L18.274863,20.8560181 L18.274863,22.5374985 C18.274863,22.7513885 18.4077101,22.9431152 18.6076463,23.0178833 C20.3317301,23.6619568 21.4898161,25.3348923 21.4898161,27.1808625 C21.4898161,29.6311188 19.5024341,31.6242218 17.0598045,31.6242218 Z" id="Shape"></path>
                </g>
                <ellipse id="Oval-Copy-4" stroke="#509FAE" stroke-width="2" cx="25" cy="25" rx="25" ry="25"></ellipse>
            </g>
        </g>
    </g>
</svg>