<?xml version="1.0" encoding="UTF-8"?>
<svg width="52px" height="52px" viewBox="0 0 52 52" version="1.1" xmlns="http://www.w3.org/2000/svg" xmlns:xlink="http://www.w3.org/1999/xlink">
    <!-- Generator: Sketch 43.1 (39012) - http://www.bohemiancoding.com/sketch -->
    <title>холодильные-камеры</title>
    <desc>Created with Sketch.</desc>
    <defs></defs>
    <g id="Design" stroke="none" stroke-width="1" fill="none" fill-rule="evenodd">
        <g id="О-нас" transform="translate(-1154.000000, -4374.000000)">
            <g id="холодильные-камеры" transform="translate(1155.000000, 4375.000000)">
                <g id="cold-room" transform="translate(9.000000, 11.000000)" fill-rule="nonzero" fill="#509FAE">
                    <path d="M32.5153786,25.6471882 C32.2483593,25.6471882 32.0319983,25.8667314 32.0319983,26.1376779 L32.0319983,27.5001278 L15.7581964,27.5001278 L15.7581964,10.332985 C15.7581964,10.0620384 15.5417709,9.8424952 15.2748161,9.8424952 L4.31819696,9.8424952 C4.05124215,9.8424952 3.8348167,10.0620384 3.8348167,10.332985 L3.8348167,27.5001278 L0.966760512,27.5001278 L0.966760512,9.3956263 C0.966760512,9.12467974 0.750335059,8.90513651 0.483380256,8.90513651 C0.216425453,8.90513651 0,9.12467974 0,9.3956263 L0,27.9906176 C0,28.2615642 0.216425453,28.4811074 0.483380256,28.4811074 L32.5153786,28.4811074 C32.7823978,28.4811074 32.9987588,28.2615642 32.9987588,27.9906176 L32.9987588,26.1376779 C32.9987588,25.8667314 32.7823978,25.6471882 32.5153786,25.6471882 Z M4.80157721,27.5001278 L4.80157721,10.8234748 L14.7914358,10.8234748 L14.7914358,27.5001278 L4.80157721,27.5001278 Z" id="Shape"></path>
                    <path d="M32.5153786,0.0326993196 L6.12281658,0.0326993196 C5.85586178,0.0326993196 5.63943632,0.252242552 5.63943632,0.523189114 C5.63943632,0.794135676 5.85586178,1.01367891 6.12281658,1.01367891 L32.0319983,1.01367891 L32.0319983,4.61060407 L0.966760512,4.61060407 L0.966760512,1.01367891 L4.10338277,1.01367891 C4.37033757,1.01367891 4.58676303,0.794135676 4.58676303,0.523189114 C4.58676303,0.252242552 4.37033757,0.0326993196 4.10338277,0.0326993196 L0.483380256,0.0326993196 C0.216425453,0.0326993196 0,0.252242552 0,0.523189114 L0,7.31372602 C0,7.58467258 0.216425453,7.80421582 0.483380256,7.80421582 C0.750335059,7.80421582 0.966760512,7.58467258 0.966760512,7.31372602 L0.966760512,5.59158365 L18.5311878,5.59158365 L18.5311878,14.7800925 C18.5311878,15.051039 18.7475488,15.2705823 19.014568,15.2705823 L28.5532717,15.2705823 C28.820291,15.2705823 29.036652,15.051039 29.036652,14.7800925 L29.036652,5.59158365 L32.0319983,5.59158365 L32.0319983,24.0557777 C32.0319983,24.3267242 32.2483593,24.5462675 32.5153786,24.5462675 C32.7823978,24.5462675 32.9987588,24.3267242 32.9987588,24.0557777 L32.9987588,0.523189114 C32.9987588,0.252242552 32.7823978,0.0326993196 32.5153786,0.0326993196 Z M28.0698915,14.2896027 L19.4979483,14.2896027 L19.4979483,13.0470285 L28.0698915,13.0470285 L28.0698915,14.2896027 Z M28.0698915,12.0660489 L19.4979483,12.0660489 L19.4979483,5.59158365 L28.0698915,5.59158365 L28.0698915,12.0660489 Z" id="Shape"></path>
                    <path d="M21.333182,7.52202069 L26.489238,7.52202069 C26.7562573,7.52202069 26.9726183,7.30247746 26.9726183,7.03153089 C26.9726183,6.76058433 26.7562573,6.5410411 26.489238,6.5410411 L21.333182,6.5410411 C21.0661627,6.5410411 20.8498017,6.76058433 20.8498017,7.03153089 C20.8498017,7.30247746 21.0661627,7.52202069 21.333182,7.52202069 Z" id="Shape"></path>
                    <path d="M21.333182,9.28778395 L26.489238,9.28778395 C26.7562573,9.28778395 26.9726183,9.06824071 26.9726183,8.79729415 C26.9726183,8.52634759 26.7562573,8.30680436 26.489238,8.30680436 L21.333182,8.30680436 C21.0661627,8.30680436 20.8498017,8.52634759 20.8498017,8.79729415 C20.8498017,9.06824071 21.0661627,9.28778395 21.333182,9.28778395 Z" id="Shape"></path>
                    <path d="M21.333182,11.0535472 L26.489238,11.0535472 C26.7562573,11.0535472 26.9726183,10.834004 26.9726183,10.5630574 C26.9726183,10.2921108 26.7562573,10.0725676 26.489238,10.0725676 L21.333182,10.0725676 C21.0661627,10.0725676 20.8498017,10.2921108 20.8498017,10.5630574 C20.8498017,10.834004 21.0661627,11.0535472 21.333182,11.0535472 Z" id="Shape"></path>
                    <path d="M11.4722247,9.18850881 C12.2718646,9.18850881 12.9223655,8.52837495 12.9223655,7.71703943 C12.9223655,6.90570391 12.2718646,6.24557005 11.4722247,6.24557005 L8.1207883,6.24557005 C7.32114846,6.24557005 6.67064754,6.90570391 6.67064754,7.71703943 C6.67064754,8.52837495 7.32114846,9.18850881 8.1207883,9.18850881 L11.4722247,9.18850881 Z M7.63740805,7.71703943 C7.63740805,7.44655066 7.85422021,7.22654964 8.1207883,7.22654964 L11.4722247,7.22654964 C11.7387928,7.22654964 11.955605,7.44655066 11.955605,7.71703943 C11.955605,7.9875282 11.7387928,8.20752922 11.4722247,8.20752922 L8.1207883,8.20752922 C7.85422021,8.20752922 7.63740805,7.9875282 7.63740805,7.71703943 Z" id="Shape"></path>
                    <path d="M13.2631164,15.9211025 C13.0327051,15.784354 12.736683,15.8629631 12.6018522,16.0968287 L12.1356803,16.9055482 L10.9635798,16.9055482 L11.9884104,15.8656445 C12.1771865,15.6740265 12.1771865,15.3635137 11.9884104,15.1719611 C11.7996343,14.9804739 11.4935579,14.9804739 11.3048463,15.1719611 L10.2798868,16.2118649 L10.2798868,15.0225252 L11.0768197,14.5494969 C11.3072954,14.4127483 11.3848296,14.1122416 11.2499987,13.8784414 C11.1152323,13.6446413 10.8190169,13.5660321 10.5887345,13.7027153 L9.79650653,14.1729969 L9.00427851,13.7027807 C8.77406061,13.5660321 8.47778074,13.6446413 8.34301432,13.8785068 C8.20818345,14.112307 8.28571765,14.4128137 8.51619335,14.5495623 L9.31312627,15.0225906 L9.31312627,16.2119303 L8.28829568,15.1720265 C8.09958402,14.9806047 7.79350765,14.9804739 7.60473154,15.1720265 C7.41595544,15.3636445 7.41595544,15.6741573 7.60473154,15.8657099 L8.62956214,16.9056136 L7.45746169,16.9056136 L6.99128977,16.0968941 C6.85652336,15.8631593 6.56037239,15.7844194 6.33002558,15.9211679 C6.09954988,16.0579165 6.02201568,16.3583578 6.15684655,16.5922234 L6.62024709,17.3961034 L6.15684655,18.1999835 C6.02201568,18.433849 6.09954988,18.7342904 6.33002558,18.8710389 C6.40672192,18.9165564 6.49070118,18.9382033 6.57364923,18.9382033 C6.73973869,18.9382033 6.90138104,18.8512886 6.99128977,18.6953128 L7.45746169,17.8865932 L8.62956214,17.8865932 L7.60473154,18.926497 C7.41595544,19.118115 7.41595544,19.4286277 7.60473154,19.6201804 C7.69908737,19.715924 7.82283271,19.7637958 7.94651361,19.7637958 C8.0701945,19.7637958 8.19393985,19.715924 8.28829568,19.6201804 L9.31312627,18.5802766 L9.31312627,19.7696162 L8.51619335,20.2426446 C8.28571765,20.3793932 8.20818345,20.6798999 8.34301432,20.9137 C8.47778074,21.1475002 8.77393171,21.2261747 9.00427851,21.0894262 L9.79650653,20.61921 L10.5887345,21.0894262 C10.6654309,21.1349436 10.7494101,21.1565906 10.8323582,21.1565906 C10.9984476,21.1565906 11.16009,21.0696758 11.2499987,20.9137 C11.3848296,20.6798999 11.3072954,20.3793932 11.0768197,20.2426446 L10.2798868,19.7696162 L10.2798868,18.5802766 L11.3047174,19.6201804 C11.3990732,19.715924 11.5228185,19.7637958 11.6464994,19.7637958 C11.7701803,19.7637958 11.8939257,19.715924 11.9882815,19.6201804 C12.1770576,19.4285623 12.1770576,19.1180496 11.9882815,18.926497 L10.9635154,17.8865278 L12.1356158,17.8865278 L12.6017877,18.6952474 C12.6916965,18.8512232 12.8533388,18.9381379 13.0194283,18.9381379 C13.1023119,18.9381379 13.1863556,18.916491 13.2630519,18.8709735 C13.4935276,18.734225 13.5710618,18.4337836 13.436231,18.1999181 L12.9728949,17.396038 L13.4362954,16.592158 C13.5710618,16.3582924 13.4935276,16.0578511 13.2631164,15.9211025 Z" id="Shape"></path>
                </g>
                <ellipse id="Oval-Copy-4" stroke="#509FAE" stroke-width="2" cx="25" cy="25" rx="25" ry="25"></ellipse>
            </g>
        </g>
    </g>
</svg>