<?xml version="1.0" encoding="UTF-8"?>
<svg width="52px" height="52px" viewBox="0 0 52 52" version="1.1" xmlns="http://www.w3.org/2000/svg" xmlns:xlink="http://www.w3.org/1999/xlink">
    <!-- Generator: Sketch 43.1 (39012) - http://www.bohemiancoding.com/sketch -->
    <title>шумоизоляция</title>
    <desc>Created with Sketch.</desc>
    <defs></defs>
    <g id="Design" stroke="none" stroke-width="1" fill="none" fill-rule="evenodd">
        <g id="О-нас" transform="translate(-282.000000, -3252.000000)">
            <g id="шумоизоляция" transform="translate(283.000000, 3253.000000)">
                <ellipse id="Oval-Copy-4" stroke="#509FAE" stroke-width="2" cx="25" cy="25" rx="25" ry="25"></ellipse>
                <g transform="translate(8.000000, 9.000000)" fill-rule="nonzero" fill="#509FAE">
                    <path d="M32.4044531,5.47477734 C32.0755488,5.47477734 31.8089062,5.74141992 31.8089062,6.07032422 L31.8089062,31.8088418 L27.0468516,31.8088418 L27.0468516,30.4677656 L29.8970332,30.4677656 C30.2259375,30.4677656 30.4925801,30.201123 30.4925801,29.8722188 L30.4925801,19.3418672 C30.4925801,19.0129629 30.2259375,18.7463203 29.8970332,18.7463203 L27.352166,18.7463203 L27.352166,17.4300586 L29.8970332,17.4300586 C30.2259375,17.4300586 30.4925801,17.163416 30.4925801,16.8345117 L30.4925801,3.07815234 C30.4925801,2.74924805 30.2259375,2.48260547 29.8970332,2.48260547 L17.7536777,2.48260547 C17.4247734,2.48260547 17.1581309,2.74924805 17.1581309,3.07815234 L17.1581309,11.7050742 L15.8418047,11.7050742 L15.8418047,3.07815234 C15.8418047,2.74924805 15.5751621,2.48260547 15.2462578,2.48260547 L3.1029668,2.48260547 C2.7740625,2.48260547 2.50741992,2.74924805 2.50741992,3.07815234 L2.50741992,14.2829414 L2.50741992,16.8344473 C2.50741992,17.1633516 2.7740625,17.4299941 3.1029668,17.4299941 L5.25647461,17.4299941 C5.58537891,17.4299941 5.85202148,17.1633516 5.85202148,16.8344473 C5.85202148,16.505543 5.58537891,16.2389004 5.25647461,16.2389004 L3.69851367,16.2389004 L3.69851367,14.8784883 L6.2257207,14.8784883 C8.33262891,14.8784883 10.0466953,13.1644219 10.0466953,11.0575781 L10.0466953,3.67369922 L14.6507109,3.67369922 L14.6507109,12.3006211 C14.6507109,12.6295254 14.9173535,12.896168 15.2462578,12.896168 L17.7536777,12.896168 C18.082582,12.896168 18.3492246,12.6295254 18.3492246,12.3006211 L18.3492246,3.67369922 L29.3014219,3.67369922 L29.3014219,5.20587891 L27.7287012,5.20587891 C27.3997969,5.20587891 27.1331543,5.47252148 27.1331543,5.80142578 L27.1331543,13.980334 C27.1331543,14.3092383 27.3997969,14.5758809 27.7287012,14.5758809 L29.3014219,14.5758809 L29.3014219,16.2389004 L26.7565547,16.2389004 C26.4276504,16.2389004 26.1610078,16.505543 26.1610078,16.8344473 L26.1610078,19.3418027 C26.1610078,19.670707 26.4276504,19.9373496 26.7565547,19.9373496 L29.3014219,19.9373496 L29.3014219,29.2766074 L26.4511758,29.2766074 C26.1222715,29.2766074 25.8556289,29.54325 25.8556289,29.8721543 L25.8556289,32.4043887 C25.8556289,32.733293 26.1222715,32.9999355 26.4511758,32.9999355 L32.4042598,32.9999355 C32.7331641,32.9999355 32.9998066,32.733293 32.9998066,32.4043887 L32.9998066,6.07032422 C33,5.74141992 32.7333574,5.47477734 32.4044531,5.47477734 Z M8.85566602,11.0575781 L8.85560156,11.0575781 C8.85560156,12.5076445 7.67585156,13.6873945 6.2257207,13.6873945 L3.69851367,13.6873945 L3.69851367,3.67369922 L4.13305664,3.67369922 L4.13305664,4.05867773 C4.13305664,4.38758203 4.39969922,4.65422461 4.72860352,4.65422461 C5.05750781,4.65422461 5.32415039,4.38758203 5.32415039,4.05867773 L5.32415039,3.67369922 L5.68147852,3.67369922 L5.68147852,5.24977148 C5.68147852,5.57867578 5.94812109,5.84531836 6.27702539,5.84531836 C6.60592969,5.84531836 6.87257227,5.57867578 6.87257227,5.24977148 L6.87257227,3.67369922 L7.22990039,3.67369922 L7.22990039,4.05867773 C7.22990039,4.38758203 7.49654297,4.65422461 7.82544727,4.65422461 C8.15435156,4.65422461 8.42099414,4.38758203 8.42099414,4.05867773 L8.42099414,3.67369922 L8.85560156,3.67369922 L8.85560156,11.0575781 L8.85566602,11.0575781 Z M29.3014863,13.3848516 L28.3243125,13.3848516 L28.3243125,6.39697266 L29.3014863,6.39697266 L29.3014863,13.3848516 Z" id="Shape"></path>
                    <path d="M32.4044531,6.44531251e-05 L0.595546875,6.44531251e-05 C0.266642578,6.44531251e-05 0,0.266707031 0,0.595611328 L0,32.4044531 C0,32.7333574 0.266642578,33 0.595546875,33 L21.654252,33 C21.9831563,33 22.2497988,32.7333574 22.2497988,32.4044531 L22.2497988,29.8722188 C22.2497988,29.5433145 21.9831563,29.2766719 21.654252,29.2766719 L18.3492246,29.2766719 L18.3492246,23.4786621 C18.3492246,23.1497578 18.082582,22.8831152 17.7536777,22.8831152 L15.2462578,22.8831152 C14.9173535,22.8831152 14.6507109,23.1497578 14.6507109,23.4786621 L14.6507109,29.2766719 L3.69851367,29.2766719 L3.69851367,27.9120703 L5.50945313,27.9120703 C6.06909961,27.9120703 6.56364844,27.6300234 6.85993945,27.200959 C7.37788477,27.4693418 7.97304492,27.6130723 8.59824023,27.6130723 C10.4559082,27.6130723 11.9672695,26.3145352 11.9672695,24.718418 C11.9672695,24.2444941 11.8316602,23.774502 11.5751367,23.3592305 C11.4023379,23.0795039 11.0352773,22.9926211 10.7554863,23.1655488 C10.4756309,23.3384121 10.3889414,23.7053438 10.5618047,23.9851992 C10.7040527,24.2154902 10.7761113,24.4621523 10.7761113,24.718418 C10.7761113,25.6576934 9.79906641,26.4219141 8.59824023,26.4219141 C8.06237695,26.4219141 7.54823438,26.2650352 7.15017188,25.9862754 L7.15017188,23.4504961 C7.54823438,23.1718008 8.06237695,23.0148574 8.59824023,23.0148574 C8.94499805,23.0148574 9.27654492,23.0774414 9.58366406,23.2007402 C9.8887207,23.3233301 10.2356719,23.1751523 10.3581973,22.8699023 C10.4807227,22.5646523 10.3326094,22.2178945 10.0273594,22.0953691 C9.57844336,21.9150938 9.0976875,21.8236992 8.59811133,21.8236992 C7.97285156,21.8236992 7.3775625,21.9674297 6.85942383,22.2360059 C6.56313281,21.8072637 6.06877734,21.5254102 5.50925977,21.5254102 L3.69851367,21.5254102 L3.69851367,19.9372852 L20.1358652,19.9372852 C20.4647695,19.9372852 20.7314121,19.6706426 20.7314121,19.3417383 L20.7314121,16.8343828 C20.7314121,16.5054785 20.4647695,16.2388359 20.1358652,16.2388359 L7.16222461,16.2388359 C6.83332031,16.2388359 6.56667773,16.5054785 6.56667773,16.8343828 C6.56667773,17.1632871 6.83332031,17.4299297 7.16222461,17.4299297 L19.5403828,17.4299297 L19.5403828,18.7461914 L3.1029668,18.7461914 C2.7740625,18.7461914 2.50741992,19.012834 2.50741992,19.3417383 L2.50741992,29.8721543 C2.50741992,30.2010586 2.7740625,30.4677012 3.1029668,30.4677012 L15.2463223,30.4677012 C15.5752266,30.4677012 15.8418691,30.2010586 15.8418691,29.8721543 L15.8418691,24.0741445 L17.1581953,24.0741445 L17.1581953,29.8721543 C17.1581953,30.2010586 17.4248379,30.4677012 17.7537422,30.4677012 L21.0587695,30.4677012 L21.0587695,31.8087773 L1.19109375,31.8087773 L1.19109375,1.1911582 L31.8089063,1.1911582 L31.8089063,3.9528457 C31.8089063,4.28175 32.0755488,4.54839258 32.4044531,4.54839258 C32.7333574,4.54839258 33,4.28175 33,3.9528457 L33,0.595611328 C33,0.266707031 32.7333574,6.44531251e-05 32.4044531,6.44531251e-05 Z M3.69851367,22.7167617 L5.50945312,22.7167617 L5.50945312,22.7166973 C5.75746875,22.7166973 5.95914258,22.9183711 5.95914258,23.1663867 L5.95914258,26.2713516 C5.95914258,26.5192383 5.75746875,26.721041 5.50945312,26.721041 L3.69851367,26.721041 L3.69851367,22.7167617 Z" id="Shape"></path>
                    <path d="M24.894375,5.20587891 L20.4977051,5.20587891 C20.1688008,5.20587891 19.9021582,5.47252148 19.9021582,5.80142578 L19.9021582,13.980334 C19.9021582,14.3092383 20.1688008,14.5758809 20.4977051,14.5758809 L24.894375,14.5758809 C25.2232793,14.5758809 25.4899219,14.3092383 25.4899219,13.980334 L25.4899219,12.0348809 L25.4899219,7.74687891 L25.4899219,5.80142578 C25.4899219,5.47252148 25.2232793,5.20587891 24.894375,5.20587891 Z M24.2988281,11.439334 L23.1628418,11.439334 L23.1628418,8.34242578 L24.2988281,8.34242578 L24.2988281,11.439334 Z M24.2988281,7.15133203 L22.5672949,7.15133203 C22.2383906,7.15133203 21.971748,7.41797461 21.971748,7.74687891 L21.971748,12.0348809 C21.971748,12.3637852 22.2383906,12.6304277 22.5672949,12.6304277 L24.2988281,12.6304277 L24.2988281,13.3847871 L21.093252,13.3847871 L21.093252,6.39697266 L24.2988281,6.39697266 L24.2988281,7.15133203 Z" id="Shape"></path>
                    <ellipse id="Oval" cx="8.43220898" cy="24.7186758" rx="1" ry="1"></ellipse>
                    <ellipse id="Oval" cx="6.2771543" cy="11.5228008" rx="1" ry="1"></ellipse>
                </g>
            </g>
        </g>
    </g>
</svg>