<?xml version="1.0" encoding="UTF-8"?>
<svg width="52px" height="52px" viewBox="0 0 52 52" version="1.1" xmlns="http://www.w3.org/2000/svg" xmlns:xlink="http://www.w3.org/1999/xlink">
    <!-- Generator: Sketch 43.1 (39012) - http://www.bohemiancoding.com/sketch -->
    <title>экологичность</title>
    <desc>Created with Sketch.</desc>
    <defs></defs>
    <g id="Design" stroke="none" stroke-width="1" fill="none" fill-rule="evenodd">
        <g id="О-нас" transform="translate(-169.000000, -3223.000000)">
            <g id="экологичность" transform="translate(170.000000, 3224.000000)">
                <ellipse id="Oval-Copy-4" stroke="#509FAE" stroke-width="2" cx="25" cy="25" rx="25" ry="25"></ellipse>
                <g id="008-growth" transform="translate(6.000000, 7.000000)" fill-rule="nonzero" fill="#509FAE">
                    <path d="M18.8703386,35.741992 C17.5468004,35.741992 16.2239708,35.4793115 14.9989185,34.9546482 L9.14112845,32.4471482 C7.02190854,31.5394527 4.78117542,30.9645557 2.48127983,30.738155 L0.557614902,30.5487321 C0.240900955,30.5176848 0,30.2553531 0,29.9420901 L0,24.000208 C0,23.8683445 0.0435747542,23.7399694 0.123993184,23.6346182 C0.267825179,23.4451951 3.71554296,19.009976 8.9820629,20.1639562 C11.9440819,20.8121108 14.3290014,22.0250459 15.8080624,22.9285553 C16.8818429,23.5843844 18.1405505,23.9307878 19.4481466,23.9307878 L25.3059368,23.9307878 C26.3155951,23.9307878 27.2030318,24.4568465 27.6993586,25.2459345 L32.7444622,19.5224297 C33.722591,18.2362371 35.322811,17.4485443 36.9981354,17.4485443 L37.3750746,17.4485443 C37.5844459,17.4485443 37.7792922,17.5525003 37.8933659,17.7248298 C38.0077939,17.8971594 38.0258614,18.1151877 37.9419004,18.3035642 L33.3789529,28.5149639 C32.3813395,30.7482716 30.3499777,32.4352875 27.9455736,33.0272779 L27.1428065,33.2247243 L22.4728707,35.0641857 C21.3236314,35.516638 20.0968079,35.741992 18.8703386,35.741992 L18.8703386,35.741992 Z M1.23851432,29.3902168 L2.60456444,29.5248711 C5.03235007,29.7638301 7.39778486,30.3711698 9.6353297,31.329099 L15.4927655,33.836599 C17.5524686,34.71848 19.927823,34.7530157 22.0133875,33.931485 L26.7215841,32.0770233 C26.7477999,32.0669068 26.7743698,32.0585345 26.8016483,32.0519065 L27.6451559,31.8439947 C29.6811233,31.342704 31.4010852,29.9145313 32.2453013,28.0237897 L36.4072196,18.7099689 C35.3415871,18.8645074 34.3609785,19.4299857 33.7077118,20.2874475 L28.1188097,26.6301527 C28.1195182,26.6538743 28.1198725,26.6772469 28.1198725,26.7013172 C28.1198725,28.2289108 26.8576223,29.4718466 25.306291,29.4718466 L17.1333719,29.4718466 C16.0709278,29.4718466 15.0208831,29.6396412 14.012996,29.9703465 L13.7855571,29.4017287 L13.5931906,28.8222967 L13.6247203,28.8121801 C14.755892,28.4410087 15.9373695,28.2522834 17.1333719,28.2522834 L25.306291,28.2522834 C26.1745973,28.2522834 26.8817124,27.556337 26.8817124,26.7009683 C26.8817124,25.8455996 26.1749515,25.1496533 25.306291,25.1496533 L19.4485008,25.1496533 C17.9099232,25.1496533 16.4255482,24.7397601 15.1558584,23.964277 C13.7586329,23.1106525 11.506209,21.9653934 8.71423781,21.3538675 C4.7259099,20.4828008 1.85600017,23.4968242 1.23886856,24.2157944 L1.23886856,29.3902168 L1.23851432,29.3902168 Z" id="Shape"></path>
                    <path d="M24.3841364,17.3107505 C23.4318691,17.3107505 22.364111,17.0212089 21.188656,16.4424746 C21.0462411,16.3720078 20.9364185,16.249912 20.8825701,16.1023504 C20.8347442,15.970138 19.7283711,12.8364606 21.4865938,10.5190812 C22.7644316,8.83450728 25.1670644,8.07576881 28.631787,8.26588948 C28.9477924,8.28298288 29.1996756,8.53240729 29.2152633,8.84427495 C29.2276626,9.08637364 29.4830885,14.8008085 26.5239037,16.7034108 C25.8947271,17.1084202 25.179818,17.3107505 24.3841364,17.3107505 L24.3841364,17.3107505 Z M21.9783152,15.4639634 C23.6047509,16.2150273 24.9049075,16.2886337 25.8472554,15.6826895 C27.6019354,14.5541749 27.9813544,11.2042135 27.9905653,9.46068462 C25.2758242,9.39545053 23.4276178,9.99790639 22.478539,11.2485168 C21.3491386,12.7377374 21.7880743,14.786157 21.9783152,15.4639634 Z" id="Shape"></path>
                    <path d="M14.9153118,9.32254188 C13.8174411,9.32254188 12.5509397,9.0909086 11.4456295,8.29379711 C9.57085322,6.94097498 8.70927804,4.36545008 8.88428555,0.639084595 C8.89916468,0.327565762 9.14998508,0.0770947897 9.4663447,0.0586060109 C9.73416988,0.0436056406 16.0734077,-0.289541646 18.2064439,2.86332225 C19.1998061,4.33091446 19.1183249,6.25305204 17.9651887,8.57740832 C17.895044,8.71869064 17.772468,8.8278792 17.6226134,8.88195024 C17.5393608,8.91229981 16.3770137,9.32254188 14.9153118,9.32254188 Z M17.4089909,8.30984395 L17.4156316,8.30984395 L17.4089909,8.30984395 Z M10.102961,1.25828503 C10.0494668,4.24300545 10.7463082,6.27747125 12.177189,7.31005335 C13.8904199,8.54601219 16.229639,8.02065121 16.9650955,7.80959983 C17.8064775,6.01165109 17.877685,4.57615273 17.1762381,3.5393844 C15.8725388,1.61236304 12.0492989,1.23561011 10.102961,1.25828503 L10.102961,1.25828503 Z" id="Shape"></path>
                    <path d="M19.7506899,24.9354623 C19.7312053,24.9354623 19.7117206,24.9344157 19.6918817,24.9326715 C19.36206,24.9019731 19.1151365,24.6211527 19.131787,24.2949823 C19.1682764,23.5777564 19.2306273,22.8975081 19.3152968,22.2528419 C19.5728483,17.9383232 19.4399985,7.89088076 12.9888126,5.11128138 C12.6756414,4.97627823 12.5325179,4.61696761 12.6696189,4.30823954 C12.8063656,4.00020911 13.1723225,3.85962443 13.4851394,3.99427868 C17.2867691,5.6321074 19.6784196,9.70976013 20.4000597,15.7862965 C20.4648904,16.3308441 20.5134248,16.8677169 20.54956,17.3906361 C22.2486202,13.1629798 24.8478707,11.6692243 25.002685,11.5837572 C25.3002685,11.4180556 25.6779161,11.5234069 25.8458383,11.8160881 C26.0126977,12.1091182 25.9078349,12.4799407 25.6113142,12.6452934 C25.5457749,12.6829687 21.5599269,15.0383722 20.5594794,22.3020291 C20.4833122,23.544616 20.3734897,24.3368437 20.363216,24.4094036 C20.3203498,24.7135967 20.0564216,24.9354623 19.7506899,24.9354623 Z" id="Shape"></path>
                </g>
            </g>
        </g>
    </g>
</svg>