<?xml version="1.0" encoding="UTF-8"?>
<svg width="102px" height="102px" viewBox="0 0 102 102" version="1.1" xmlns="http://www.w3.org/2000/svg" xmlns:xlink="http://www.w3.org/1999/xlink">
    <!-- Generator: Sketch 43.1 (39012) - http://www.bohemiancoding.com/sketch -->
    <title>почта</title>
    <desc>Created with Sketch.</desc>
    <defs></defs>
    <g id="Design" stroke="none" stroke-width="1" fill="none" fill-rule="evenodd">
        <g id="Контакты" transform="translate(-669.000000, -1089.000000)">
            <g id="почта" transform="translate(670.000000, 1090.000000)">
                <circle id="Oval-Copy" stroke="#509FAE" stroke-width="2" cx="50" cy="50" r="50"></circle>
                <g id="005-envelope" transform="translate(12.000000, 22.000000)" fill-rule="nonzero" fill="#509FAE">
                    <path d="M66.6256198,0.117768595 L9.28016529,0.117768595 C4.16115702,0.117768595 0,4.27892562 0,9.39793388 L0,48.5913223 C0,53.7103306 4.16115702,57.8714876 9.28016529,57.8714876 L66.6099174,57.8714876 C71.7289256,57.8714876 75.8900826,53.7103306 75.8900826,48.5913223 L75.8900826,9.41363636 C75.9057851,4.2946281 71.7446281,0.117768595 66.6256198,0.117768595 Z M71.6661157,48.5913223 C71.6661157,51.3706612 69.4049587,53.6318182 66.6256198,53.6318182 L9.28016529,53.6318182 C6.50082645,53.6318182 4.23966942,51.3706612 4.23966942,48.5913223 L4.23966942,9.41363636 C4.23966942,6.63429752 6.50082645,4.3731405 9.28016529,4.3731405 L66.6099174,4.3731405 C69.3892562,4.3731405 71.6504132,6.63429752 71.6504132,9.41363636 L71.6504132,48.5913223 L71.6661157,48.5913223 Z" id="Shape"></path>
                    <path d="M47.861157,28.5078512 L66.4214876,11.8632231 C67.285124,11.0780992 67.3636364,9.74338843 66.5785124,8.86404959 C65.7933884,8.00041322 64.4586777,7.92190083 63.5793388,8.70702479 L37.9842975,31.6797521 L32.9909091,27.2202479 C32.9752066,27.2045455 32.9595041,27.188843 32.9595041,27.1731405 C32.8495868,27.0632231 32.7396694,26.9690083 32.6140496,26.8747934 L12.2950413,8.69132231 C11.4157025,7.90619835 10.0809917,7.98471074 9.29586777,8.86404959 C8.5107438,9.74338843 8.5892562,11.0780992 9.46859504,11.8632231 L28.2487603,28.6491736 L9.54710744,46.157438 C8.69917355,46.9582645 8.65206612,48.2929752 9.45289256,49.1566116 C9.8768595,49.596281 10.4421488,49.8318182 11.007438,49.8318182 C11.5256198,49.8318182 12.0438017,49.6433884 12.4520661,49.2665289 L31.4363636,31.5070248 L36.5867769,36.1078512 C36.9950413,36.4690083 37.4975207,36.6417355 38,36.6417355 C38.5024793,36.6417355 39.0206612,36.4533058 39.4132231,36.0921488 L44.7049587,31.35 L63.5793388,49.2822314 C63.9876033,49.6747934 64.5214876,49.8632231 65.0396694,49.8632231 C65.6049587,49.8632231 66.1545455,49.6433884 66.5785124,49.203719 C67.3793388,48.3557851 67.3479339,47.0053719 66.5,46.2045455 L47.861157,28.5078512 Z" id="Shape"></path>
                </g>
            </g>
        </g>
    </g>
</svg>