<?xml version="1.0" encoding="UTF-8"?>
<svg width="102px" height="102px" viewBox="0 0 102 102" version="1.1" xmlns="http://www.w3.org/2000/svg" xmlns:xlink="http://www.w3.org/1999/xlink">
    <!-- Generator: Sketch 43.1 (39012) - http://www.bohemiancoding.com/sketch -->
    <title>телефон</title>
    <desc>Created with Sketch.</desc>
    <defs></defs>
    <g id="Design" stroke="none" stroke-width="1" fill="none" fill-rule="evenodd">
        <g id="Контакты" transform="translate(-370.000000, -1089.000000)">
            <g id="телефон" transform="translate(371.000000, 1090.000000)">
                <ellipse id="Oval-Copy-2" stroke="#509FAE" stroke-width="2" cx="50" cy="50" rx="50" ry="50"></ellipse>
                <g id="phone" transform="translate(18.000000, 20.000000)" fill-rule="nonzero" fill="#509FAE">
                    <path d="M60.2643626,47.7435049 L47.7379454,39.3898207 C46.1483041,38.3382378 44.017462,38.6842534 42.8422417,40.1849435 L39.1934269,44.8763977 C38.724499,45.4947057 37.8720897,45.6740585 37.1937154,45.2972242 L36.4996296,44.9145887 C34.1987407,43.6604483 31.3358635,42.0990877 25.5676881,36.3288577 C19.7995127,30.5586277 18.2350097,27.693575 16.9808694,25.3969162 L16.6002885,24.7028304 C16.2182573,24.024577 16.3942261,23.1685419 17.0127758,22.6958674 L21.7010877,19.0481404 C23.2011735,17.8727992 23.5476725,15.7425614 22.4972982,14.1524366 L14.143614,1.62601949 C13.0671345,0.00676803119 10.9074074,-0.479321637 9.24090058,0.522467836 L4.00280702,3.66899805 C2.35696686,4.6365848 1.14947758,6.20362573 0.633536062,8.04175049 C-1.25269006,14.9144444 0.166300195,26.7756608 17.6389396,44.2503548 C31.5380585,58.148386 41.8852904,61.8859103 48.9972827,61.8859103 C50.6340585,61.8929201 52.2644288,61.6799688 53.8445224,61.2527368 C55.6830097,60.7373996 57.2502924,59.5297895 58.2172749,57.8834659 L61.3669474,52.6485146 C62.3701871,50.9816452 61.8843392,48.8205887 60.2643626,47.7435049 Z M59.5898558,51.5902846 L56.4474347,56.8283782 C55.7531072,58.0166511 54.6258674,58.8903314 53.3018713,59.2664405 C46.9572047,61.0083626 35.8726199,59.5655634 19.0981754,42.7911189 C2.32373099,26.0166745 0.881052632,14.9330565 2.62297466,8.587423 C2.99956725,7.26185575 3.87433528,6.13316569 5.06405848,5.43775049 L10.302152,2.29532943 C11.0252437,1.86024172 11.962616,2.0711384 12.429731,2.77380507 L16.967575,9.58667446 L20.7762846,15.2991345 C21.2324016,15.9888694 21.082538,16.9133099 20.4318402,17.423692 L15.7424405,21.0714191 C14.3153528,22.1626433 13.9078207,24.1370955 14.7864561,25.7041365 L15.1588187,26.3806979 C16.4768928,28.7980936 18.1156023,31.8053957 24.0983002,37.7871267 C30.0809981,43.7687368 33.0873333,45.4075673 35.5036413,46.7255205 L36.1811696,47.0988499 C37.7480897,47.9773645 39.7226628,47.5699532 40.8138869,46.1428655 L44.461614,41.4534659 C44.972117,40.8031306 45.8961949,40.6533879 46.5861715,41.1090214 L59.111501,49.4627057 C59.8146511,49.9294581 60.0255478,50.8673138 59.5898558,51.5902846 Z" id="Shape"></path>
                    <path d="M35.068191,10.320039 C44.7465965,10.3307953 52.5897778,18.1740975 52.600655,27.8525029 C52.600655,28.4221053 53.0623314,28.8837817 53.6319337,28.8837817 C54.2015361,28.8837817 54.6632125,28.4221053 54.6632125,27.8525029 C54.6512476,17.0353762 45.8853177,8.26932554 35.068191,8.25748148 C34.4985887,8.25748148 34.0369123,8.71915789 34.0369123,9.28876023 C34.0369123,9.85836257 34.4985887,10.320039 35.068191,10.320039 Z" id="Shape"></path>
                    <path d="M35.068191,16.5079532 C41.3305536,16.5153255 46.4053684,21.5901404 46.4127407,27.8525029 C46.4127407,28.4221053 46.874538,28.8837817 47.4440195,28.8837817 C48.0136218,28.8837817 48.4752982,28.4221053 48.4752982,27.8525029 C48.4667173,20.4514191 42.469154,14.4538558 35.068191,14.4453957 C34.4985887,14.4453957 34.0369123,14.9070721 34.0369123,15.4766745 C34.0369123,16.0462768 34.4985887,16.5079532 35.068191,16.5079532 Z" id="Shape"></path>
                    <path d="M35.068191,22.6958674 C37.9146316,22.6992515 40.2213216,25.0059415 40.2248265,27.8525029 C40.2248265,28.4221053 40.6866238,28.8837817 41.2561053,28.8837817 C41.8255867,28.8837817 42.287384,28.4221053 42.287384,27.8525029 C42.2827914,23.8673411 39.0533528,20.6377817 35.068191,20.6333099 C34.4985887,20.6333099 34.0369123,21.0949864 34.0369123,21.6645887 C34.0369123,22.234191 34.4985887,22.6958674 35.068191,22.6958674 Z" id="Shape"></path>
                </g>
            </g>
        </g>
    </g>
</svg>