<svg xmlns="http://www.w3.org/2000/svg" viewBox="0 0 1080 1080">
  <defs>
    <style>
      .cls-1, .cls-3 {
        fill: none;
        stroke: #0f4c8e;
        stroke-miterlimit: 10;
      }

      .cls-1 {
        stroke-width: 3.95px;
      }

      .cls-2 {
        fill: #509fae;
      }

      .cls-3 {
        stroke-width: 14.67px;
      }
    </style>
  </defs>
  <title>Монтажная область 5</title>
  <g id="logo-5">
    <g>
      <path class="cls-1" d="M28,509s249.55-23.83,284.91-43.65a71.89,71.89,0,0,1,9.58-4.68c17.61-6.62,70-29.95,98.88-81.64.11-.19.22-.37.34-.55,3.31-4.88,51.17-74.21,115.31-101.22,0,0,48.21-20.66,66.06-44.9a9.31,9.31,0,0,0,.78-1.28c3.84-7.73,36.74-77.43-45.37-41.52-.31.14-.62.3-.92.47-8,4.68-122.58,71.84-144,88.55a8.58,8.58,0,0,1-6.14,1.77c-11.41-1.13-46.57-3.13-52.41,14.41"/>
      <path class="cls-1" d="M435.56,189.8s49,3.5-24.5,91"/>
      <path class="cls-1" d="M451.56,211.72l76.86-33.67a8.56,8.56,0,0,0,5.13-7.84v-18.9"/>
      <path class="cls-1" d="M57,364.07s133.69-2.79,206.57-103.39a19,19,0,0,1,2.32-2.67c9-8.61,50.06-46.42,99.31-68.06.23-.1.45-.21.67-.33,6.81-3.8,119.72-66.52,153.66-73.31,34.79-7,128.36,10.29,167.29,3.62a8.3,8.3,0,0,1,1.41-.12H711c9,0,11.93,12.16,3.88,16.2l-.45.22a8.47,8.47,0,0,0-3.83,3.86l-1,2a8.65,8.65,0,0,0-.9,4.21c.17,4.12-.8,13.46-12.18,17.57a8.57,8.57,0,0,0-5.59,6.54c-.91,5.34-4.87,13.26-19.92,15.72a8.45,8.45,0,0,1-2,.08l-19.23-1.48L533.55,175.8"/>
      <path class="cls-1" d="M613.62,206C607,210.8,649,203.8,649,186.3"/>
      <line class="cls-1" x1="505.55" y1="235.3" x2="530.05" y2="266.79"/>
      <line class="cls-1" x1="495.05" y1="242.3" x2="519.55" y2="273.79"/>
      <path class="cls-1" d="M519.55,116.31l142.67,27.84a9,9,0,0,0,1.64.16h44.67"/>
      <path class="cls-1" d="M691,165.3s-33-7-34-21"/>
      <path class="cls-1" d="M682.87,120.5s-2.34,13.31,29.16,16.81"/>
      <line class="cls-1" x1="505.55" y1="189.8" x2="549.74" y2="194.67"/>
      <line class="cls-1" x1="468.33" y1="204.37" x2="517.8" y2="211.72"/>
      <path class="cls-1" d="M603.54,231.8s-42,10.5-49,0,3.5-42,3.5-42"/>
    </g>
    <path class="cls-2" d="M549.4,404.41,720.83,518.69V798.37H605.34V629.52H487V798.37H371.55V518.74L549.4,404.41m0-4.73L367.6,516.58V802.32H491V633.47h110.4V802.32H724.78V516.58L549.43,399.68Z"/>
    <g>
      <path class="cls-2" d="M708.65,1037.54c.13.7,0,1.08-.33,1.15q-5.61,1-8.79,1.45l-11.94,2-12.41,2.49q-3.12.77-8.55,1.77-.52.09-.72-1t.33-1.14a41.14,41.14,0,0,0,9.65-2.7,6,6,0,0,0,3.57-4.2,22.18,22.18,0,0,0-.4-8L664.13,949q-1.11-6-2.08-7.77a3.77,3.77,0,0,0-3.52-1.88,60.17,60.17,0,0,0-10.08,1.33l-35.91,6.67a67.38,67.38,0,0,0-10.41,2.47,4.08,4.08,0,0,0-2.86,3.16q-.33,2.15.75,7.93l14.93,80.4q1,5.25,2.59,7.58a6.25,6.25,0,0,0,4.84,2.64,40.45,40.45,0,0,0,10-1c.24,0,.42.29.55,1s.08,1.07-.16,1.12q-5.43,1-8.61,1.41l-12.65,2.17-11.87,2.39q-3.12.77-8.73,1.8c-.24,0-.42-.28-.55-1s-.08-1.08.16-1.12a41.71,41.71,0,0,0,9.73-2.71,6.38,6.38,0,0,0,3.75-4.23q.66-2.76-.31-8l-14.67-79a24.83,24.83,0,0,0-2.7-8.2,7.86,7.86,0,0,0-5.28-3.55c-2.4-.52-5.69-.39-9.9.39-.23,0-.41-.28-.54-1s-.08-1.08.15-1.12q6-1.11,11.42-1.94,22.83-3.87,47.89-8.53,22.77-4.23,52.1-10.22l5.78-1.07c.35-.07.59.25.72.95s0,1.08-.33,1.15q-9.11,1.7-11.59,5.41t-1,11.61l14.68,79q1,5.25,2.58,7.58a6.31,6.31,0,0,0,4.93,2.62,40.5,40.5,0,0,0,10-1Q708.46,1036.49,708.65,1037.54Z"/>
      <path class="cls-2" d="M846.78,969.68c.33.63.29,1.06-.13,1.28-2,1-5.15,2.59-9.45,4.6s-7.41,3.53-9.3,4.53q-3.46,1.83-8.65,5-4.87,3-7.54,4.4c-.43.22-.8,0-1.14-.61s-.29-1.06.13-1.28c3.88-2.06,6.52-3.92,7.92-5.61a4.35,4.35,0,0,0,.67-5.19c-.77-1.47-2.65-3.36-5.63-5.69l-38.55-29L745.36,957.9l3.49,39.29q.63,6.52,2.47,10,4.92,9.3,20.35,1.11c.52-.27,1-.1,1.28.53s.24,1.09-.28,1.36q-2.83,1.5-8.36,4-6.15,2.85-10.55,5.19-4.1,2.18-9.28,5.32-4.56,2.82-7.7,4.49c-.53.27-1,.1-1.29-.53s-.24-1.08.28-1.36a17.72,17.72,0,0,0,6.61-5.62,19.27,19.27,0,0,0,2.73-8.91,86.38,86.38,0,0,0-.32-15.25l-8.34-96a1.39,1.39,0,0,1,.85-1.06q.8-.42,1.2,0L817.12,959q11.52,8.81,17.43,10.82a13.51,13.51,0,0,0,11.1-.74C846.07,968.85,846.45,969.05,846.78,969.68ZM745,953.84l26.76-14.18-30-22.4Z"/>
      <path class="cls-2" d="M883.77,928.43q2.87.87,6.79-1.32t10.86-8.59c.26-.24.64-.1,1.12.42s.6.91.34,1.15q-5.37,5-8.49,7.61l-11.5,10.4-8.64,8.24q-2.37,2.43-6.55,6.3-.26.24-1-.54c-.48-.52-.64-.86-.46-1a39.16,39.16,0,0,0,6.65-7.37,6,6,0,0,0,.72-5.39,22.18,22.18,0,0,0-4.61-6.55l-56-60.53c-2.42-2.62-4.45-4.29-6.1-5a6.28,6.28,0,0,0-5.44.29,36,36,0,0,0-7.92,6c-.18.16-.5,0-1-.54s-.64-.87-.46-1l6.66-5.92q5.73-4.82,9-7.85t7-7.16c1-1,2.64-2.57,4.78-4.8s4-4.11,5.71-5.64q12-11.13,24.24-12.49t22.39,9.63q8,8.63,9.18,18.44A35.24,35.24,0,0,1,878.18,874a46.8,46.8,0,0,1-11.06,15.58,34.55,34.55,0,0,1-6.89,5.16c-.26.24-.59.14-1-.29a2.4,2.4,0,0,1-.53-1c-.11-.38,0-.61.21-.68a26,26,0,0,0,5.19-3.84,27.8,27.8,0,0,0,9.38-19.11q.75-11.13-9.06-21.72-9.55-10.33-20.69-11.08t-19.89,7.36a42.86,42.86,0,0,0-6.31,6.82,5.93,5.93,0,0,0-.77,5.2q.84,2.75,5,7.19L877,923.38Q880.9,927.57,883.77,928.43Z"/>
      <path class="cls-2" d="M1008.49,780.49c.6.38.83.68.71.88L997,800.21a7.34,7.34,0,0,1-3.49,2.94q-2.14.84-9.25,1.33t-26.42,1.14q-15.21.55-21.38,1.22a25.41,25.41,0,0,0-10.12,3c-2.63,1.56-5.21,4.27-7.72,8.16a11,11,0,0,0-1.11,2l34.84,22.57q4.49,2.91,7.28,3.34a6.25,6.25,0,0,0,5.24-1.7,40,40,0,0,0,6.22-8c.13-.2.5-.1,1.09.28s.84.69.71.88q-3,4.63-4.9,7.23l-7.12,10.67-6.44,10.27q-1.59,2.79-4.69,7.57c-.13.2-.49.11-1.09-.28s-.83-.68-.7-.88a40.46,40.46,0,0,0,4.67-8.86,6.26,6.26,0,0,0-.54-5.55c-1-1.58-3-3.34-6-5.28l-69.23-44.84q-4.48-2.91-7.16-3.37a6.33,6.33,0,0,0-5.24,1.71,36.87,36.87,0,0,0-6.25,7.84c-.13.2-.49.1-1.09-.29s-.83-.67-.7-.88l4.89-7.23q4.37-6.07,6.89-10,2.8-4.34,6.77-11.11l4.5-7.28c.12-.19.49-.1,1.09.29s.83.68.7.88q-3.68,5.68-4.53,8.95a6.83,6.83,0,0,0,.7,5.65q1.53,2.39,6,5.28L915,818.4q4.92-8.28,6.18-10.22l1.85-2.84-13.56-34.46q-4.9-12.74-8.5-15.06a3.57,3.57,0,0,0-4,0,16.67,16.67,0,0,0-4.63,5.18c-.13.2-.49.1-1.09-.28s-.83-.68-.7-.88l4.31-6.34q4-5.47,7.18-10.42t6.48-10.66l3.33-5.48c.2-.3.59-.26,1.19.13s.8.73.61,1a29.79,29.79,0,0,0-5.1,16.23q-.06,8.45,4.61,21.23l12.59,36.6a18.27,18.27,0,0,1,6.41-4.65,32.55,32.55,0,0,1,8.45-2.07q5-.6,15.83-1l4.59-.21q14.41-.63,22.46-1.58a44.18,44.18,0,0,0,14.06-3.84,25,25,0,0,0,9.94-8.64C1007.53,780,1007.89,780.1,1008.49,780.49Z"/>
      <path class="cls-2" d="M1034.41,711.82c-.68.26-1.13.11-1.37-.43q-6.66-8.64-9.77-13.09-12.24-16.44-20.47-26.21a132.69,132.69,0,0,0-17.6-17.42,49.06,49.06,0,0,0-19.06-10.07q-10.2-2.54-17.33,1.38t-9.54,13.59a23.27,23.27,0,0,0,1.27,15.93Q944,682.78,952.39,688c.12,0,.12.28,0,.74-.23.92-.56,1.27-1,1Q939.73,684.3,935,674.49t-1.75-21.74q3.11-12.45,12.06-17.83t20.2-2.59q10,2.49,19.37,10.7a119,119,0,0,1,16.52,17.7q7.19,9.49,16.27,23.14c.9,1.33,2.43,3.64,4.61,6.94a70.12,70.12,0,0,0,5.56,7.53q1,1.17,1.38-.39,5.6-22.47,7.32-32t.16-13.91q-1.56-4.43-7.22-6c-.23,0-.27-.4-.11-1s.35-.92.58-.87l19,4.91a2.25,2.25,0,0,1,1.19.76,1.35,1.35,0,0,1,.33,1.27l-14.81,59.47A1.84,1.84,0,0,1,1034.41,711.82Z"/>
    </g>
    <path class="cls-3" d="M520.31,1055C235.14,1044.87,11.84,791.75,22,506.58"/>
    <path class="cls-3" d="M50.47,364.05C128,165,331.44,14.3,557,22.3c272,9.66,487.41,227.88,498,495.47q.76,19.44.07,39.2"/>
  </g>
</svg>
